<?xml version="1.0" encoding="UTF-8" standalone="no"?>
<!-- Created with Inkscape (http://www.inkscape.org/) -->

<svg
   xmlns:dc="http://purl.org/dc/elements/1.1/"
   xmlns:cc="http://creativecommons.org/ns#"
   xmlns:rdf="http://www.w3.org/1999/02/22-rdf-syntax-ns#"
   xmlns:svg="http://www.w3.org/2000/svg"
   xmlns="http://www.w3.org/2000/svg"
   xmlns:xlink="http://www.w3.org/1999/xlink"
   xmlns:sodipodi="http://sodipodi.sourceforge.net/DTD/sodipodi-0.dtd"
   xmlns:inkscape="http://www.inkscape.org/namespaces/inkscape"
   width="361.2444458007812mm"
   height="361.2444458007812mm"
   viewBox="0 0 361.2444458007812 361.2444458007813"
   version="1.1"
   id="svg5604"
   inkscape:version="0.92.1 r15371"
   sodipodi:docname="cognac.svg"
   inkscape:export-filename="../Assets/Textures/RUM label.png"
   inkscape:export-xdpi="96"
   inkscape:export-ydpi="96">
  <defs
     id="defs5598" />
  <sodipodi:namedview
     id="base"
     pagecolor="#ffffff"
     bordercolor="#666666"
     borderopacity="1.0"
     inkscape:pageopacity="0.0"
     inkscape:pageshadow="2"
     inkscape:zoom="0.349936652157614"
     inkscape:cx="442.0413930029882"
     inkscape:cy="916.562037099521"
     inkscape:document-units="mm"
     inkscape:current-layer="layer4"
     showgrid="false"
     inkscape:snap-global="false"
     inkscape:window-width="1920"
     inkscape:window-height="1013"
     inkscape:window-x="-9"
     inkscape:window-y="-9"
     inkscape:window-maximized="1" />
  <metadata
     id="metadata5601">
    <rdf:RDF>
      <cc:Work
         rdf:about="">
        <dc:format>image/svg+xml</dc:format>
        <dc:type
           rdf:resource="http://purl.org/dc/dcmitype/StillImage" />
        <dc:title></dc:title>
      </cc:Work>
    </rdf:RDF>
  </metadata>
  <g
     inkscape:groupmode="layer"
     id="layer4"
     inkscape:label="Layer 2">
    <rect
       style="opacity:1;vector-effect:none;fill:#4b3325;fill-opacity:1;stroke:none;stroke-width:7.5590553284;stroke-linecap:round;stroke-linejoin:round;stroke-miterlimit:4;stroke-dasharray:none;stroke-dashoffset:0;stroke-opacity:1;paint-order:stroke markers fill"
       id="rect6161"
       width="1345.556030273438"
       height="728.0419311523438"
       x="9.611114501953125"
       y="353.7635803222656"
       transform="matrix(0.2343452379043468,0,0,0.4689150212381595,20.6341476217172,-155.5664246307667)" />
    <path
       style="opacity:1;vector-effect:none;fill:none;fill-opacity:1;stroke:#ff6b08;stroke-width:7.5590553284;stroke-linecap:round;stroke-linejoin:round;stroke-miterlimit:4;stroke-dasharray:none;stroke-dashoffset:0;stroke-opacity:1;paint-order:stroke markers fill"
       d="m 305.1528873634239,147.1246032103989 -45.6527941724808,1069.2364950923122 860.194753355189,-8e-12 -62.472244657104,-1069.2364950923042 z"
       id="path6163"
       inkscape:connector-curvature="0"
       transform="scale(0.2645833333333333)"
       sodipodi:nodetypes="ccccc" />
    <g
       id="g6206"
       transform="matrix(1.500789598245962,0,0,1.500789598245962,-45.83160365643804,-98.50148563063396)">
      <path
         transform="scale(0.2645833333333333)"
         inkscape:connector-curvature="0"
         d="m 415.9251534194895,677.0012219977196 c -0.6255244118238,-3.926698629901 -1.4937445929111,-7.7717662261989 -2.7581821755959,-11.5428171728197 -1.0915855722377,-3.3820637072598 -2.9250364792515,-6.4330044922417 -5.3892882758348,-8.9823210656801 -1.8617863133471,-1.8367690131137 -4.0893421544358,-3.2569921268963 -6.4436465477857,-4.3757374530701 -1.9965079184749,-0.8387575255738 -4.2008719779432,-0.6322222478834 -6.2429081632285,-0.063006232174 -2.757810742852,0.7479466312096 -5.4592476617546,1.8931296089254 -7.7894014054715,3.5588941245211 -2.4242555139661,1.2336962531618 -4.5178876203591,2.9249015349128 -6.7322590594892,4.467596585613 -1.7863987840418,1.7535183276232 -3.6928581894283,3.3587555044568 -5.5441457684417,5.0578618365934 -2.0804105126601,2.2390614118247 -4.1799723898158,4.4640824841218 -5.9300830358532,6.9878150102628 -2.2881983246955,2.5045660389455 -4.0344263554011,5.4446197178023 -6.2131762296586,8.0322408161112 -2.0944425099835,2.6470462139037 -3.6863386032045,5.610174489626 -5.396190317041,8.5039317019832 2.0937079066448,-4.8802714633839 -4.3684808156438,9.4894044477112 -2.1707032646484,4.783740978932 9.8739463551973,-21.1411153213824 6.0122975231425,-12.7886967510349 3.8635368070659,-8.1234837170826 -1.4167263815999,3.2846657073674 -2.8048588139309,6.5918887748677 -3.8200796954284,10.0256614126946 -1.2214494212411,3.2765582087841 -1.8894453423295,6.6962172672119 -2.6721574775606,10.0894311233186 -0.8489509121849,3.2041248865864 -1.4936779046707,6.4090579969998 -1.4871730404599,9.7272787986807 0.192125615392,3.3348417201763 0.3556600959906,6.6839789962112 0.8198711024876,9.9937689442527 0.4172943406679,3.3884519895222 1.3943569695064,6.6410734257122 2.5636583029999,9.8347037375578 1.1839669317777,3.0317761018922 2.6064432471743,5.9705736175698 4.1466469937,8.8363807658203 1.1810670927364,2.2934520590044 2.7935247926021,4.3096660527226 4.4401225054707,6.2793405981937 1.9036722910121,2.0985599562531 3.8872089643233,4.1311574554395 6.0082621778857,6.0106605356633 2.2849438888094,1.890976194774 4.4903235750434,3.90099197954 7.0825377755933,5.3640668982024 2.2528002160194,1.5120696452185 4.710704347343,2.4055027835275 7.3575364185714,2.8984999690359 2.9184048103042,0.3495967340317 5.8962322720175,0.6138028055572 8.8273754739926,0.3041356553047 2.9510736095532,-0.2768452029128 5.7583372645894,-1.1524664015905 8.6172481614281,-1.8667650515181 2.5166982007528,-0.8904599125134 4.9664039112022,-2.0108260269942 6.9038822817355,-3.8813015599533 1.9813688149551,-1.560734816893 3.6082563093744,-3.7271672937389 4.5765127513878,-6.0610236351407 1.487363791812,-4.6278197630568 5.571122904602,-12.3553495962668 -4.5534216717908,9.292302598672 -0.1795328037915,0.3838655323939 0.3906685185512,-0.7524326145243 0.5696925577371,-1.1365356840132 0.5979014878926,-1.282820998767 0.4916063125121,-1.1190359721027 0.9070052099576,-2.5163208806215 -3.5853791048301,-4.3528111660452 8.7262300661101,-14.4937946786447 12.3116091709401,-10.1409835125994 v 0 c -0.5712387819515,1.2877992758741 -0.6652729500117,2.685263763846 -1.2417160331548,3.9547389419756 -2.1116563060846,4.650407548824 -4.7289048136955,11.5297694583122 -8.004923350932,16.4968067696217 -1.8907746065906,2.2873989576701 -3.8792753736722,4.4314894051897 -6.4361749369221,5.9985529305803 -2.7546054095838,1.573252985389 -5.629399830339,2.9209385057417 -8.7361257325753,3.6439552810181 -3.1069515806376,0.7674998423067 -6.2473212712883,1.3961321640535 -9.4468691124545,1.6215625717127 -3.3694079768877,0.1107964712137 -6.7544629517309,-0.1125517182622 -10.0669781145028,-0.7627533668217 -3.0539816931006,-0.7209664393253 -5.9847266869905,-1.7734077106281 -8.6619077768122,-3.444263100985 -2.9321014891488,-1.5922134984669 -5.5383058088679,-3.6497325992772 -8.0094276179657,-5.8852530804744 -2.3054888250902,-2.0467530710473 -4.5302349907468,-4.1687238066866 -6.6419614378557,-6.4159572966022 -1.794098876588,-2.2112238439187 -3.5827036606339,-4.4216250052136 -5.1963974839417,-6.7666842736546 -1.6583144790773,-2.9654721175864 -3.3868962937471,-5.9119023672505 -4.7078543260094,-9.047140975061 -1.4724180316344,-3.385245666124 -2.7269148537357,-6.9025972136244 -3.3410304355865,-10.5525726615325 -0.6557594015984,-3.4434555825917 -1.0030820527734,-6.8929049284343 -1.2370793538765,-10.393018586552 -0.3072097613908,-3.6080852622615 -0.4897508741464,-7.140417136161 0.5459433322937,-10.6715320192278 0.82089769787,-3.4533297215287 1.3982712555544,-6.9520571492997 2.4113394447195,-10.3584534569375 1.1756155493969,-3.4624898679017 1.9858930110224,-7.0437269675004 3.4864761950809,-10.3987334491909 3.2062472212307,-7.8191320908298 6.6098862806843,-15.6328539965457 10.9378482039809,-22.9001179293033 1.8047507052507,-2.9494784166795 3.8243568298024,-5.7543361463322 5.9699308545589,-8.4656930749225 1.9678654733465,-2.7676389811785 4.1573000753424,-5.3663200697061 6.2727222279206,-8.0204067197857 2.1416056586975,-2.3776536878446 4.3174465628987,-4.7416328542278 6.7731550286771,-6.8003713255938 1.9856013195465,-1.672083038678 3.8524003402055,-3.4905604869604 6.0103186925733,-4.9446124069949 2.2813105621607,-1.6845623420101 4.7712539201924,-3.051803011139 7.1937042692435,-4.5196996089768 3.0199255078151,-1.4771055704822 6.1384143394692,-2.7502359174282 9.5107093159906,-3.1367318677252 3.03627826731,-0.2407133047558 6.1125519021545,-0.227805709117 8.941310883828,1.0674176004195 2.7776911519292,1.3153351289262 5.4865434475581,2.8717714836238 7.8038223765529,4.9056399313113 3.244302731287,2.7473180443836 5.8127105162241,6.1648176121299 7.5250797960803,10.0708016812059 1.5128446009086,4.1002885195037 3.0498277550304,8.2910284831803 3.1182801519811,12.7154717074661 4.1192617466978,3.7564611548941 -6.5056148768593,15.4074928131836 -10.6248766235572,11.65103165829 z"
         id="path6169"
         style="opacity:1;vector-effect:none;fill:#ff6b08;fill-opacity:1;stroke:none;stroke-width:7.5590553284;stroke-linecap:round;stroke-linejoin:round;stroke-miterlimit:4;stroke-dasharray:none;stroke-dashoffset:0;stroke-opacity:1;paint-order:stroke markers fill" />
      <path
         transform="scale(0.2645833333333333)"
         inkscape:connector-curvature="0"
         d="m 484.7286128220234,705.5783513731181 c -3.1884940572669,-2.1241923602381 -6.5860551402074,-3.8327087651379 -10.166323281926,-5.180041469937 -3.1028742660918,-1.0947439856841 -6.3577331104993,-1.726246983794 -9.6097268547849,-1.0217197856474 -2.5712849810167,0.4431964786903 -4.6662885266713,1.9123612743059 -6.9127427335161,3.116198215381 -2.2193712664417,1.3764631518849 -4.0371300775684,3.2302605110649 -6.0599382879158,4.849047291458 -1.7508721213032,1.6352491488868 -3.199580957901,3.4606821598262 -4.4230506907161,5.5217608165311 -1.9778369919393,5.0447422778119 -0.8852332279999,2.1737872642949 5.2802693784445,-10.6214130950649 0.1753788068199,-0.3639617262836 -0.4185286651708,0.6940314065231 -0.5789029365323,1.0648493634319 -0.5664958144598,1.3098536238514 -0.9553526545421,2.7566799672568 -1.3934962787571,4.1137023202407 -0.8573077024973,3.1949322159359 -1.4506285765535,6.4562387292757 -2.131187483141,9.6946675584568 -0.7050194647577,3.303196537982 -1.0173930223577,6.6660488730055 -1.2201869707266,10.0315805186551 -0.1706509613007,3.3832746829795 -0.1736978622746,6.7717988315269 -0.1738151627255,10.1584342464804 -0.1186859079003,3.1124305375902 0.027733250463,6.1727617457716 0.4870139637668,9.2493279090969 0.1989144051206,2.3723367332002 0.9682696687767,4.5802629052306 2.2052707906963,6.5972770882404 1.1101840626464,1.8736749963257 2.6980694293448,3.2789320274893 4.413706410704,4.5736047461636 2.1892762570758,1.528016063058 4.4965790866715,2.8668797056089 6.7783319142474,4.2474672101789 2.332337487674,1.4871320226213 4.7490869032565,2.7307809978148 7.3981615396407,3.529799352414 2.7341917225795,0.8410007109063 5.459701528562,0.7632240739929 8.2504217363075,0.4008452006141 2.5312366530545,-0.7987633583962 4.4724047738948,-2.7824467858426 6.5583573570127,-4.3479185432575 1.8592464159098,-1.9623421110581 3.5210901635239,-4.1475988523761 4.7792032187327,-6.5536794802364 0.00691994063,1.6011771035969 3.0806993780222,-5.521799277548 2.1584677996659,-3.6281566038285 -1.883814480189,3.8680864684912 -7.2887187027672,15.586060974163 -5.604784250328,11.6268672830964 2.0442894941706,-4.8064448448756 4.4307517979638,-9.4601941665545 6.6868354403874,-14.1709391374902 1.8547934195277,-3.8728434570708 -3.6552936920141,7.7714559970135 -5.4829405380212,11.6571839955203 1.4385551344007,-2.4995625031029 2.0161232680078,-5.3239467476901 2.7724181963439,-8.07371684591 0.9526285220298,-2.7394325103743 0.6994253127405,-5.6648823098226 0.9097055741172,-8.5146509229212 0.4643250964247,-2.9489664356613 0.3459156526926,-5.8756410373671 0.281940239463,-8.8381230638846 -0.063830167575,-2.9502813115314 0.3386876455944,-5.8932916959537 0.2685700589148,-8.8390252190319 -0.274861735168,-2.8077489235377 -1.064736752742,-5.5920091803863 -1.9388045101603,-8.2730698652907 -1.092206970872,-2.5279167574229 -1.3999546783608,-5.3139662546113 -2.517293901831,-7.81902381723 -0.9829700758148,-2.2230792673581 -2.9733402192982,-3.5754090385144 -5.0334981611931,-4.7072586804354 -2.5013654393676,-1.2945134774201 -5.1179188931273,-1.4836876409926 -7.8614870519869,-1.2649850073517 -2.6245578989821,0.3804397973882 -5.2821463082338,1.1070772873012 -7.7759695678794,2.031714253119 -2.3989138003847,1.0794043904765 -4.2652066842789,2.8707837045833 -6.3030561944328,4.4632829340424 -2.0123952738659,1.6134161100451 -3.2581044170681,3.8662715988713 -4.910293501571,5.7881211671923 -1.6668632648463,2.3498453525455 -2.9774848586939,4.9020032676608 -4.2683694364552,7.4674390125864 -2.0382330435143,5.3914849831333 -0.4869208852694,1.19080663563 4.9286696094101,-10.3666282647024 0.1971062004182,-0.4206451876342 -0.3854276745444,0.845995485451 -0.5516591216999,1.2797700053342 -0.5273802188629,1.3761782451364 -0.8158364871528,2.7787141274838 -1.0819604409832,4.2222763564317 -0.4802614333892,3.210453196534 -0.4974196813089,6.4643100839801 -0.5148518084618,9.703093554656 0.00302987734,3.4079146575755 0.045203089328,6.8156421053399 0.073946635029,10.2234039318619 -0.099132100177,3.1229836485323 0.041210712773,6.1953049946388 0.4957022820958,9.2834191391595 0.2728718028766,2.5622925193298 1.0967282140005,5.0201838360377 2.0645012307697,7.3932912465915 0.7532788419873,2.0332446526421 1.7500714811299,4.0029921348184 3.1514194298572,5.6666954165798 1.6404698981659,1.4787043968521 3.5545292262697,2.3493850530397 5.6714395997369,2.8777638315064 2.8814623873911,0.5591265529282 5.8299880701932,0.5796141115815 8.7543636934448,0.6142212026939 2.7346947373502,-0.053840744218 5.2274659886818,-0.9971235921738 7.7887597698592,-1.8143415456725 2.4914062358547,-0.683442863502 4.8306468461242,-1.8001404195594 7.1614421171564,-2.893494331733 1.8208342572538,-1.3206987767685 3.0429694640817,-3.0399936908791 3.5892393339166,-5.2190929700899 2.2325994961034,-4.4621000809572 5.405058988992,-11.5028433647647 -4.4289902339758,9.5076436625105 -0.1767201746911,0.3775633875341 0.3747108500442,-0.7464964065058 0.5218823213052,-1.1365280588068 0.3168303730849,-0.8396591598522 0.5508748145345,-1.7089573568677 0.8659513531964,-2.5492762039836 1.1895895733601,-2.5321414756562 1.5478976659219,-5.2906678436818 2.1473819018125,-7.9866623523011 0.7805873108279,-2.7917493528308 1.2799786393163,-5.6365513309964 1.5998502697378,-8.5139382321101 0.3102771230626,-3.2478841775867 0.3497946524362,-6.5128207226675 0.379097946649,-9.7727903322987 0.016599436362,-3.4023020506481 -0.00348430345,-6.8046459637701 -0.017318382204,-10.2069227551558 0.1306290146137,-2.7724016180631 -0.2950726912154,-5.5117310270108 -1.0901388667777,-8.1570380115096 -0.7335892570296,-2.6347373581616 -1.6193257994022,-5.2064980656587 -2.7423643368651,-7.6990942139372 -0.9795214950224,-2.0739614175767 -2.4001689535122,-3.7697363379416 -4.2611772063988,-5.0964398675153 -0.2186392319866,-0.1061618622847 -0.4372784639732,-0.2123237245695 -0.6559176959598,-0.3184855868537 -5.0867385380601,-2.3520901515797 1.5659770465152,-16.7395594091203 6.6527155845753,-14.3874692575411 v 0 c 0.4688822627937,0.2055022614883 0.9377645255874,0.4110045229767 1.4066467883811,0.6165067844646 2.4641733718752,1.6097445158215 4.7494010119293,3.6247259381222 6.2034228538409,6.219120831017 1.6396994514574,2.5530382842635 2.8013575510201,5.3778844638213 3.5258584126803,8.3255167716394 0.928999823232,2.9641978531312 2.0250912677788,5.8371144960844 2.2564570661283,8.9761610192769 0.01264654294,3.4130568263222 0.031243653659,6.8260901443188 0.040446778589,10.2391586930737 0.00182219679,3.3614481736604 0.00261742046,6.7245985988698 -0.1532537248168,10.0832498706721 -0.1732449106255,3.0628032250251 -0.4065824374098,6.1373534252569 -1.1495732461378,9.124355631988 -0.7457468236149,2.7910336524712 -1.1069211396578,5.6170303727455 -1.8344878723227,8.4156634279096 -2.4689046586925,6.9438540642434 -5.2385171677622,13.8488349175068 -9.0201667008614,20.2257035476515 -1.8225503393042,2.142963431166 -3.9948185544784,3.9448055367152 -6.6340237491645,4.9922038773591 -2.5127977802436,1.1238607002047 -5.1179179319063,2.0431510019902 -7.7578321331766,2.8202933397822 -3.0394592185296,0.9391149070199 -6.1496571383188,1.5687932802447 -9.3492558832942,1.5369721769373 -3.3085960993748,-0.1176132100486 -6.6424066063314,-0.2889052346778 -9.8533168465327,-1.1662863944224 -2.8483371480195,-0.8897108606254 -5.4493045065752,-2.1746563154777 -7.7974367304231,-4.0397341187065 -2.0963128391243,-1.8965965105667 -3.5649106107949,-4.2241643065446 -4.8171969015685,-6.7475260166964 -0.9801473362303,-2.6763504552094 -2.2541373809493,-5.2175921615551 -2.9358942659452,-8.0059676049292 -0.4877623740769,-3.2174479289318 -1.3007576751547,-6.3931419203999 -1.0616728138729,-9.6730380532631 -0.022331185378,-3.4162156981165 -0.055594969989,-6.832325073844 -0.091519867037,-10.2484228425967 -0.026541324447,-3.3933984152737 -0.061310298172,-6.7902898754403 0.1298937297006,-10.1800367700505 0.5922936592596,-8.0510074831052 3.3790356522681,-15.2843631375996 8.1495594691919,-22.1848751293005 1.5438647513623,-2.5928539426933 3.0661958517333,-5.1878667203558 5.1449589409704,-7.4109014504671 1.6906316663504,-2.1809994920682 3.7995206381084,-4.003431104003 5.9750647456131,-5.6867652862268 2.4064177648685,-1.8715680745416 5.0883618022415,-3.3850838458917 8.0228005001219,-4.2576607406055 2.9545017298383,-0.7671999962862 5.9060708542937,-1.6948404857235 8.9881437790311,-1.717865196465 3.6029251207772,-0.031911942938 7.083193969421,0.4828939539295 10.3152752560533,2.1903276983137 2.8809670636861,1.5985501006015 5.5184401392457,3.5661196660077 7.4158873486418,6.3073406270108 1.4591641245236,2.6125142269168 2.431674503792,5.1988536255094 3.0645103876191,8.1339059162916 1.1132344792386,2.9733299840591 1.9619763897277,5.9947400445787 2.8264999537186,9.0537196356585 0.4673245385857,3.0796188272885 0.4504091633957,6.0976582842612 0.1111815231314,9.2022518777604 -0.1867154572698,3.0483783061783 0.4148834513038,6.0091037133966 -0.026154947308,9.049942948467 -0.3049132048112,3.023341011306 -0.5590761229,5.9855851267763 -0.3856375383397,9.0296127667276 -0.6417323060954,2.9834426986738 -1.4627130991053,5.9239022916859 -2.2513446223437,8.8667833126772 -18.1281426186318,38.6142104936414 -0.8936142492662,1.9234135683989 -1.1891181102298,2.4835879030958 -3.3576576850178,6.3649715225732 -5.1793525859185,12.3771455066554 -9.2915149778598,17.8826888266113 -1.9115371819776,2.4055298450792 -3.8897320722858,4.7910523049818 -6.4948183854469,6.4825700777028 -2.7276061088871,1.9496817932003 -5.6537541025722,3.538393843515 -9.0618803814651,3.8202192648738 -3.4335462800764,0.2549942893661 -6.8225075638874,0.069681083262 -10.1218172690519,-1.0195131543827 -2.9779722196441,-1.000103604748 -5.7419024146846,-2.3727029356353 -8.3804929157952,-4.0801289975791 -2.4021297970969,-1.4520272569042 -4.8574649560627,-2.8222740293066 -7.1106168642753,-4.507242198683 -2.2152658598964,-1.5763587334627 -4.2718528269347,-3.3002688525831 -5.9151865403388,-5.4858657695922 -1.6308905350972,-2.4308040668423 -3.2077874138346,-4.8333476052433 -3.8688031381354,-7.7430078844781 -0.4940255290944,-3.2140018860398 -1.3162185164943,-6.385422308977 -1.0762301224722,-9.6635235229373 -0.017557027248,-3.4352102560914 -0.041769655713,-6.8708667887421 0.017418617871,-10.3058251778754 0.084656507469,-3.5160013064492 0.2220156412694,-7.0382482200921 0.7426149283298,-10.5216779766381 0.5449928371581,-3.376307936144 1.4554298879298,-6.6613459522522 1.9329884074541,-10.046628693745 1.6677149855067,-7.4166560354596 4.4776931230952,-15.0186793976528 9.1951093521519,-20.9763723527833 1.7200191637375,-1.9815018565589 3.4919827593541,-3.8908348191238 5.5942367082122,-5.4876620421837 2.1515331009144,-1.8688880645275 4.5376114530947,-3.4777380538319 7.0753838288603,-4.7759736388139 2.6919846474217,-1.3776949213178 5.5187227173121,-2.4312932286175 8.5374908756291,-2.8146771986702 4.0929892607973,-0.3612940762165 8.1351107243966,0.055121313525 12.0078840104131,1.5075298674492 4.0909849910741,1.5422660127416 8.1228441122751,3.4080828534749 11.3280263353988,6.4601532517909 4.8503328360012,2.7376716871507 -2.8929720225862,16.4564846445438 -7.7433048585882,13.7188129573927 z"
         id="path6173"
         style="opacity:1;vector-effect:none;fill:#ff6b08;fill-opacity:1;stroke:none;stroke-width:7.5590553284;stroke-linecap:round;stroke-linejoin:round;stroke-miterlimit:4;stroke-dasharray:none;stroke-dashoffset:0;stroke-opacity:1;paint-order:stroke markers fill" />
      <path
         transform="scale(0.2645833333333333)"
         inkscape:connector-curvature="0"
         d="m 551.2340243872961,705.899001059539 c -3.0857577218758,-1.291961621592 -6.1352397671242,-2.2360894968649 -9.4941386414596,-1.8656858099721 -2.9477784719413,0.4276425792498 -5.3426954121137,1.8599365895863 -7.10045770316,4.2307114110511 -3.2775730377272,4.7859951302482 -9.0605278670494,18.4295133107348 1.6301551520181,-4.3278748243096 -1.6181682200395,3.0586147058232 -2.648123069318,6.3309829827092 -3.3239046499232,9.7100510670049 -0.5773716482181,3.2823136416506 -0.6610387306307,6.6196985619249 -0.715596717352,9.9433082671651 0.1840571191839,3.0884080965726 0.5991775510934,6.1575556037459 1.316265082339,9.1659608478227 0.6720364916936,2.2570809368068 1.8499681624809,4.1893983418927 3.5370928926877,5.8134521633092 1.9654528503238,1.578347245956 4.1172426503322,2.7153636123677 6.5332345460941,3.4010462438314 2.6625508459775,0.755563639197 5.2981520003347,0.5753100643519 7.9882815066397,0.1828847655457 2.4696952427788,-0.5924781174376 4.0684860341621,-1.8192386381429 5.1693321890888,-4.089804915282 0.029183079316,1.4998327666349 2.6794081849317,-5.1241662103372 1.8537160714163,-3.4481001673447 -10.2017214697321,20.7083956060751 -6.6325993797277,13.7411003118326 -4.4583855880171,9.132587204802 1.310350302226,-2.5122178689802 1.8985178449468,-5.2488234690937 2.2747805805715,-8.0307669576697 0.5299496182193,-2.8958451744844 0.123546372119,-5.7456783616944 -0.2995387904205,-8.6190649243341 -0.2102290010731,-2.811299521554 -0.9834890937559,-5.5151707559655 -1.5379526448072,-8.2660393129239 -0.6421215577974,-2.5313706104654 -1.5567767023149,-4.9422890909825 -2.7201701619641,-7.275235197283 -1.0038763353879,-2.0677488495937 -2.0563618825171,-4.1038342529023 -4.060335892945,-5.3228103176856 -2.3193124995571,-1.0588941123649 -4.775822222791,-1.0251217591433 -7.190254668184,-0.3591834353233 -2.6053197221414,0.6353124971422 -4.4133747392955,2.6718115611947 -5.9804946226358,4.7292149958978 -1.3948920103821,2.2563142957923 -2.671406497343,4.5531958071837 -3.8225023276461,6.9475447785794 10.5129806386736,-22.6146404224903 5.137656426755,-11.0440001045441 3.0545042743432,-5.6737211956704 -1.0062733470428,2.7459301343862 -1.2757771444941,5.6626174364796 -1.4711685408442,8.5573473048869 -0.1480361338687,3.1000071295117 -0.2882286948598,6.1920286021632 0.090489789391,9.2766269007193 0.3397066372296,2.661933604542 1.1183249286263,5.2485673238833 2.4853806987983,7.5600179579494 1.5192967008768,2.050628793525 3.7609876900229,3.4338950204725 5.8332940598019,4.8727233379757 1.9212697349475,1.376669763495 3.9454303114654,1.6785282471118 6.2297498849481,1.5200187324152 2.1528606546833,-0.4053055336492 3.6249898688477,-1.8682990087834 5.3045768112513,-3.1181596427707 1.8575025977375,-1.600930196067 3.0313523601534,-3.5013456191059 4.0116106771402,-5.7382103945746 1.5660834881803,-4.7541016601533 5.5384805836319,-12.1982388847823 -4.3463917271913,8.8370038381245 -0.2232417686587,0.4750637784648 0.4351540887609,-0.9556749875892 0.6334631971414,-1.441674965384 0.5556263559531,-1.3616842860143 0.6043254271375,-1.6225045783117 1.0436356376839,-3.0285696186637 0.9180134983825,-3.2035066933207 1.1699964542147,-6.5315906612609 1.3350005504112,-9.8433951785481 0.1268032666701,-3.4027635798284 0.09498802599,-6.8087218982777 0.071857063289,-10.2129777261239 0.1084433055914,-3.3219808216611 -0.1236809225543,-6.6040175994793 -0.5849048669227,-9.8901507223561 0.1080367037573,-0.3697577538097 -1.2902335016039,-4.4958934535081 -0.8489444808888,-4.687169230172 0.2125221073187,-0.092117250209 0.427912768552,0.177493691183 0.6428147288766,0.2639134883012 0.9121471123267,0.3668071164648 1.8255411144878,0.7305059206966 2.7383116717324,1.0957588810451 12.3887151160295,-22.457794470404 5.9884084160875,-14.6604453991588 6.0813903903039,-9.6213753557838 0.028475922911,1.5432256769005 0.2589823530476,3.0894731039151 0.4439946695337,4.6189543321616 0.7289045044879,3.4530885861398 1.3536313044034,6.9307891784706 2.1318483069665,10.3731389862681 0.8838957508981,3.4442951961081 1.4773820578356,6.9447960528338 1.9093514530897,10.4710328071227 0.6004857202372,3.4303825386993 1.1878319614134,6.8588337004262 1.5903908486348,10.3188460138182 0.4422998973655,3.2677886700095 0.3163651619799,6.5756103473485 0.5953956785579,9.8514619519244 0.4336252996657,3.0547842294416 0.8995880745747,6.1014324685043 1.2061250048821,9.1724799022386 0.3040495359278,3.316697237271 0.3767081347935,6.6479138131082 0.4255269314333,9.9762379102383 0.036047838605,3.403333894162 0.023703076338,6.806931091691 0.014929038639,10.2103721545325 -0.010422964292,3.4039169606127 -0.017882387566,6.8078407730038 -0.022850743759,10.2117697547296 -0.05210059981,3.4615498565336 0.1104444934457,6.9284077898807 -0.1245505422878,10.3837432310451 -0.4407426887908,3.3574865443248 -0.7095966113255,6.7458822551242 -1.2843647022687,10.083478427283 -0.5034136789559,2.8336617577995 -1.2623959195556,5.6267147038146 -2.3758152180808,8.2821399960495 -2.2187594335777,8.2546608686872 -6.4432915797862,13.1594035299355 -10.6750386708461,19.5533648762802 -1.2615316917794,2.330923909426 -2.7833938451382,4.6167288070111 -4.6511874881032,6.512403837714 -1.5397529977278,2.2503553559617 -4.1380031528561,3.4182689819451 -6.5064248515329,4.6143605892098 -2.8819363652558,1.2695958567838 -6.0159417434162,1.6455980798495 -9.1213224383406,1.9178323853794 -3.2910225889118,0.4379215403603 -6.5315367893893,-0.2026268275554 -9.7733865503038,-0.6945974837482 -2.9551750493,-0.4943039417689 -5.886725797753,-1.2779715702058 -8.7700290414771,-2.1067726418817 -3.1574308820777,-0.8472621749058 -6.2161122727517,-1.9428152760503 -8.7826260200649,-4.0044079191199 -4.9744624529226,-5.2103469173976 -1.5886639531768,-4.2784508462299 6.7032788066754,-15.2220681045825 0.2994052112989,-0.3951517916248 3.5612897649504,1.6384908216036 3.9345838858351,1.858045661608 2.3597150125978,1.5900328684487 4.4191709536369,3.5567900087563 6.4591972225719,5.5261097229335 1.7599128181606,1.6420155370662 3.2388662526374,3.5941949935194 5.2639894026147,4.9219549910838 1.902884070691,1.5272224926358 3.7815021477651,1.9839063567157 6.1517766110778,1.9828842074098 3.0480001523273,0.1335973144576 5.8930942442087,-0.775549864308 8.751283452453,-1.6904485485088 2.7370556048072,-0.9725341629054 4.9296334149823,-2.7609573920414 7.2248987138697,-4.4505266349015 1.6444138185293,-1.7523695684823 3.6470658529587,-3.1387091532281 4.7656180292762,-5.3095973084121 1.634378929434,-1.8427834097322 2.7726485610981,-3.9304327150098 3.9614570687868,-6.0676513350386 2.2371482538649,-5.3124590929443 0.2570538014811,-0.5574554004762 -5.0135679739791,10.386874558243 -0.2195047024735,0.4557966770723 0.4011092485365,-0.9289122524017 0.6063471248939,-1.3913085535828 0.6412483098977,-1.4447179628752 1.2543229592013,-2.8751357451265 1.8026991160757,-4.35832264566 0.9111784962681,-3.0304090383221 1.5277141134063,-6.1395592535858 2.2710529732715,-9.2166993064336 0.7031387548111,-2.9365912624512 0.8979890414159,-5.948018186293 1.4821927885392,-8.9057917011139 0.6660674698627,-2.9016428322126 1.0303113506859,-5.8517555957968 1.2673038252132,-8.8152046413205 0.2238323087508,-3.2878620745608 0.2461558187302,-6.5846806497414 0.2623842275369,-9.8787117684795 0.0066903471,-3.4036762128594 -0.010112248586,-6.8073430774757 -0.021640868823,-10.2109919073134 -0.01184679827,-3.4056935649361 -0.017218774922,-6.8114037300551 -0.020740218131,-10.2171145002576 -0.00297061221,-3.3993377456842 -0.00307368515,-6.7986770639425 -0.00310658726,-10.1980158318496 0.2136412126872,-3.052313232594 -0.2239771776411,-6.0482546063722 -0.6731954631352,-9.0556812254589 -0.504234418714,-3.1923326993856 -0.74153457421,-6.4152232397025 -0.9007980301964,-9.6403198245732 -0.1202774191113,-3.3067686407483 -0.1918213008371,-6.6175362820807 -0.1285963788796,-9.9262518939621 -0.1820635506133,-3.0263167070583 -0.7335218028004,-6.0145273616843 -1.0951746128577,-9.0226744459439 -0.3784502892055,-3.285584146848 -0.4981999818706,-6.5920544512995 -0.5788363184225,-9.8958902671751 0.00572311025,-2.7069970230957 0.057289044458,-5.5682962797574 0.9719420750832,-8.1491205640873 0.067961636119,-0.1852704503434 0.1359232722383,-0.3705409006867 0.2038849083575,-0.55581135103 -3.9869128180984,-3.8265137514288 6.8361024696582,-15.1032061101359 10.823015287756,-11.276692358707 v 0 c 0.085929527667,0.2713389704411 0.1718590553338,0.5426779408823 0.2577885830009,0.8140169113234 0.3366703067993,2.552619142161 -0.8185305460611,5.0702682900152 -1.010527930846,7.619947670781 0.017675825575,3.2224263209664 0.042471239812,6.447147304894 0.2493901286252,9.6641520833737 0.2278864994718,3.0496110665522 0.596145546917,6.0827569360897 1.1845147111078,9.0859428222502 0.5239206800976,3.3167614900274 0.1416490776027,6.692729659954 0.2920571289865,10.0412773551343 0.057699121177,3.1215761925556 0.1386476844129,6.2476668970685 0.4936367601227,9.3523997447287 0.3945178417348,3.1491623710116 1.1983836357805,6.2648036597237 1.2176115419949,9.439113026169 -2.315526232e-4,3.3982485903206 -5.458233528e-4,6.7964973725525 8.18935079e-4,10.1947457861211 0.00179949408,3.4025650595663 0.00460968178,6.8051319213731 0.013991455283,10.2076860774487 0.00987331021,3.4102514677998 0.024471607703,6.820484986438 0.034909597775,10.2307343233017 0.00522250604,3.3700188360367 0.011337204224,6.740966866909 -0.097948425532,10.1096557300992 -0.1259002465456,3.1277365258121 -0.2988009604784,6.2632276826098 -0.8722770965139,9.3468247091954 -0.5931170994534,2.9648731485248 -1.2586599790549,5.8708943365963 -1.4290614640694,8.9052097083936 -0.5529431885725,3.1915898972566 -1.5352182594985,6.2700792229158 -1.9429821339587,9.487099801819 -1.8215499212862,7.6994523033625 -5.8532806203564,14.9611397798177 -9.5886965102626,21.771854992851 -1.363634868414,2.1118338201478 -3.0389942211649,3.9990188444746 -4.5368683402296,6.0142080374825 -1.9496687257139,1.8628899711656 -3.9031616484183,3.7462218126466 -6.1229709008022,5.2873245789667 -2.706846796669,1.9247585640888 -5.69229068249,3.4217944255006 -8.8918388457853,4.3429517358998 -3.3681070683755,0.8777100059342 -6.7980074276419,1.3974899723405 -10.2888551244715,1.0854981719743 -3.0424026478725,-0.3216338559422 -5.8547287000013,-1.1163070181726 -8.3418528673581,-2.9786161156419 -2.3341037140212,-1.4367716638595 -4.2485961603926,-3.3022800468184 -6.0829650519449,-5.3284249036775 -1.8780106900756,-1.7196538164885 -3.6433852069521,-3.557594292261 -5.6415810561097,-5.1445481448842 -0.4791420248067,-0.3315629549994 -0.9184220159187,-0.7230799268417 -1.420660642071,-1.0184905486285 -0.093906497714,-0.055234654276 -0.3580238048924,0.00232385304 -0.3122551088615,-0.096542338402 2.0675181235226,-4.4661015132581 10.8881204706192,-14.1026771446566 6.0052165316408,-13.4879064227362 2.1073875363669,1.5599841905049 4.7949072039788,2.1685696948731 7.2326538182317,3.0131109903806 2.6853660836381,0.7799642570375 5.4067127242506,1.5023717710097 8.1824483565224,1.8713695568323 2.8688835331124,0.4291155526771 5.722573665267,0.731919526797 8.6196700474253,0.3000008250409 2.4977261088594,-0.3076656856922 4.9897917894854,-0.7411271853267 7.1094334795703,-2.1977404113866 1.9547087334457,-1.3278578778441 3.4822286958151,-2.7683509004474 4.7704379455822,-4.7838015213434 1.3983844569273,-2.2147175165379 2.8483802725763,-4.3999313688471 4.300118584154,-6.5781404028186 3.404235516859,-4.7238889212848 9.0206771976842,-16.2165381144474 -2.0967093009843,6.265733900368 1.1652375967868,-2.3830086370034 2.4220962504165,-4.7691683732887 2.9642122728959,-7.3919501310621 0.7856617302594,-3.1978132637878 1.1053701527394,-6.4257830558911 1.5361585401124,-9.6915913775556 0.5169662765634,-3.3312619575952 0.6078736956988,-6.6378837323391 0.4954389085914,-10.0128986331736 0.00239900601,-3.4055344795946 0.00609548962,-6.8110698729145 0.016082086095,-10.216592008486 0.010104529707,-3.3938764317521 0.024884198654,-6.7877435615785 0.028596973708,-10.1816352488456 -0.00284969232,-3.2618966417821 -0.00679394591,-6.5251713232449 -0.1490645236482,-9.7846215523721 -0.1594184307032,-3.0170072925449 -0.404918365069,-6.0322163102472 -0.9843372243822,-9.0023219976571 -0.5985453795297,-3.292204180811 -0.7013666313335,-6.5667078371632 -0.793553829907,-9.9118396337276 -0.2532519146436,-3.3919071352155 -0.6545576439407,-6.7701909586552 -1.368727768082,-10.0996782647812 -0.667678065921,-3.3858717776053 -0.7380404173731,-6.8755934681185 -1.6695632330418,-10.2203025068728 -0.858515810447,-3.5087910413804 -1.5055035859899,-7.047519391461 -2.2999014939128,-10.5721986223826 -0.2093811300933,-0.9070911520932 -1.4226790195273,-7.8068424975556 -1.1943797213625,-8.3471907676781 2.0353459805021,-4.8173414833308 4.5628433456028,-9.4115944192761 6.8442650184041,-14.117391628914 5.0798783271125,1.1242222223469 5.3795939680616,1.5652420545387 6.5808342681131,6.5193475325999 0.8832092119467,3.4328644715067 1.3503972108888,6.9830178828872 1.2590770985694,10.5307814501243 0.031806224882,3.4461308581912 0.077764636508,6.8923530972087 0.063857205563,10.3386950606215 -0.039865890838,3.5355448728452 -0.1141450803776,7.0833445888264 -0.6608657071863,10.5841151204232 -1.431808003015,7.9873064752101 -5.1093136071074,15.4240889249586 -9.3923567690352,22.280999399142 -1.7000740345261,2.1691809586613 -3.6574748922192,4.0819190924857 -6.0207083408227,5.5313561072453 -2.4451783494053,1.5566052862782 -5.1571347210343,2.5130328293689 -8.0819413436643,2.5540396257486 -3.1939256329324,-0.1237078126561 -6.1977736731729,-0.7976603309128 -8.903043803012,-2.5956830204957 -2.6072101984745,-1.7273061026167 -5.2604050087389,-3.4863560893897 -7.4131744382853,-5.7725474702321 -2.000111137158,-2.676610616276 -3.438948256446,-5.5861316540295 -4.1922527984017,-8.8620813995084 -0.5818270016663,-3.2893012166472 -1.133267392671,-6.5212695845623 -0.8085076916983,-9.8832767158948 0.077991963184,-3.1786336720007 0.1818336554261,-6.3724248482639 0.7695663310617,-9.5058641695374 1.6143413953845,-7.308338567665 6.1042753229134,-13.8554880957846 8.8137207683088,-20.6475428332807 1.4983567085657,-2.4860371657695 2.9575617524712,-5.0323093103799 5.1695091050249,-6.9779965630945 2.6516003811889,-2.1868758982166 5.4444765754974,-3.8931370658597 8.9508406728022,-4.2851435369356 3.5690307280433,-0.3565056456948 7.0581074957611,-0.022788487671 10.3003581822011,1.6386168245497 2.863947039148,1.6629419909679 4.9267343063011,3.809765327082 6.4633865275121,6.7601625742286 1.2094032687934,2.5575611641492 2.6177537682355,5.0198818239553 3.3349686322113,7.7779810705583 1.0363514480581,2.7669637656684 1.5769964896134,5.7954531396836 2.1156777977802,8.6852331019334 0.4093380225697,3.1171581992777 1.2279363163773,6.2248898116528 1.122138133048,9.3730339804002 -0.1721170069669,3.0999314411637 -0.3996349549535,6.2293976917945 -1.3715447739363,9.2004345877176 -2.6940998324491,7.1294407607274 -5.2978564458308,14.6866777095828 -10.6531203926077,20.2393471908213 -2.5507727061708,1.9985972357714 -5.431607175891,3.2150378965224 -8.6761652921774,3.5649158132427 -3.3388586463903,0.2995235406773 -6.6452202430097,0.1880491078898 -9.8717958256378,-0.8354817073698 -3.0298493891753,-0.9965133543209 -5.8022758336191,-2.4216845705721 -8.3504985646246,-4.3558615634122 -2.3128340380601,-1.9580786932867 -4.2761680201174,-4.2904527324428 -5.4991771146609,-7.0886307397061 -1.5038015163592,-3.1515190433787 -2.0303268710118,-6.5335745534825 -2.4504498564222,-9.9792851482827 -0.482659159709,-3.5290268605158 -0.2080744495295,-7.11005729241 -0.015254610454,-10.6571279996942 0.3545557125046,-3.6758995102662 0.9265755393578,-7.3434456317582 2.3851813348201,-10.7668364666663 3.4660254573072,-7.3904503109129 6.066069721653,-16.0322809213336 12.4237371596507,-21.6331628297978 3.1362462072124,-2.1811209477784 6.6118411874594,-3.6066620749425 10.4760133771024,-3.7807336419155 4.2285878217965,0.0067850765 8.2346627576767,0.9912731367725 11.8319652883746,3.2939005780725 4.9924724874684,2.4808337727281 -2.0243850473016,16.6016783758321 -7.0168575347693,14.1208446031043 z"
         id="path6175"
         style="opacity:1;vector-effect:none;fill:#ff6b08;fill-opacity:1;stroke:none;stroke-width:7.5590553284;stroke-linecap:round;stroke-linejoin:round;stroke-miterlimit:4;stroke-dasharray:none;stroke-dashoffset:0;stroke-opacity:1;paint-order:stroke markers fill" />
      <path
         transform="scale(0.2645833333333333)"
         inkscape:connector-curvature="0"
         d="m 607.0657389939176,689.7638234362824 c -0.2697141469348,4.2483369486024 -0.6880940748542,8.4860035513409 -1.0114655322072,12.7307946437885 -0.3189267869607,4.1649792713714 -0.4918772945819,8.3385907725431 -0.5993616787654,12.5137328029714 -0.078951038442,3.506038790306 -0.081348449326,7.0131262753356 -0.079652572242,10.5198570102489 0.00552493212,3.3735907207849 0.015588516636,6.7471715113938 0.022374305394,10.1207598728616 -0.040623613906,3.4487515243983 0.1241783741668,6.9025937793134 -0.1084452586242,10.3452367173891 -0.3655438032642,3.1555533535794 -0.727457020568,6.3145338993456 -1.2026591234873,9.4559496988978 -1.0113840207162,6.5554926134057 9.7917607543502,-4.1934553473095 -11.5888656698354,10.3808639322488 -0.361975434236,0.2467441994092 0.2097272878085,-0.8508020319452 0.3022349001194,-1.2789973805855 0.272782144404,-1.262642527549 0.3136270270079,-1.6261931050244 0.5229784614354,-2.9203851045646 0.4904673675967,-3.3342329929843 0.6363874717539,-6.7042438816128 0.7417986613267,-10.0684884701046 0.08720458299,-3.4492589633492 0.081550305671,-6.8999195805625 0.076353050257,-10.3499982351176 -0.00916465216,-3.4114081324863 -0.020991800834,-6.8228073568587 -0.028965744126,-10.2342188551919 -0.00752601732,-3.3976786770434 -0.00969842599,-6.7953656361656 -0.011087089098,-10.1930513347529 0.00333704147,-3.4071055645337 -0.011441124829,-6.8142580884194 0.010430471401,-10.2213093436145 0.1174694401702,-2.740764104702 0.7673310711258,-5.4036038861232 0.9515333917459,-8.1345468531287 -0.4109635184759,-5.2338997880231 2.3318232134598,3.2811263249253 5.4285770917637,0.3946950719876 4.3658740330023,-4.0693564133503 6.1799389930616,-17.0954388108199 5.2510758255149,-10.8102263024632 -0.3270494407511,3.102491780283 -0.340144711879,6.2274390407399 -0.368331890615,9.343769626557 -0.018624517252,3.4583296137795 -0.00302517151,6.9167254797354 0.0077851207,10.3750551528228 -0.034514735945,3.3896495894535 0.5621878909009,6.7471393048735 0.9654555972578,10.1040348218163 0.4146092082833,3.4335850200238 0.5902494081713,6.8880586725195 0.7039901171495,10.3426017361509 0.1763772997707,3.2482674802005 -0.05466639758,6.5104821845699 0.1526776245087,9.7540029470715 0.073096943779,2.3902671279096 1.0332944312474,4.8035284708968 0.7245179864885,7.2024288168525 -5.1273660537704,-2.7785193407261 0.2497664725588,-0.2101553695801 -10.574288050729,10.2709915281739 -0.3287695298374,0.3183540631944 0.072992366089,-0.9125330661144 0.094775186946,-1.3696591122083 0.079023721412,-1.6583619520579 0.205986640233,-3.2652861476498 0.4145389821324,-4.9142313855689 0.33570746962,-3.2886955005207 0.8901864463578,-6.5237453186346 1.6121946214625,-9.7467922494759 0.7189045488574,-3.1077611827662 0.9959631890763,-6.2831061892317 1.572716391278,-9.4163677944266 0.4874895745231,-3.3895117657572 1.352360536208,-6.7011427785801 2.0569428066984,-10.0480019547158 0.6114312226325,-3.0401403436921 1.2937813329281,-6.0920943311182 2.1645822423677,-9.0699952132289 2.2469562537326,-7.0006288410987 4.4446328797219,-14.685404321247 9.5607292895309,-20.0591345753709 2.199650700108,-1.3093222518835 3.7555674726337,-3.2361183388191 5.5467473508397,-4.9731063598299 2.0865093320658,-1.8686111104147 4.148091388844,-3.8508901407125 6.6292245871874,-5.194739893715 2.8625632756731,-1.3186649901826 5.8592018591451,-1.5068180694749 8.9373423618623,-1.168134422211 2.9895368054406,0.2657943327315 5.6390290346833,1.6457685586128 8.1889888400016,3.1243535403418 2.5226615152487,1.4226004207238 4.8264302829657,3.1938637517792 7.0268607327107,5.0676111977782 2.1757756493163,1.7314072792956 3.9550051430218,3.8620827762786 5.5533370295369,6.120856110272 1.639989336403,2.3474438558824 2.8692348718015,4.8596682014683 3.7134708279724,7.5896091488471 0.854005728287,3.1817006950029 1.0076387001775,6.482941643088 1.1167867242848,9.7577756176536 0.076054263208,3.4200924922071 0.03574788203,6.8413650436273 0.00772427354,10.2617851366467 -0.031402126355,3.4131085243122 -0.050932857702,6.826300123097 -0.06388312154,10.2395231282934 -0.035400516063,3.3340436280279 0.03746443822,6.6695093816203 -0.055651095273,10.0026095177974 -0.3211231480018,6.4579347895351 -2.0136714625222,5.0098132930575 -11.1807694424533,12.1227420297254 -0.1814809655507,0.1408145934348 -0.060892073316,-1.2137373111734 0.05200985981,-2.7766112489418 0.4261936925667,-2.9471414685196 0.8678741375286,-5.8880139841583 1.156425038054,-8.8527328263075 0.3063091869271,-3.2397351679271 0.3246051197475,-6.4951044103551 0.4465729588297,-9.7441224213262 -0.1134421844907,-2.7997536335214 -0.5280047771638,-5.5707125931267 -1.2791323778928,-8.2667850521451 -0.7146997532651,-2.9580414464208 -1.7723291887754,-5.8033393605732 -2.8311310304026,-8.6499094145013 -1.057659680344,-2.9830363793344 -2.3583504021715,-5.8737778101856 -3.5385903507098,-8.8096439506471 -1.0657699252513,-3.0105335302925 -2.3302514244507,-5.9265068466501 -3.7804492372958,-8.7694130938015 -1.1197651914541,-1.4822349652558 -1.6236743956807,-4.2628081801562 -3.3941222898379,-5.1833950489224 -1.4082551221551,0.3046931928588 -2.3526151197834,1.4379205522143 -3.4933910902159,2.2468772242675 -2.1300625204642,1.9162838117874 -4.5183510483054,3.5082500769637 -6.5735564798282,5.505481541623 -2.0070571008498,1.7726719235782 -4.130780311771,3.4934854898742 -5.8797625956485,5.5305794693948 -1.9241953858276,1.6882794781131 -3.4648379225426,3.8363186873438 -4.8790560034405,5.9591974427844 -1.8118586479286,1.9181406184621 -3.0473091772608,4.2662479126732 -4.5048891243415,6.4588972005456 -1.5244870471572,2.4021395837989 -2.939347346574,4.8358849928892 -4.0729447690881,7.4654596864566 10.8028300231616,-23.0160891114492 4.263456061377,-9.6898423884338 2.5014733879023,-4.0508347436396 -0.8916381108533,3.1296069982817 -1.101914015608,6.3835963905359 -1.6888796451467,9.573362303608 -0.6267888088604,2.9756991611569 -0.9726549082286,5.9931653559318 -1.1946093016746,9.0224921617572 -0.3300691458844,0.7280967658074 0.4392957571348,3.3687969276532 -0.7227106708239,3.3965433546434 4.4815850445974,3.0675407818543 -4.1947305090644,15.743377483851 -8.676315553662,12.6758367019967 v 0 c -1.679744875131,-1.0389584937532 -1.8509868000054,-2.9703715379419 -2.0605832045811,-4.7841631895457 0.1145734322623,-3.1743145941998 0.2773647532001,-6.3546534972746 0.8096968757175,-9.4914352193915 0.5815771709847,-3.2409449230694 1.1770848194892,-6.4413628034596 1.4273215630845,-9.7322737379758 1.5034236826573,-8.1110392224618 5.6890487079918,-15.2051920045966 9.1987810007658,-22.6470626319725 1.4654696585903,-2.519212394084 3.0180200456989,-4.9787513444476 4.6493631457608,-7.3911918364911 1.4975607476321,-2.236733010138 3.110890915636,-4.3608363207194 4.7962042830801,-6.4560540833563 1.7484378540679,-2.0516063053058 3.4924930694923,-4.076853413172 5.5011756811407,-5.8870949075546 2.0915443875356,-1.8685648342855 4.0800112778943,-3.8497125823878 6.265832299792,-5.6143726952815 2.3736370612952,-1.841683024329 4.6916411739354,-3.7953134712191 7.3480439965637,-5.2264302518652 2.4853890480306,-1.2959559481094 5.1144647411569,-1.7673305327289 7.8308022261228,-0.8497216517776 3.0563619333431,1.3233505750652 4.8041039407196,3.6735062904745 6.3836218765514,6.5427135119659 1.4840319647556,2.9999777743219 3.1478945306574,5.910745901073 4.206511975415,9.1009199128922 1.0100777156772,3.02156846484 2.3100186108696,5.9429614170864 3.6233798554194,8.8427635487466 0.972085239492,2.9894627800408 2.2931805654811,5.8666921761805 2.9730990908821,8.9448739629946 0.8333165418119,2.9356422767604 1.8223127825778,5.7893849631441 2.0963472412493,8.857368588458 0.5223297564029,3.3773187267217 0.131415889108,6.815413076443 0.058842932773,10.2199126060763 -0.1863455576923,3.0758848268359 -0.4295953120214,6.1570763331349 -1.0536833952164,9.1806068450463 -0.00747636402,0.033549385555 -0.4805620447429,2.2291207801394 -0.5619763472404,2.3265615426751 -9.1394411447917,10.9385462625611 -10.7004184249713,17.880440539748 -11.1830043062074,10.6311362528735 -0.097264676726,-3.3072674267827 -0.014828083313,-6.6173221606672 -0.038069751934,-9.925619823769 0.00582800822,-3.4183176456863 0.014893045054,-6.8366461500848 0.042000950452,-10.254873067595 0.027851457594,-3.3984527418662 0.06842939487,-6.7967894392453 0.09050844408,-10.1952861308481 0.00583634107,-3.0585439777442 0.023537062142,-6.12595226493 -0.2893444900204,-9.1722699422029 -0.3280959005174,-2.4247172899097 -0.8725843442028,-4.7335985587184 -2.4345754019164,-6.6947904899431 -1.0251724971787,-2.0677922988973 -2.5800708699045,-3.8801642267756 -4.3713806369144,-5.3256900125367 -1.9247597252353,-1.7681704031486 -4.0682841653493,-3.3025877316562 -6.2933072640217,-4.6691609112021 -1.8694114416611,-1.2118875244754 -3.8142789896151,-2.185247792057 -6.0901585923501,-2.2697221147713 -2.1290255427389,-0.044347175255 -4.1697919934269,0.4882785049133 -5.812021296431,1.90654093213 -1.9313190058017,1.7108260475623 -3.9538294254428,3.3201505595067 -5.7025958853004,5.2260732366555 -1.576597450798,1.6837437685008 -3.7261332541265,2.886741484004 -4.7718306416713,5.0149917217608 -2.1013554627882,4.5407605566535 -5.307102399619,11.2607669795034 4.4538211356623,-9.7478522544103 0.9926295757479,-2.1364552976802 -2.8120258073048,5.1223542614524 -1.5062576590066,3.608025869125 -0.9800756905785,2.7933883571429 -1.6398225322355,5.6345696434109 -2.4679203380355,8.4830465590006 -0.5093585494252,3.4080847254212 -1.4000875198859,6.7128434985035 -2.0704325039792,10.0797595920916 -0.5731069525201,3.1773436701387 -1.2721127059859,6.3050472599069 -1.5437684436864,9.5305210108215 -0.5884186901436,3.1682879980616 -1.5871290774984,6.2397910529429 -1.7792842391051,9.472705737629 -0.8561594545066,5.7718832840751 -3.1128906909454,24.8422940684145 -11.8076470097518,18.862118389977 -1.1987258211342,-2.1559155286385 -0.7918164963467,-4.854555938247 -1.4350529283805,-7.1834892959 -0.5798603145478,-3.3298251548614 -0.6404295509841,-6.6322869042074 -0.5554783705743,-10.0137398567542 -0.043976939832,-3.3547057998111 -0.1141365151302,-6.7120499195568 -0.4114539006298,-10.0557089704004 -0.3352611270326,-3.4969582027344 -0.8442549233316,-6.9693433642649 -1.335863479561,-10.4470201905782 -0.013494506955,-3.4704753583269 -0.033007688813,-6.9409447473637 -0.034144764222,-10.4114536589741 0.00752513578,-3.2715025863247 0.020007990237,-6.5448375554065 0.1949647898405,-9.8125874343627 0.3471867109174,-5.7348251059998 0.4279978710412,-9.5135732142234 5.8412819181933,-15.6564840122109 1.2434028540767,-1.4109942785243 3.6491436962559,0.9378315530123 5.4142887000803,1.5868451330163 0.6501707667752,0.2390566531612 0.6466957006089,1.5004834764497 0.4751980442768,1.9885242591655 0.4814303280019,2.8499692055578 0.387299719785,5.5904596726192 -0.3337790347254,8.4025133544061 -0.5225396979259,3.2702886092319 -0.087541034353,6.620605393487 -0.2290210086331,9.9213640212107 2.321682543e-4,3.3954778572546 6.603551948e-4,6.7909570316551 0.00558539554,10.1864320121501 0.00572017066,3.4082430863166 0.014446299386,6.8164817714843 0.031195567386,10.2246909688239 0.016005349499,3.4735498782177 0.038631598971,6.9472017085585 0.016703397797,10.4207756923256 -0.037285584178,3.5044738415836 -0.09730613363,7.0129632676087 -0.4233359409167,10.5048236852159 -0.055488272889,0.5273324157105 -0.3579499743681,4.3962225519587 -0.6257531636837,4.6736182954477 -3.8611110246339,3.9994137713967 -8.1138147093767,7.6013134588342 -12.1707220640651,11.4019701882511 0.4303217175452,0.2710898740272 0.2646861206525,0.2870101612817 0.3618112488252,-0.343933247539 0.237720715468,-3.0842410236254 0.5017616014433,-6.1681405814096 1.0064587602001,-9.2227392948155 0.5160313147394,-3.3170454728297 0.6096254828268,-6.6089909886017 0.4919742850135,-9.9698997197657 -0.00326740227,-3.3712003307584 -0.00833392068,-6.7424033546569 -0.022930590445,-10.1135770251946 -0.015464016304,-3.5024206571403 -0.038601725859,-7.0048208119649 -0.042723618673,-10.5072803680788 0.00675629709,-4.1758632178324 0.041049239877,-8.3530105030796 0.2506233845171,-12.5245238521054 0.246218856101,-4.4875509114595 0.532674638096,-8.9881813110414 1.3165734121379,-13.419632862228 -3.8277800578901,-4.0530750763411 7.6360474266647,-14.8796720196392 11.463827484553,-10.8265969432987 z"
         id="path6177"
         style="opacity:1;vector-effect:none;fill:#ff6b08;fill-opacity:1;stroke:none;stroke-width:7.5590553284;stroke-linecap:round;stroke-linejoin:round;stroke-miterlimit:4;stroke-dasharray:none;stroke-dashoffset:0;stroke-opacity:1;paint-order:stroke markers fill" />
      <path
         transform="scale(0.2645833333333333)"
         inkscape:connector-curvature="0"
         d="m 721.6562880705007,700.5840075539731 c -0.1880279374759,-3.1703850753355 -0.5063945876202,-6.35960990537 -1.8904932314017,-9.2485519691455 -1.3239371143277,-2.1991096820623 -3.4423668646848,-2.2098002268382 -5.7184073835457,-1.7823587557041 -2.8336955000774,0.5003589092206 -5.2648079579484,2.0828102968375 -7.8545614348926,3.2363477567259 -2.2370076660653,1.4750211131743 -4.7849114105942,2.3715043190633 -6.8757145026075,4.0647035312903 -1.8787689571468,1.3624051915707 -3.7596293130659,2.8740984580336 -5.2558357644699,4.6633299377462 -1.8519247583015,2.2152021785486 -3.5728497297241,4.507706370027 -5.2951688185126,6.8258680961858 -1.6536198067481,2.4741420839325 -3.3142550836302,4.9262771414087 -4.7760104504573,7.5242333995475 -0.1683750883652,0.4100682470582 -0.336750176731,0.820136494117 -0.5051252650967,1.2302047411758 0.2553626038714,-0.9519010570999 -1.6238343714394,3.5306830899191 -1.2081983168722,2.6525061765376 9.9040245758031,-20.9257248894902 6.0264962660807,-13.6775936858728 4.331202436715,-8.8847785911006 -0.8984263914025,2.9931680022179 -1.3181223622031,6.1222575481404 -1.2503299400638,9.2424483881862 0.2277367816778,3.3754370569916 0.7176389581107,6.7169266630143 1.4040933250111,10.0265757645343 0.49376007946,2.8730713750185 1.4509908323655,5.6159467937093 3.181154887659,7.9714118203709 1.6827910572323,2.0616207486029 3.8553232083179,3.625379078909 6.189589320241,4.8691563969927 2.4047459983909,1.1501925512329 4.9361989803027,1.272727090025 7.5338415057084,1.0195148824014 2.8007369914693,-0.246023767392 5.4202398098279,-1.2906777796227 7.9673852844295,-2.4073422784626 2.1153621910231,-1.1493909653178 3.6916350024378,-2.9330812360498 5.5148917614936,-4.4447967590788 1.759168523252,-1.7542922954625 3.3051274542365,-3.5060233924004 4.2808014390757,-5.8255878401726 0.2607155831287,-0.3880862100499 0.544001097412,-0.7619277089382 0.7821467493851,-1.1642586301497 0.7125504153551,-1.2038055813484 1.576185781605,-3.473345401175 1.0818234622011,-2.4447003737124 -10.1401298460115,21.0990881273284 -6.1167624915207,13.8893197709782 -4.4766490465762,9.1461224296031 0.8320007569904,-2.9338678810027 0.9154115796543,-5.9942098284059 1.4076427990506,-8.9911929017582 0.5700223013529,-2.9804712112546 0.8948316150863,-5.9943406136679 1.1061786953545,-9.018754142496 0.2471437476314,-3.3632186013801 0.1085434937288,-6.7397259357931 0.3536018320118,-10.1007791088598 0.2869460143272,-2.8858905260431 0.7076118719998,-5.7545958643636 1.1507347669891,-8.6195770371297 -1.2960328555656,-5.4586852469947 -0.6571757568541,-1.8441312799762 11.3969163629869,-10.0769169051829 0.3842924883946,-0.2624666912179 0.1086338657295,0.9245345330229 0.1483342155816,1.3882083007278 0.1347272070719,1.5735244638496 0.163913379254,3.1528236998327 0.2003833774561,4.7307198038268 0.050568546986,3.4625984784078 0.022618991492,6.9257277370915 0.00375494368,10.3884671832127 0.034856297421,3.390260105882 -0.1601028739107,6.7869262031919 0.074631508917,10.1710579291789 0.3928890234213,3.4243983811516 0.8454414862139,6.8397445712458 1.154250766374,10.2733680200736 0.1070263833993,2.9541631721422 0.8493600644699,5.8309625677193 1.2502619301318,8.7504362080027 0.3904252612655,2.4134538690054 1.3690776443764,4.6525019904915 2.4037328502161,6.8491988910004 4.4698402327456,3.3697217264034 -5.0611721010613,16.0123390839824 -9.5310123338064,12.6426173575787 v 0 c -1.1169704439892,-2.434042822872 -2.5899920471767,-4.7458043154495 -3.2956749582585,-7.3535388218187 -0.9092964303273,-2.9680865230789 -1.0309592066844,-6.1327386782034 -1.8751653434648,-9.1311204634061 -0.2008839499144,-3.400674405718 -0.5144505351388,-6.7929495998553 -1.0455146762049,-10.159775247154 -0.500656410808,-3.5076364577385 -0.6086711073926,-6.9918824557301 -0.4754202316669,-10.5374856737891 0.016003135858,-3.4609098135702 0.038910409896,-6.9217798321731 0.07264808572,-10.3825664989931 0.096214576409,-10.6895836045304 -1.0893210699292,-4.1384404169252 11.4208167565782,-17.8292143612413 0.09765573254,-0.1068719287593 -0.2377626321123,-0.1652329742808 -0.356643948169,-0.2478494614212 -0.6137157895882,2.6148188494011 -0.4061762665732,5.3950759853916 -1.0101596119415,8.020258509099 -0.5073524473338,3.3032188001473 -0.6058550503534,6.5832267855266 -0.5843737595094,9.9288029375798 -0.1142165704897,3.1617782754303 -0.2742010889782,6.3287002789582 -0.7769891882743,9.4569216534999 -0.5232393403035,3.0773031591781 -1.0671562492876,6.1073435015729 -1.1795116180372,9.2384628141709 -1.1722660089797,7.6851035218107 -5.2092110220419,14.6053568775268 -9.4278419635657,21.0507421629275 -1.7269580360504,2.0712500481753 -3.6671110363825,3.960432465729 -5.7433778231358,5.6772535121672 -2.0823826484201,1.8215743600042 -4.4578224003021,3.3046260179301 -7.0359303781396,4.3211905508156 -3.0714008153413,1.1660603361989 -6.2874585437819,2.0124249551097 -9.5891177997745,2.0958025220801 -3.4140676153986,0.00332234783 -6.754053488659,-0.531675864001 -9.8588786396991,-2.0282323725952 -2.8592017449495,-1.484514484795 -5.6224301528454,-3.2755517114101 -7.8194488388315,-5.6560813116373 -2.5682973077154,-2.6838152447458 -4.1660618941944,-5.7987640877255 -5.1839114194105,-9.3711627525438 -0.7295429413894,-3.4715858258387 -1.5497399350877,-6.9074708505137 -1.8433884101415,-10.454816848198 -0.4574856691618,-3.5039988354507 -0.509980634066,-6.9629230016662 0.1610268877748,-10.4585130031321 1.463304967407,-7.7629488918218 5.4599248088299,-14.8108811922759 9.4816180573498,-21.5443649843146 1.6982202978935,-2.5761441798645 3.3375283823315,-5.1942172745944 5.2927546870676,-7.5917157688974 1.8517526348959,-2.3236383798777 3.7316668074135,-4.6399952759715 5.9707716230787,-6.6080086585106 1.9882862992853,-1.6240322603345 3.9160486229374,-3.3192247697235 6.1483548548205,-4.6170654021945 2.5169974553373,-1.3999826352333 5.0259674132645,-2.8233058286653 7.6239137990798,-4.0680198032261 2.9984761295119,-1.4205975896102 6.0844183206775,-2.6454388664275 9.4430451947183,-2.8265917721377 3.9839438144259,-0.095768702985 7.7413634643613,0.8425287528952 10.5125274251033,3.9078758252919 2.5556518981551,3.3724352450567 3.6893399124519,7.0273961868425 3.7434840941199,11.2678982113493 3.9753588437577,3.9065742556634 -7.0741017457948,15.150587039946 -11.0494605895525,11.2440127842832 z"
         id="path6179"
         style="opacity:1;vector-effect:none;fill:#ff6b08;fill-opacity:1;stroke:none;stroke-width:7.5590553284;stroke-linecap:round;stroke-linejoin:round;stroke-miterlimit:4;stroke-dasharray:none;stroke-dashoffset:0;stroke-opacity:1;paint-order:stroke markers fill" />
      <path
         transform="scale(0.2645833333333333)"
         inkscape:connector-curvature="0"
         d="m 794.443524395848,692.5305299935256 c -3.5367333642937,-1.033742068672 -7.0228430781536,-2.1829021268863 -10.7293040761881,-2.3001443277791 -2.9424507516867,-0.016418947118 -5.7844029975438,0.8091245620266 -8.0821565569313,2.662055501549 -1.6563939197722,1.9120481675787 -2.9689775828966,3.9468921602949 -3.80181783485,6.3493594845473 0.2663703540567,-1.0080903279978 -1.7005741902877,3.376544142214 -1.2956778841326,2.5224120557682 1.83966864587,-3.8807961321902 7.2597936048578,-15.5691488664378 5.4951259862967,-11.6536785827782 -2.1470632242798,4.7639352382181 -4.4315718544016,9.4647265025409 -6.6424521150241,14.1993825530034 -0.1905928342743,0.4081593797923 -0.7522706160889,1.6373061175112 -0.5619472257315,1.2290210273204 1.8178124436588,-3.8996032811067 3.6296188056773,-7.8020035021027 5.444428208516,-11.7030052531543 -2.1938820787808,4.7138721523512 -4.3877641575616,9.4277443047023 -6.5816462363417,14.1416164570535 -0.1864406739435,0.3917072632513 -0.7425355473272,1.5683488349316 -0.5593220218292,1.1751217897544 1.8205067795809,-3.9073125180884 3.650116437876,-7.8103789660969 5.4712184952821,-11.7174140753613 0.1785095226556,-0.3829785209008 -0.3748506900868,0.757767273513 -0.5434294330734,1.1452197280969 -0.5527471980873,1.270404885389 -0.4826500273723,1.2207233854408 -0.8631680022554,2.6145847145948 -1.0087966102769,2.9553026312085 -1.6939519783017,5.9879425603938 -2.15459788054,9.0719672710835 -0.6037872452149,3.189514625803 -0.2012476725449,6.383132427688 0.1177532247664,9.5743422826479 0.5426305957566,2.8021816443106 1.179213639194,5.589745850202 2.1324505085282,8.2817166788873 0.9261283250401,2.4408947459326 2.1100482249924,4.7286613643457 3.8432344366198,6.6867095115234 1.9076568894925,1.7786942603245 4.1937281057667,3.023348357945 6.4657896738601,4.2630083065869 2.3280248626056,1.2339846219459 4.9259116785275,1.5555132622743 7.5096844443391,1.7809859710809 2.8540130932457,0.3138600737468 5.6542144667819,-0.2144976838796 8.5076081484201,-0.203742853957 9.0632186045509,-1.291064103228 4.3348065847443,-0.063977924203 0.075888770416,15.5695507554914 -2.517095476555,1.2829357515087 -4.9547510811376,1.9146780321731 -7.7743658862896,2.0688737219966 -3.0868645937005,0.2457837293665 -6.1062333147112,-0.2434728558907 -9.1368827223722,-0.7493120603506 -3.1558385492325,-0.6715771615594 -5.9739449699629,-2.1066869846279 -8.6732437829869,-3.8185338341493 -2.4162449641859,-1.6556704712108 -4.2565693651479,-3.9539648706391 -5.9443811689505,-6.3130553765294 -1.6355759478782,-2.6097195264007 -2.7794811869155,-5.5104445543858 -3.8193966815936,-8.4014599162123 -1.0717459585751,-3.1198000490211 -1.4300442070087,-6.3992822020434 -1.6645580855187,-9.6697732148891 -0.192167959426,-3.3970556165424 -0.1746182965528,-6.8011265643644 -0.161563903275,-10.2021692416356 -0.178147379654,-3.2415164447573 0.3599605339,-6.4258519614751 0.7974820342649,-9.6207882816835 1.4739112603892,-7.5928529486986 5.9908939008542,-14.1234803131166 9.1221716027254,-21.1101565361571 1.6433332230202,-2.183674643679 3.6121597329059,-4.2126191704423 5.7648132441,-5.9070044564792 2.6704285105311,-1.7400891553491 5.8122472888805,-2.2544521328493 8.9153707021719,-2.6253738979824 2.9402867877849,-0.250621200448 5.5952136183727,1.0375289715373 8.4096927912135,1.5624778752043 2.5494890236878,0.5314957093982 4.6089931342924,1.8442841056068 6.5267405802888,3.5481173406231 1.7082368524299,1.7088651447807 2.7982869990875,3.8893867046064 3.3551693243804,6.2250380194713 -0.4068318301649,0.5347321693531 -3.438957316074,-2.0555579976453 -3.7555088833785,-1.5499577220181 -10.1106090201805,16.1487960741899 -5.9403175387024,15.9912745892851 -5.1747595588013,10.3670845087116 0.385172150006,-2.4730510374834 -0.1937756198791,-4.9719081805964 -0.9016055692667,-7.3332438268181 -0.4199617701876,-1.5883046455324 -0.8348366614463,-3.3003592073342 -2.662176576329,-3.4908603638351 -2.116473528552,0.1745281488045 -4.3090217267929,0.8401151751349 -6.3054942563425,1.5944083185019 -2.3147573970384,1.3812889216073 -4.8229188689908,2.3772201027473 -6.9230495372831,4.0918864938874 -1.9594854693183,1.284791796548 -3.5328726158872,3.2702158116433 -4.4092530428172,5.4432532094754 -1.4898872118837,2.0236642332251 -2.6082223768651,4.2042440516376 -3.8012339523075,6.407487443219 1.3741249248619,-3.0336901591138 -3.9146898184806,7.9520164717917 -2.5052953610643,4.9901481177003 5.189860004377,-10.9065861783738 7.1010557580292,-15.8029578570524 4.9294238029355,-10.3285920151264 -1.3825629168308,2.414292036216 -2.0723309345624,5.0622173624525 -2.8858328410188,7.6892935231567 -0.9870820522456,2.66034042231 -1.5297658938781,5.4278065959229 -1.8765756102747,8.2341691448753 -0.5047294791626,3.1880730222226 -0.040380874469,6.3649639976977 0.3487096979534,9.5341981445491 0.2714769999727,2.9873777832663 1.1695599504063,5.8657195246543 1.6985292168465,8.8113323384988 0.458769339657,2.4683932841463 1.4580027382482,4.6876251308929 2.8892505580619,6.7320082162446 1.3144808815348,1.738239893975 2.9840341983444,3.2915878616293 4.986918946778,4.1880667462766 2.0068615480416,0.5538361891613 3.8727134436945,-0.1558279968484 5.7922708191667,-0.67171694893 2.4305429992104,-0.8362867090832 5.0035664342121,-1.4885230025459 7.3623640870517,-2.5309664414784 2.278969109464,-0.9596450730494 4.382606069909,-2.2877670854871 6.5450906358045,-3.4856736754962 1.8379168638637,-1.5390594733101 3.97974104208,-2.1751307759008 5.0473246686936,-4.4461846886494 0.1830209959379,1.1102342885631 2.2855324169694,-4.3370609901417 1.63693431437,-3.0080354529633 -11.5150264954784,23.5951419105961 -6.4491105217562,14.5472610968942 -4.9017137279707,10.2969270454972 0.5921997114738,-0.9610923966303 2.7349717509564,0.4516416157062 2.9283554882933,1.1760517541938 0.055238868466,0.2069232754847 -0.2290731677442,0.3619389201594 -0.3436097516168,0.5429083802396 -0.8709440701487,2.2195722011572 -2.4543120369369,3.9933963891294 -3.4276232420502,6.1710927000589 -1.7517365679173,5.3725478822793 -0.6943494076677,1.9525298884363 4.9928239218998,-10.367006503502 0.3473927935919,-0.7525211409859 -0.6472469259875,1.5332737267654 -0.8480819072729,2.3374099906922 3.7491246132098,4.193167532854 -8.1109441753197,14.79729328291 -11.8600687885295,10.6041257500559 v 0 c 0.1725693606094,-0.9212956391759 -0.053131417055,-1.9279867694268 0.3011128809516,-2.795786755781 5.0248405132038,-12.3094614460492 3.813048063929,-10.2571863460304 7.3023359203636,-15.7706756808102 1.5163721747176,-2.090164676265 2.9063460968716,-4.4558369583641 5.2104052008583,-5.757746212008 2.7364537819801,-1.2550808429927 6.0567693845903,0.3154602753765 7.1773680489839,3.0294319191711 0.48590773309,7.3302168369389 -4.0675852788628,14.1954122143834 -8.9641729808593,19.408503710119 -2.0990016142619,1.6065541681088 -4.4139776819342,2.9325086017604 -6.6641498878894,4.3096419935672 -2.3296283616563,1.3208408977254 -4.7494843326991,2.5125740908865 -7.279826425044,3.3983348306607 -2.642146122589,0.8378911699896 -5.2335324449666,1.8630577990024 -7.969677906657,2.3640536803148 -2.8948280575271,0.558229233598 -5.7730383898942,0.6816652699474 -8.5965086784561,-0.3446039574459 -2.8409229527306,-1.1716207334648 -5.2401894105412,-3.1068112600245 -7.304904817178,-5.3719267947757 -1.7744865846521,-2.3991553196203 -3.5478531364814,-4.8298592908408 -4.3279439968859,-7.7660478980122 -0.9896119589009,-2.9784968761131 -1.2398066789792,-6.1705523949092 -2.2756194701028,-9.1517086439768 -0.3931836031038,-3.4174140440216 -1.1061767852709,-6.842766239723 -1.0174913080616,-10.2838703413006 0.1762293132357,-3.04714432118 0.4086350524806,-6.1136645647665 1.2520258517493,-9.0623636072545 0.8645442782416,-2.7158740987469 1.4012777832703,-5.5071471302423 2.4999485322752,-8.1461078276568 3.5331748058038,-6.7203703848735 6.0352236323223,-13.9586379354298 9.9433583861613,-20.4777238747043 1.266212418048,-2.1916127388612 2.8103390116817,-4.2055650702844 4.1225955622474,-6.3701299898693 1.882091641818,-2.0848477499874 3.8748041863661,-3.97789540571 6.342293360627,-5.3696080994248 2.6755236530405,-1.5041958341618 5.393822030392,-3.0108818680899 8.35547762913,-3.8748390139683 2.8410812949769,-0.6489065403339 5.730162036223,-1.4074147050177 8.6406860809044,-0.6957498686335 3.1861524950206,0.9601509699121 5.7429538753421,2.659421660414 7.0098761779564,5.8771984338794 0.8552379741286,2.8475476907366 1.8892704682993,5.6031634543336 2.1366824827878,8.5993367540602 -0.2312360450205,7.3130752780338 -3.0435202434194,20.712812966569 -11.4750985160306,15.080344696388 -1.4371184583324,-1.6329811778058 -1.7789104732902,-3.5454618058951 -2.5082240452443,-5.5138875800676 -1.073228931779,-1.3491976053809 -2.2841077196514,-2.0347757852247 -4.0143199668022,-2.2736899820453 -2.2907071750075,-0.4753473065931 -4.5320234507566,-1.3546938586278 -6.9041339709563,-0.8891333206591 -2.3272697204752,0.4284922378331 -4.4890963695526,1.0699575348099 -6.0309236442288,2.9942556703561 -1.6085568669795,1.8630600772598 -3.2728562305883,3.6457716322482 -4.0716658147886,6.0398306209654 -2.4303694545448,4.4478721242579 -5.7022436200849,12.0099777469601 4.0582480952097,-9.2332026367944 1.5155680817253,-3.2985516593906 -3.5215415936269,6.9946602976755 -1.628955943979,3.7706770297352 -1.0156250748181,2.726149945158 -1.2889105476678,5.8373905484608 -1.4561499444127,8.7186846968209 -0.029000833117,3.3503820365686 -0.070805556984,6.7010286330614 -0.039546467901,10.051540292445 0.053194467379,2.9882935650661 0.1135918784224,5.9972186311652 0.7054197354098,8.93765011602 0.6410260970796,2.6540760749357 1.7734588026227,5.1044137714431 2.7473411386002,7.642252189631 1.0793596824852,1.95625833162 2.3946660967066,3.8430026340552 4.1359232899508,5.2603927322783 2.1716574852468,1.3733246490606 4.4164446038336,2.5261528856055 6.9938334683876,2.9314205567804 2.5865629431936,0.4563923924517 5.1870806948099,0.8525560471445 7.820519883589,0.5400497493872 1.9603872272578,-0.3498571723468 3.8191067607146,-1.3435564961272 5.4291153861351,-2.4866289917254 -2.2615944600374,12.8886100412933 1.7266761393479,14.8041809717996 -6.6888434491532,15.3567804145333 -3.0628092567956,0.1931307114245 -6.1182060361881,0.6696442277263 -9.1839522306858,0.1141220187059 -3.1664731348791,-0.4276270052276 -6.3077637996205,-1.0730260062883 -9.1652708802637,-2.5711381188844 -2.7124238028556,-1.4431534333137 -5.3957901680573,-2.9312093074849 -7.7568844451729,-4.9213073491578 -2.2959954315054,-2.1882996590406 -4.1557419841472,-4.7622861225432 -5.3465076435355,-7.7183660210524 -1.3341290646166,-2.8386428730721 -2.2025638711857,-5.7854829555291 -2.9366382466719,-8.8303895632909 -0.9465379567864,-3.3949391601606 -1.2825327533645,-7.0689779744702 -1.2023162722115,-10.5796690373566 0.2637258188598,-3.3082637197059 0.6350406835945,-6.6258565740737 1.6360770517573,-9.8057814376973 0.4613212220048,-1.348056274638 0.5530434256751,-2.9186659092296 1.126311877029,-4.2107177867543 2.1042642902596,-4.7426622215442 4.3353250898001,-9.4280604811202 6.5160356102583,-14.1360616256489 0.1844585382661,-0.3982330534601 0.7619277878781,-1.5814210629488 0.5793284922629,-1.1823320823341 -1.796540407988,3.9265183233136 -3.6142164054379,7.8433318237896 -5.4213246081567,11.7649977356847 2.1698308797056,-4.7413867459494 4.3282072365165,-9.4880322503897 6.5094926391174,-14.2241602378487 0.1928343429697,-0.4186926330658 0.8051553306726,-1.6586258552645 0.6126311900184,-1.2397904937229 -1.7966909312614,3.9086926616866 -7.2694234430047,15.5963604568617 -5.4253349557931,11.7098048767451 2.2502138279226,-4.7424953683161 4.3977299700408,-9.5332307126099 6.6437527878347,-14.2777123588828 0.4108683165117,-0.8679151303727 1.01816487926,-1.634325217047 1.3689590683523,-2.5347102581061 1.7415171348455,-2.4537793224187 3.7455182184706,-4.7557329919882 6.4543565712703,-6.1676831743166 3.4697787229179,-1.5776633259852 7.0973503477976,-2.5528894450506 10.9526596477555,-2.2694836400585 4.2031779905329,0.3820048305988 8.3324091745328,1.3190910707734 12.0492740478323,3.4008943404767 5.0660565915704,2.3044199199818 -1.4518272169116,16.6333917990786 -6.5178838084814,14.3289718790968 z"
         id="path6181"
         style="opacity:1;vector-effect:none;fill:#ff6b08;fill-opacity:1;stroke:none;stroke-width:7.5590553284;stroke-linecap:round;stroke-linejoin:round;stroke-miterlimit:4;stroke-dasharray:none;stroke-dashoffset:0;stroke-opacity:1;paint-order:stroke markers fill" />
    </g>
    <g
       id="g6198"
       transform="translate(25.31079943773161)">
      <path
         transform="scale(0.2645833333333333)"
         inkscape:connector-curvature="0"
         d="m 413.9336941130191,298.9257244097278 c 4.2554298295153,-1.727880118513 8.5770990237444,-3.3164395941363 12.8787412979262,-4.9378157230085 4.1354885288904,-1.7128533958512 8.2747144877795,-3.4494417171861 12.5202426825359,-4.874149005557 3.5332233795287,-1.2342132884976 6.9304109034097,-2.7888980024241 10.3696614434965,-4.2523820795205 3.6895435492937,-1.4438240512175 4.883422229436,-2.2133491972887 8.4501171342934,-0.2433005718576 2.5788158607546,2.0767801364311 1.782083869796,4.213942352096 1.0269010836451,6.9367465560599 -0.9390454175744,3.639258613393 -1.1123488964444,7.4136205054408 -1.2666850278098,11.1512438885739 -0.084933445715,6.4364262281247 -0.5209160264316,12.8602700204619 -0.8447686641307,19.2877095866232 -0.3429019542599,8.9248137419852 -0.9164027223014,17.8398026167395 -1.5115798029535,26.7508711820078 -0.8716232275764,9.7246324773692 -1.4433726220786,19.4692869458582 -2.0788855633473,29.2106682728138 -0.6990422208345,9.0119155888442 -1.3371304654123,18.0273216799955 -1.8116930723946,27.0540066474186 -0.3593596760324,6.9832118031534 -0.5490343998885,13.9724611238265 -0.6872720999683,20.9629147864523 -0.1614022000092,4.7107683861103 -0.00712697373,9.4326378610961 -0.320383403272,14.1368102944157 -0.3481215244223,3.480151392237 -0.8293434159792,6.9438934941845 -1.1534673932301,10.4267076317495 -0.1482530701628,1.6506666436018 -0.2258647661291,3.3061563040419 -0.3054046805101,4.9611211201729 3.9133485295488,4.1144199994858 -7.7239885995949,15.1830411290471 -11.6373371291437,11.0686211295612 v 0 c 0.303478507253,-1.5929119109874 0.367142874943,-3.1645393362478 0.3910779837083,-4.7875049134502 0.1962788831608,-3.4785106573205 0.5091594990652,-6.9475712372872 0.9974301099924,-10.3983994758383 0.5441843007131,-4.4858033684902 0.3586409826275,-8.9608339392295 0.2608517670462,-13.4749454614574 -0.057375485386,-6.8894739794961 -0.060934311427,-13.7809378406294 0.1309772687715,-20.6685414214971 0.2864582484429,-8.9897160351383 0.7626480068402,-17.9708721743017 1.4956189988153,-26.9361480577764 0.7004913089023,-9.7403098177096 1.0357259518541,-19.5075932409014 2.0283316096512,-29.2275303255897 0.7936949255398,-8.98859432139 1.3669655741511,-18.0024692968912 1.949502089746,-27.0057921947476 0.3756777251907,-6.5930890512862 1.0392719773053,-13.1642444706693 1.4055021852987,-19.7529067935769 0.167033567596,-4.0809564898434 0.3390256220866,-8.1747908911572 1.0048806191636,-12.2114961502525 0.4204915927002,-2.0031506119423 0.4092553688317,-4.7429359585905 3.1069402612819,-4.0941070122273 0.4411155836838,0.1524740077673 1.5912650039036,0.3121178001731 1.250116015315,0.6306278452239 -1.2272964878408,1.1458520256793 -3.5047405669682,1.1627738897141 -4.8292876691517,2.158190667101 -3.5054803966407,1.5412777895983 -7.0718485636925,2.9351171180388 -10.6574759348311,4.2784635254007 -4.188680410671,1.6737729381558 -8.3306744016794,3.4611095513009 -12.5180139725409,5.1376640996684 -4.3193759965891,1.6460699185877 -8.6975542299436,3.2977612983013 -13.2716862080901,4.0691613264235 -5.429345956611,-1.2823551432361 -1.8022978859241,-16.6388645165457 3.6270480706867,-15.3565093733093 z"
         id="path6183"
         style="opacity:1;vector-effect:none;fill:#ff6b08;fill-opacity:1;stroke:none;stroke-width:7.5590553284;stroke-linecap:round;stroke-linejoin:round;stroke-miterlimit:4;stroke-dasharray:none;stroke-dashoffset:0;stroke-opacity:1;paint-order:stroke markers fill" />
      <path
         transform="scale(0.2645833333333333)"
         inkscape:connector-curvature="0"
         d="m 488.9657855519683,282.1310331159482 c 4.6706521000967,-0.991956371977 9.4570732325871,-1.2459753963126 14.211088596878,-1.5347875448199 5.0408998878515,-0.2334236335587 10.0885968451641,-0.3009568817686 15.1344155910577,-0.3028737267216 4.0230547447236,0.015245003268 8.0457953981769,0.071413385749 12.0686443990644,0.1116684249153 3.441019522865,0.034400790801 6.8821921945619,0.047292395463 10.323357569103,0.055181175151 3.6599339513662,-0.2852379574854 6.8150188409159,0.3201404163683 9.8298919808714,2.429495850113 2.7305441972081,2.3258482142121 3.5331815586156,5.5687990500312 3.9738820230768,8.9711339416042 0.508543182732,4.6720685045304 0.2844394061608,9.3622328190147 -0.057765523399,14.0345875447406 -0.5840700835397,6.6780346089472 -0.8975903714424,13.3745703219185 -1.0891955012913,20.0740622575383 -0.3309321330672,8.311378804395 -0.8050964291265,16.6174114671849 -1.4635253123787,24.9092807491276 -0.7092952446119,8.9806843999693 -1.3661959600071,17.9637160523915 -2.1656771258147,26.9370587667846 -0.7671664269802,7.8673205495058 -1.1203398213446,15.7651964682952 -1.803319824936,23.6388133417579 -0.5674101643326,5.6744108311503 -1.125688590138,11.3498357182749 -1.5541564847713,17.0366342837735 -0.2895250403103,3.8448391741915 -0.4059966420766,7.6988837255636 -0.4630676357186,11.5531789210912 0.015825561373,2.790736434093 -0.5724832184726,5.4895385438373 -0.4823860483915,8.2818272021117 0.014151236365,0.4290165971389 0.028302472731,0.8580331942779 0.042453709096,1.2870497914167 3.6340705765712,4.2170463296127 -8.2935376484165,14.4957501216293 -11.927608224988,10.2787037920166 v 0 c 0.1811306602909,-0.1602073500412 0.3622613205816,-0.3204147000824 0.5433919808723,-0.4806220501237 0.5085333318206,-2.5750946319207 -0.427916899306,-5.2998280249706 0.4867983641435,-7.8646894012922 -0.018269349858,-3.8370868304737 -0.031475261267,-7.675003173816 0.079912164206,-11.5110009175065 0.1852804609923,-5.5932130083693 0.5281819145507,-11.1783009126167 1.0390218201819,-16.7517588843652 0.6550664353997,-7.764442141065 0.8732657697393,-15.5486413751162 1.4725787525092,-23.3178959569921 0.7335951317075,-8.9775677053541 1.509512527863,-17.9489985906298 2.1609519952741,-26.9329635547734 0.7605506971712,-8.308301676283 1.345704289526,-16.6264171592897 1.9094386832785,-24.9505678727038 0.2258633805243,-6.868191615832 0.4958049382725,-13.7385411470227 1.1912710828434,-20.5785746032195 0.4740297804525,-4.6423250733795 1.1206495807254,-9.2654978853093 1.0520507636101,-13.9440359028832 -0.00702276825,-2.2395808300727 0.139646992494,-4.6290989715566 -0.6241872870067,-6.7634844046476 -1.6797156801134,-1.7692581362449 -4.8585490583332,-0.6912479842393 -7.0065747263693,-0.9595193469153 -3.449300492946,-0.00238041871 -6.8986216646641,-0.00515910887 -10.3479004797124,0.00987627931 -4.0275734007865,0.021881105543 -8.0551032268445,0.060997315604 -12.0818580065638,0.1485973784842 -4.9925248231322,0.1088625736445 -9.984356363813,0.233747625694 -14.96928942753,0.5471113365608 -4.5543899826283,0.2447342470678 -9.1012643867233,0.6494324919413 -13.660014572453,0.7932513995259 -5.3756867681099,-1.4769256979291 -1.1983100628525,-16.6816639669903 4.1773767052582,-15.2047382690591 z"
         id="path6185"
         style="opacity:1;vector-effect:none;fill:#ff6b08;fill-opacity:1;stroke:none;stroke-width:7.5590553284;stroke-linecap:round;stroke-linejoin:round;stroke-miterlimit:4;stroke-dasharray:none;stroke-dashoffset:0;stroke-opacity:1;paint-order:stroke markers fill" />
      <path
         transform="scale(0.2645833333333333)"
         inkscape:connector-curvature="0"
         d="m 522.1776961451273,378.6002799799512 c 3.921102629335,-1.9094348967619 8.188851929643,-2.902458916075 12.4479285758763,-3.7174822490774 4.1134748718182,-0.7381282897028 8.2889351830576,-0.962312233961 12.4586653012374,-1.0729478858121 3.4759982681521,-0.163744204568 6.9706571606862,0.1925670271132 10.4343653148031,-0.1518778844783 3.2587196961805,-0.41537105193 6.514190248202,-0.8571173604215 9.7942281840608,-1.0629256625309 1.7689196160802,0.1614267746628 0.9508978883457,0.01691223348 2.4621138761821,0.3852158586264 5.2390728115676,1.8408699499019 0.032306312135,16.6592055986592 -5.2067664994322,14.8183356487573 v 0 c -0.9461498163497,0.1153669381038 -0.4115157491815,0.047831401221 -1.6033699916769,0.2067761636067 -3.3232231551648,0.4654658427621 -6.6656212121619,0.824764391524 -10.006878155574,1.1291985942965 -3.5175535561276,0.1149368182052 -7.0396015197747,0.00856557585 -10.5558431099549,0.198176703359 -3.9387533107188,0.2261836580113 -7.873087999561,0.6090967570288 -11.7296062905579,1.4770073040344 -3.8497118963904,0.8869847690767 -7.6376862118478,1.9824386513553 -11.374459985794,3.2666345839594 -5.4716315790281,-1.0181003977922 -2.592008798198,-16.4942115725332 2.8796227808302,-15.476111174741 z"
         id="path6187"
         style="opacity:1;vector-effect:none;fill:#ff6b08;fill-opacity:1;stroke:none;stroke-width:7.5590553284;stroke-linecap:round;stroke-linejoin:round;stroke-miterlimit:4;stroke-dasharray:none;stroke-dashoffset:0;stroke-opacity:1;paint-order:stroke markers fill" />
      <path
         transform="scale(0.2645833333333333)"
         inkscape:connector-curvature="0"
         d="m 614.4181804847543,298.9257244097278 c 4.3471785012044,-1.3712595951218 8.6352279831659,-2.9596672737785 12.7555464003526,-4.9121611879262 4.072950475246,-2.0680989437128 8.3304218279694,-3.7680566680728 12.3445508689962,-5.9494301150443 3.4242855675013,-1.5807303358695 6.5533064813978,-3.6996608559753 9.9396250585322,-5.3443982235324 3.3365269960327,-1.3469338014376 5.8573558700954,-0.4574437028347 8.1037711379872,2.2889898967589 0.6787871607841,2.5015066968777 -0.1247056021258,5.2292430057528 -0.4091946213207,7.7722578591027 -0.4349478663216,4.1133058965154 -0.5326564554573,8.2526238925868 -0.5975053183389,12.3853235447275 -0.035987840823,5.4405177381497 -0.023447036149,10.8810706831959 0.00741428242,16.32158152907 0.037494401539,6.1208911646704 0.05403709351,12.2421574727191 0.030706238054,18.3631447754606 0.00398624706,5.752930696969 1.901139059e-4,11.5058294344047 -0.049053208459,17.2585792387857 -0.00205643709,4.7464170168521 -0.057335858692,9.4925856502694 -0.1004301783483,14.2387500991283 -0.034603070219,3.6725752134905 -0.051528799362,7.3452733681852 -0.061567179506,11.0179867943392 -0.069556259369,3.2210354483163 0.1288288549079,6.4528130462153 -0.1311125074377,9.6667414894645 3.7822445686044,4.1239239733399 -7.8819738579813,14.8217271036043 -11.6642184265854,10.6978031302644 v 0 c 0.9062338929484,-2.8598717894414 0.3434054965925,-5.8982970547838 0.4816073823516,-8.8518181996399 -0.00976652057,-3.6312669097539 -0.026195735523,-7.2625208582635 -0.060678420984,-10.8936488565738 -0.042911295959,-4.6771744685761 -0.098150896117,-9.3543444519968 -0.1012997020956,-14.0317705721467 -0.05211895388,-5.7116488709794 -0.058801558807,-11.4234695357857 -0.066225576275,-17.1353192567344 -0.036268589808,-6.1272808040394 -0.037033953393,-12.2549251269752 -0.014356872708,-18.3822488794747 0.023443928625,-5.5297075501915 0.019236741143,-11.0599398870411 0.1268681122078,-16.5888239908477 0.085710385249,-4.3029949600091 0.1681571402048,-8.6097062333763 0.5318849427167,-12.9003500243391 0.2229164092646,-2.3679633358147 0.089694175027,-5.5061456681849 1.560506558282,-7.4558886139223 3.4499722015041,0.671738346123 2.1748574229164,0.8224836877678 -0.1215982666388,2.1510859063321 -3.2932464355457,1.9498492711303 -6.619990168439,3.8358522406673 -10.0437018821451,5.5510202118687 -4.2114120588329,2.0798307532639 -8.4155999689086,4.1806816029266 -12.6937057860807,6.1198975085272 -4.3148797610704,1.7595478588107 -8.7408598673641,3.4038556202309 -13.3948811056637,3.9692053096612 -5.4293459566111,-1.2823551432361 -1.8022978859242,-16.6388645165457 3.6270480706867,-15.3565093733095 z"
         id="path6189"
         style="opacity:1;vector-effect:none;fill:#ff6b08;fill-opacity:1;stroke:none;stroke-width:7.5590553284;stroke-linecap:round;stroke-linejoin:round;stroke-miterlimit:4;stroke-dasharray:none;stroke-dashoffset:0;stroke-opacity:1;paint-order:stroke markers fill" />
      <path
         transform="scale(0.2645833333333333)"
         inkscape:connector-curvature="0"
         d="m 759.7224468860199,290.6769321919794 c -2.8623554130845,-2.7874500252124 -5.9375056218265,-5.3056877838794 -9.1947262121539,-7.6140474376225 -2.9982472319599,-2.2832049987583 -6.3069373151586,-3.039273462801 -9.9797853127335,-3.2019089877672 -3.4172802870461,0.2597293364566 -6.6975838205228,1.2081960485794 -9.8979258627844,2.3854833448209 -3.6867475830738,1.6386477494943 -7.3531436421497,3.3223465896317 -10.7998616868659,5.4273719915909 -3.6336989669676,2.3618982302772 -6.814286419397,5.3219693788255 -9.9493528913528,8.292562068588 -2.9381276596099,2.8718219163307 -5.1126825388393,6.286665806945 -6.8851458127997,9.9647559970945 -2.2141002578996,5.8660484665827 -0.3321973097744,0.7540525810982 4.706458493792,-9.8189068167778 0.2546406495787,-0.5343300582549 -0.4588714335594,1.0924237927454 -0.6471960413717,1.6535693297187 -0.5835913234505,1.7389106520629 -0.8671093959373,3.5296206284051 -1.1368542328571,5.3360731239302 -0.3631023283385,3.6016081288533 0.3313944941376,7.0140833284256 1.5345463498185,10.3814386411766 1.4569553270748,3.6658304380266 3.8712286441673,6.7131166023673 6.7554246407105,9.3478470727964 2.9625546448715,2.5853284028751 6.4309972154465,4.2209229599637 10.2498998671274,5.0229784237265 3.7659436173395,0.8574510599965 7.3722736536881,0.1461158498255 11.0373613794328,-0.7392102153349 3.8904713448776,-1.0836126078686 7.4857432411742,-2.8763709989343 10.983193275401,-4.8603190947992 3.6056930130926,-2.0321838312273 6.4537030273186,-4.9515412184347 9.2154268293425,-7.9723245439709 2.93893279202,-3.3529858107186 5.6129671926653,-6.9541008034967 8.1788986994527,-10.5989083710122 1.9911913563077,-3.0228086650113 4.2464411812317,-5.8751230110954 6.0388966726999,-9.0272002150409 0.2105380100799,-0.4775927275289 0.4210760201596,-0.9551854550575 0.6316140302397,-1.4327781825864 -0.328861932368,1.0968491369042 1.8470195938006,-3.9801311755068 1.3772171840619,-2.9888593432825 -9.8937671536448,20.8756117267517 -5.9432464296619,13.4204614916205 -4.2217883266968,8.6045143473394 0.9909699380047,-2.7470087713514 1.1854189142839,-5.5290195258445 1.0430333869226,-8.4089515032997 -0.7887431787129,-3.0032582080972 1.1457311697508,-0.8746618896737 1.9928510009586,0.1524294301302 9.7045325365526,-19.4208124677332 5.2538865496284,-12.9369162967828 4.6611917655656,-5.5678316819674 -0.2420615854197,3.3934152489224 0.3683012936972,6.7811111276981 0.7629456099412,10.1436543407657 0.5084393638873,3.9184825384559 0.6658716317809,7.8706446998231 0.841891555898,11.814682813906 0.478977216861,4.7052414460617 0.9837723281257,9.4056035743688 1.3509858482332,14.1213875170948 0.3703617214769,5.5214129402675 0.4745399493838,11.053486497379 0.5437608562294,16.5850757979311 0.2351353926568,5.9901031053012 -0.1334164269767,11.9636167155895 -0.557226264015,17.9346372528107 -0.4103508841656,6.4712081992361 -1.4623217153952,12.8690725850956 -2.7808826111619,19.2096771231975 -1.2606283565889,6.4905643686116 -3.4015606559964,12.7509295973712 -5.6361221798676,18.9575187738478 -4.3964762548925,11.4630970811801 -9.8274622387303,22.5611547317268 -16.1651326163435,33.075562559105 -4.1891758620802,7.1346692107029 -9.2908764646281,13.6693527275119 -14.2303470734206,20.2880483529024 -6.3923899086706,9.1030750057597 -13.9850459997973,17.2448803445101 -21.6408318720952,25.2792499039761 -7.4243196893783,7.733195715438 -15.4979441096158,14.8509884832488 -24.227278043518,21.0719935057796 -8.3191843916725,6.1414391204638 -17.5886472634083,10.7672014303376 -26.8677133982507,15.2482747898732 -9.7797914151439,4.5506944540594 -19.8339948783989,8.5008221606981 -30.0855321044048,11.8480580388389 -9.8791208843554,3.3111008374967 -20.0169423744977,5.6793664775817 -30.2363940602962,7.6496043152284 -9.8973962019683,1.994573121661 -19.9450445783764,2.3128808482481 -30.0015743255639,2.2242419533191 -9.8243822138863,-0.260276122654 -19.5734518244917,-1.5025293641726 -29.2417142109382,-3.1988306565466 -9.0146909699082,-1.5876707141498 -17.9060126538716,-3.7934095485019 -26.6835437299355,-6.3746155527425 -7.3221651897018,-2.2059709956195 -14.4657836916313,-4.8265922505268 -21.0825846667842,-8.680484004713 -5.416960751736,-3.4985068425634 -9.1667263917996,-7.4130750385663 -11.2315605365133,-13.5522746395711 -1.6690675463823,-11.0586155034436 5.1395730484379,-21.7096687915029 12.4195392202622,-29.6413789024064 5.9122254517945,-6.4716580311215 12.9590942057895,-11.6649234053849 20.293736306328,-16.3921903690413 9.017981882839,-5.8127049223735 18.7282338484389,-10.4332218260262 28.5184907545364,-14.7733995801503 10.7702095237919,-4.6323228172407 21.8742805218118,-8.378736989061 33.1197558564766,-11.6585586295253 11.0645134254811,-3.2351899440265 22.3704662295299,-5.538947839075 33.711707509271,-7.5539532808402 10.5265621330084,-1.8615383884843 21.1527340251381,-2.9201536163221 31.7716432681035,-4.061197904897 8.9243790266811,-0.8521157198283 17.8546317230065,-1.6413531649702 26.785624607841,-2.4260366860129 6.2677814699697,-0.6078947189794 12.5570748273183,-0.8914652782418 18.8511614116725,-0.9996258962592 4.301950393095,0.029147397177 8.0989316338351,0.9567575346485 11.4787122311785,3.6450532362225 1.6483069269368,1.8278586275065 0.9103029833975,0.8606921724642 2.2217699519682,2.8955630251456 4.5269726864724,3.3834726353067 -5.0429330910657,16.1876849747101 -9.569905777538,12.8042123394034 v 0 c -0.3159164594748,-1.3125216446575 -0.099097351861,-0.6988984388311 -0.627216557003,-1.8489172691266 -2.0490415575138,-2.2564633873645 -5.5215068615316,-1.7019009132058 -8.2770672282534,-1.6538569933617 -6.2582730219236,0.42609997958 -12.5070294945832,0.9978470809692 -18.7354337087503,1.7453113628862 -8.9563647370077,1.1097098297519 -17.9365511510772,1.9831733785352 -26.9071979134833,2.9664188993947 -10.5288704868128,1.2159309331104 -21.0480820973175,2.521682063983 -31.4766812989611,4.4433062439251 -11.1560182983051,2.1337039998493 -22.2935116156223,4.4480272057228 -33.1709219745703,7.7565734391178 -11.007753330184,3.3087960166371 -21.8288024708725,7.214497272082 -32.4011525735928,11.7326162759656 -9.4701758156807,4.2650912034408 -18.8976582261407,8.7062922980392 -27.5806771793361,14.4533687324239 -6.7981021256358,4.6129598523355 -13.417353161678,9.5660611536444 -18.7475328158415,15.8848975302453 -4.5114561105858,5.952562430161 -5.8424468236276,11.503283874812 1.4145671835313,-6.0011468835177 0.06487521563,-0.1564836059025 -1.2040256561075,1.684710490168 -1.935363233669,4.3580380381404 -0.1736984059144,0.6349362426007 -0.2484356735061,1.2928806556176 -0.372653510259,1.9393209834263 0.1171504935951,5.3781021055125 3.8648530192392,7.9477144135179 8.0296623841739,10.7444993134306 6.2827259933896,3.6158687227279 13.1189151625373,5.8418572410422 20.08119958541,7.789206248742 8.6617237810825,2.3676924491394 17.4283872596386,4.3766503141481 26.2799027679893,5.8979252274464 9.3848851623401,1.6145053932323 18.8647230325492,2.7161877880404 28.3952190461384,2.8984355661922 9.7293297453327,-0.034713213338 19.4497349218459,-0.5672391161893 28.9981675679406,-2.588644872399 10.0216134300724,-2.0825781672649 19.9217224061175,-4.6539778031913 29.6118852542911,-7.975086600611 9.9903623172958,-3.4719757657015 19.8556836971227,-7.3280413495227 29.3935754099058,-11.913664961033 9.012029761868,-4.438935953842 17.9355672476728,-9.1101019610866 25.8782342078081,-15.3319611369521 8.3527831429603,-6.4754168543216 16.1423152835773,-13.6543236347116 23.3008699995552,-21.4352322630218 7.3371979219314,-7.9083275586333 14.5106733361154,-15.9683898830261 21.0044698189942,-24.59480148436 4.8372226624008,-6.4912357792896 9.6653055117911,-13.0143258843232 13.6445688322806,-20.0816664525902 1.7766192345648,-3.1512276433374 1.8986194120267,-3.3159719742612 3.5770902522518,-6.4968185044159 0.5588986040269,-1.0591608997443 2.1309254512126,-4.288009344522 1.6523124621395,-3.1902301919502 -9.3290533568851,21.397748331596 -4.2973914406856,9.1197996989981 -2.0268336748579,4.4915238996965 2.3860586317339,-6.0085734303771 4.5820184494032,-12.1199316323973 6.1634409161495,-18.3936419342098 1.3498708465711,-6.211365752146 2.6781405263998,-12.4288761267032 3.3099718469832,-18.7651678744281 0.4512697120158,-5.8939939075066 1.1031352098884,-11.7832438622697 0.9060940808398,-17.7041716487091 -0.01751495274,-5.5036276114642 -0.026963001187,-11.0103168087422 -0.2583360187,-16.5098749949528 -0.1959213020602,-4.7558424251997 -0.5564709752418,-9.4999295138432 -1.1134529888772,-14.2280366382623 -0.4408985936914,-3.9279472196728 -0.2771947278983,-7.8967529547033 -0.6300317272002,-11.8368436715206 -0.3598362691507,-3.5893495345828 -0.8802992403607,-7.1574102770679 -1.2906921743747,-10.7407974008573 0.3099143947368,-9.4104617108168 0.8373704132028,-10.6292763248874 7.3405356543876,-21.3731099929171 3.3024735859849,-0.9469893692221 6.4973825133799,0.1678131653323 7.9429902828082,3.4162409738165 1.0815429118603,3.1958740906843 1.3102263480439,6.6036706841792 0.6655913846657,9.9223999054778 -1.5815801366601,8.1075196132431 -5.7650072806241,15.4757469726774 -9.995181455879,22.5024911964725 -2.1194509207431,3.0878976510862 -4.1506572564986,6.2347118641942 -6.3763425108965,9.2481825760564 -2.7687360242747,3.6843971630746 -5.5205148047888,7.3935590500816 -8.8911242895998,10.5660722475043 -3.2115482853212,3.074166546417 -6.7004964241256,5.8082263124134 -10.7142287469263,7.777174366604 -3.9418564076731,1.9579437897289 -7.9761486876298,3.7335583493425 -12.3223271728622,4.5914059190767 -4.3414540137787,0.8005380521064 -8.7174182260363,1.0885610961912 -13.0650253069808,0.091108993672 -4.5586542957316,-1.1260533599152 -8.8435783856945,-3.0412901553111 -12.5189768169563,-6.0155818892184 -3.4744124629008,-3.0670158806626 -6.4694814479914,-6.5049798643392 -8.4926557881953,-10.7246987319186 -1.7031447623708,-3.7474799033966 -3.0353703241008,-7.5946638922703 -3.1006050744119,-11.7604370578253 -0.4494105504371,-9.0364787724915 3.7703440028952,-17.1731299734087 8.3976610106836,-24.8790006055464 2.3751788445262,-3.7312862508584 5.0890020349964,-7.1951174232885 8.4712748965575,-10.083407889127 3.4349707150654,-3.0000435163201 6.9877080558225,-5.8953133093885 11.0291382614398,-8.0536979878646 3.8025927152039,-1.9901930006579 7.6826046858887,-3.8856292486877 11.7792617768234,-5.1964756022871 3.794939353926,-1.0440336977135 7.6637765338812,-1.9616508609986 11.6308989746867,-1.8180297933691 4.4867263534481,0.3767891967082 8.7481206758621,1.4050098669832 12.5085161524973,4.0204323541766 3.6902831430476,2.5175964748737 7.2613032770969,5.2600988809861 9.9715844608257,8.8587991740328 4.6943139627572,2.9973306967505 -3.783417481766,16.2748556410875 -8.4777314445231,13.2775249443377 z"
         id="path6191"
         style="opacity:1;vector-effect:none;fill:#ff6b08;fill-opacity:1;stroke:none;stroke-width:7.5590553284;stroke-linecap:round;stroke-linejoin:round;stroke-miterlimit:4;stroke-dasharray:none;stroke-dashoffset:0;stroke-opacity:1;paint-order:stroke markers fill" />
    </g>
    <path
       sodipodi:nodetypes="ccccc"
       transform="matrix(0.271668078604713,0,0,0.271668078604713,-4.885622391686192,-4.829974690154871)"
       inkscape:connector-curvature="0"
       id="path6208"
       d="m 305.1528873634239,147.1246032103989 -45.6527941724808,1069.2364950923122 860.194753355189,-8e-12 -62.472244657104,-1069.2364950923042 z"
       style="opacity:1;vector-effect:none;fill:none;fill-opacity:1;stroke:#ff6b08;stroke-width:7.5590553284;stroke-linecap:round;stroke-linejoin:round;stroke-miterlimit:4;stroke-dasharray:none;stroke-dashoffset:0;stroke-opacity:1;paint-order:stroke markers fill" />
  </g>
  <g
     inkscape:label="Layer 1"
     inkscape:groupmode="layer"
     id="layer1"
     transform="translate(29.35448798901219,18.93155784134336)"
     sodipodi:insensitive="true"
     style="display:none">
    <image
       sodipodi:absref="D:\deving-games\drim-tim\Drim-Tim-Fase-2\Art\cognac uv.png"
       xlink:href="cognac uv.png"
       id="image6157"
       preserveAspectRatio="none"
       height="1365.333374023438"
       width="1365.333374023438"
       transform="matrix(0.2645833333333333,0,0,0.2645833333333333,-29.35448798901219,-18.93155784134336)" />
  </g>
</svg>
