<?xml version="1.0" encoding="UTF-8" standalone="no"?>
<!-- Created with Inkscape (http://www.inkscape.org/) -->

<svg
   xmlns:dc="http://purl.org/dc/elements/1.1/"
   xmlns:cc="http://creativecommons.org/ns#"
   xmlns:rdf="http://www.w3.org/1999/02/22-rdf-syntax-ns#"
   xmlns:svg="http://www.w3.org/2000/svg"
   xmlns="http://www.w3.org/2000/svg"
   xmlns:xlink="http://www.w3.org/1999/xlink"
   xmlns:sodipodi="http://sodipodi.sourceforge.net/DTD/sodipodi-0.dtd"
   xmlns:inkscape="http://www.inkscape.org/namespaces/inkscape"
   width="361.2444458007812mm"
   height="361.2444458007812mm"
   viewBox="0 0 361.2444458007812 361.2444458007813"
   version="1.1"
   id="svg4681"
   inkscape:version="0.92.1 r15371"
   sodipodi:docname="gaseosa label.svg"
   inkscape:export-filename="../Assets/Textures/gaseosa label.png  "
   inkscape:export-xdpi="96"
   inkscape:export-ydpi="96">
  <defs
     id="defs4675" />
  <sodipodi:namedview
     id="base"
     pagecolor="#ffffff"
     bordercolor="#666666"
     borderopacity="1.0"
     inkscape:pageopacity="0.0"
     inkscape:pageshadow="2"
     inkscape:zoom="0.494885159322163"
     inkscape:cx="809.3050080895791"
     inkscape:cy="855.053060169512"
     inkscape:document-units="mm"
     inkscape:current-layer="layer3"
     showgrid="false"
     inkscape:snap-global="false"
     inkscape:window-width="1920"
     inkscape:window-height="1013"
     inkscape:window-x="-9"
     inkscape:window-y="-9"
     inkscape:window-maximized="1" />
  <metadata
     id="metadata4678">
    <rdf:RDF>
      <cc:Work
         rdf:about="">
        <dc:format>image/svg+xml</dc:format>
        <dc:type
           rdf:resource="http://purl.org/dc/dcmitype/StillImage" />
        <dc:title></dc:title>
      </cc:Work>
    </rdf:RDF>
  </metadata>
  <g
     inkscape:groupmode="layer"
     id="layer3"
     inkscape:label="Layer 2">
    <rect
       style="opacity:1;vector-effect:none;fill:#b11d1d;fill-opacity:0.9237667918;stroke:none;stroke-width:2.5356628895;stroke-linecap:round;stroke-linejoin:round;stroke-miterlimit:4;stroke-dasharray:none;stroke-dashoffset:0;stroke-opacity:0.3946188534;paint-order:stroke markers fill"
       id="rect5238"
       width="1004.361450195312"
       height="356.8126220703125"
       x="-1.201389312744141"
       y="440.2636108398438"
       transform="matrix(0.3698996791901369,0,0,0.2649113116694548,-5.271625332116403,-0.2029103432489592)" />
    <g
       id="g5351" />
    <g
       id="g5445"
       style="fill:#f2f2f2"
       transform="rotate(5.396079627320398,287.8358311532951,168.4777750349631)">
      <path
         style="opacity:1;vector-effect:none;fill:#f2f2f2;fill-opacity:1;stroke:none;stroke-width:1.8897638321;stroke-linecap:round;stroke-linejoin:round;stroke-miterlimit:4;stroke-dasharray:none;stroke-dashoffset:0;stroke-opacity:1;paint-order:stroke markers fill"
         id="path7765"
         d="m 903.0754485214063,595.5156835375629 c 2.2764082079817,0.6176902014237 4.5459238945094,1.2428823903463 6.8575021168543,1.7186170216994 2.2263815454969,0.4617036479674 4.4584111206243,0.683733205831 6.7219440149354,0.491374314369 2.0241475500267,-0.1833881136578 4.0247901503718,-0.4248867109958 6.0120306559783,-0.8439191512771 2.0413852605911,-0.4470207968956 4.1178352487934,-0.6766122574925 6.198887216552,-0.8310710783028 1.7083636499591,-0.3949681728957 3.4771853035037,-0.5152023521863 5.1696665057691,-0.96494846064 1.8731749800376,-0.4944458763505 3.6877228010165,-1.1949495270517 5.5139316123922,-1.8417564559966 1.8430499216804,-0.6890794508217 3.3184120514619,-1.9540264566425 4.931149817446,-3.0266964007875 1.5020281653808,-1.0760189070695 2.7875964291719,-2.4018370963845 4.214887433727,-3.5610173441349 0.1628863611082,-0.1877630085028 0.3461346817614,-0.3596380766866 0.4886590833257,-0.5632890255082 0.1799827809957,-0.2571746572452 1.5017906414844,-3.7340930383148 0.6502046390301,-1.9758313274812 -5.3563270564448,11.0591587307759 -5.5574280139623,11.3536364210958 -3.6794461631615,8.191781915167 0.2299199481222,-0.8213158333947 0.7763423065227,-1.6696709247276 -0.169614900708,-2.126883787358 -1.18131655876,-0.2972611026894 -2.5292072902871,-0.070760819373 -3.6703612776558,0.3132164856087 -1.5588857867039,0.389286535227 -3.0214657683212,1.0184420515138 -4.5425532230811,1.51857831063 -1.4602630700307,0.7458122782193 -2.9629499310205,1.4317663477734 -4.5161090669915,1.9647444719885 -1.5244826943582,0.6642410087851 -3.001277460668,1.4367553783045 -4.5566665543637,2.0276592074598 -1.5015970155822,0.6584015171925 -2.9336179171911,1.3532689652342 -4.1347629923058,2.4833633034051 -1.3798692823293,1.3100611549055 -2.4599431453479,2.8780751573868 -3.799152342512,4.2222689273607 -1.1837682956452,1.641055784301 -2.6124528978813,3.0839282152093 -3.808496738186,4.7120134414066 -1.5319062591449,1.3729134720021 -2.2527616705422,3.3275097088074 -3.4149274478913,4.9653288773452 -0.905197946122,1.4358660208981 -1.4538110097866,3.0853577547266 -2.3840691912402,4.4942396901943 -1.8378405066726,3.7266139667804 0.6278255241441,-1.2645990328672 3.7728781808679,-7.967253921712 0.1042615451139,-0.2221995086738 -0.2558765752636,0.4206910396455 -0.3538892166241,0.6457168461169 -0.3090767159738,0.7096047643296 -0.5559228292884,1.4392699760682 -0.883560493649,2.1458932209282 -0.6707918101953,1.5690636695722 -1.0213506717977,3.2584943631589 -1.4438492120769,4.9102116928965 -0.4081465903362,1.9535760228355 -0.6901704680204,3.9263016402248 -1.0705097438772,5.8870812991487 -0.2748123777716,2.0469185296731 -0.7325859301732,4.0587438089568 -1.1298686383413,6.0841271671244 -0.2884162774378,2.0354582054572 -0.8167117182606,4.0248583480396 -1.1767194376092,6.048238489312 -0.3514481650242,2.1309230236111 -0.419707053347,4.2952417164074 -0.4854293258535,6.4499811377561 -0.054693092894,2.1555913430451 -0.054347587183,4.3120311235125 -0.052239066391,6.4681541100124 -0.079566837534,1.9670008503691 0.08469014914,3.9220869864498 0.4730914483669,5.8500518114073 0.4402630203026,1.9158730489596 1.1224424415967,3.7860801575623 2.0194987235153,5.5346741982746 0.8633360993681,1.697186105219 2.0949626970721,3.0940395695283 3.5144249276101,4.3411299458304 1.5475620821727,1.3163439204475 3.35081226565,2.233423361041 5.1862572896813,3.0708853680352 2.1662932206694,0.7738368473787 4.3733472584746,1.4192356715087 6.5697320671071,2.1000090240418 2.3041258370572,0.5313651197945 4.6215919122227,1.00583440937 6.9373664792937,1.4874174717993 2.0336378711321,0.4312877032686 4.1034951796272,0.6167378427006 6.1756567268169,0.7257101604099 1.9434676739003,0.2054650840289 3.8409592783781,-0.030497395594 5.7590685647483,-0.3068723268104 1.7805825666461,-0.1927178119971 3.4649553843835,-0.8262143711463 5.141079135273,-1.4181127340106 1.5460061487064,-0.7244024007996 2.9475602235818,-1.6770160708807 4.3965036507318,-2.5636926062782 1.2695282852776,-1.0324759632014 2.0936450139063,-2.4558219210033 3.2302446986673,-3.6125704866417 1.0166455729747,-1.307346056573 1.7670806312532,-2.7753127566363 2.5007636103251,-4.2500658212459 1.2927079484566,-3.3810941602983 3.8295818575527,-8.3997657538123 -3.3829646224713,7.038030606422 -0.1240800612796,0.265582027611 0.2646110941829,-0.5233209178665 0.3868619481043,-0.7897499022372 0.3532707819716,-0.7699052614299 0.364966409357,-0.8586914191419 0.6498593810609,-1.6585205885408 0.5905104595928,-1.786749741525 0.7175803580268,-3.6666462008812 0.866641366947,-5.5282252910232 0.015287530559,-1.816305146653 -0.2530545150311,-3.5787198209124 -0.8633569130533,-5.2854791808969 -0.4954330874706,-1.4766799938201 -1.3298968359618,-2.7945837027166 -2.2845862914272,-4.0125452429389 -0.7977920963249,-1.1196950561247 -1.9668431842116,-1.7657463153328 -3.2303273086466,-2.2267992478343 -1.4929919684796,-0.7239619645452 -3.072335965363,-1.1427295462945 -4.705594086941,-1.3841628794255 -1.787763735987,-0.2598805462161 -3.557611559061,-0.2413135381836 -5.339206689545,0.00571072349 -1.6590516283741,0.3688054664012 -3.0742540293613,1.2581511711205 -4.5222429364793,2.0921509676319 -1.2582248168363,0.862510279203 -2.2345578179164,2.0291397884388 -3.3914849184789,3.0011219136301 -0.8920596580517,1.2232808586272 -1.9119197433946,2.3659085008511 -2.5162133573493,3.7642135771615 -0.8961550012112,1.4059840907021 -1.7917086205929,2.8146625503689 -2.6333069890184,4.2526465902215 -0.7073464846553,1.4340743522115 -1.5403604101947,2.7926523335258 -2.2630441813011,4.2227795500269 0.81741675588,-1.0945615403374 -1.6571475959264,3.3829767916819 -1.0215548647212,2.0406528347464 13.7850766985067,-29.1130432934814 -10.1364035201798,21.8633450080572 3.4230189700737,-7.1838912060939 -0.7523739716538,1.6810887582458 -1.4443527074291,3.4018861061063 -1.9963919152425,5.1620093451256 -0.4602784925853,1.9904163321153 -1.0426516377512,3.9444744311527 -1.3747339368888,5.9626877984588 -0.4883359320543,1.7905326632033 -0.8150446684433,3.6136691810983 -1.2144146054286,5.4226360582378 -0.4382259911888,1.9451138357798 -0.8909611695384,3.8935260849612 -1.5228081337033,5.7863904649796 -1.6833463232005,4.8875560863562 -3.9937536916253,9.5490694235101 -6.3283557931165,14.1607301062502 -0.7454683600089,1.5489249749428 -1.8865824187784,2.8090732691928 -2.8638620437197,4.2002159891217 -0.968197857483,1.4595721670461 -2.0065831154768,2.8157158814954 -3.2512655647638,4.0539237815983 -1.1380721623517,1.4477353079434 -2.6269038400263,2.6307084211917 -4.1189244278241,3.6992673480212 -1.5545065871817,1.0822578730789 -3.1517334406124,1.8643153357766 -4.9889977030181,2.3423924004802 -2.0946930857266,0.5285290439292 -4.2494469484709,0.3422056111964 -6.3465685106412,-0.060168310724 -2.147229042243,-0.36667839602 -4.0295267579894,-1.3998661935249 -5.8246863579765,-2.5791459688169 -1.609539537146,-1.1444472216167 -3.0860134688409,-2.3932732570363 -4.2813859856625,-3.9691932355064 -1.0770223298874,-1.5815307474967 -1.4518736323499,-3.4275402817208 -1.451668735154,-5.3119201958567 0.014559744588,-0.3103041972297 0.029119489176,-0.6206083944596 0.043679233765,-0.9309125916893 -2.6714055874111,-3.0999163696172 6.0964819568594,-10.655792394249 8.7678875442703,-7.5558760246316 v 0 c -0.1239917482645,0.1786399223084 -0.2479834965289,0.3572798446168 -0.3719752447934,0.5359197669251 -0.3695834828186,1.2438465221325 -0.6155379080634,2.4784449772734 -0.3694108300315,3.78419990266 0.5550239260805,1.4021577899492 1.9839358485334,2.1446805748719 3.0672501428536,3.1047191825385 1.3973600010048,0.941731310191 2.8052238529906,1.733528255707 4.517943288757,1.9491166805744 1.5780596666233,0.239057409896 3.129549964881,0.2930738261417 4.6326002863299,-0.3415398242162 1.3836970938671,-0.6401622992958 2.6138315240637,-1.5805514537097 3.7722219448144,-2.5613112434639 1.2558074658656,-1.1790757738153 2.4855617875571,-2.3585494309735 3.5488478614054,-3.722036130388 1.0002828320918,-1.3157580100291 1.8750997622118,-2.7179757734564 2.8780686744764,-4.0325107987281 0.9298097633664,-1.2984263924196 1.6078658210682,-2.7585304513696 2.3091346760217,-4.1883744729719 1.3019379911954,-2.7213031359835 5.5473234848531,-11.6047017821744 -3.6629664583952,8.012685711145 -0.1211720215712,0.2580894320539 0.1784228265112,-0.5420733761288 0.2858596054679,-0.8061759173452 0.1040735815363,-0.2558350838897 0.2319937278299,-0.5013087993823 0.3479905917449,-0.7519631990732 0.1338842903258,-0.2344603068426 0.2953435983244,-0.4551975664755 0.4016528709776,-0.7033809205278 0.1223524187899,-0.2856367362298 0.1869700837598,-0.5926854356652 0.2804551256397,-0.8890281534979 0.6963828237828,-1.7931779898687 1.3576509839205,-3.6021402906965 1.7738770152052,-5.4855135312924 0.4584414146543,-1.790202409012 0.7756460777981,-3.592611128851 1.2286281589187,-5.3862130033754 0.5880863847286,-1.9515731013139 0.5812248448135,-4.0568836615797 1.3375627088731,-5.9765935023447 0.3391216021625,-1.9784981119428 0.9172518405123,-3.8512188632575 1.6556569584873,-5.7114356640967 1.5717578271373,-3.3945164404001 3.1798643748589,-6.7724375659463 4.7152734814107,-10.1835493211998 1.3032015896704,-2.8952324452298 -5.4831755970125,11.4528511334679 -4.0186041032354,8.6358073576553 2.0585816029175,-3.9595980914147 3.6741570796266,-8.1931943907622 5.8287919485792,-12.1047646749474 0.8238347983706,-1.4199612966418 1.5424013599043,-2.903366672689 2.4623833003578,-4.2679022637791 0.9116713050471,-1.3941646329533 1.717879710081,-2.8589110587151 2.6624416540153,-4.2347946094034 1.082856841888,-1.3011929858867 2.1138250151246,-2.6520249177955 3.4751589089964,-3.6832388002297 1.24368822428,-1.1937168743169 2.6855239598234,-2.189476416871 4.2095890627286,-2.9915279209487 1.8497687267652,-0.950453677905 3.8254493341727,-1.6341743774087 5.9046769449412,-1.8483410445856 2.0826269458839,-0.1318863225148 4.1673017261012,-0.018556815229 6.2248370010475,0.3442729597465 1.8402978315646,0.3652363477445 3.6337915773416,0.8888186032455 5.3484988744983,1.6614631596715 1.7960898361425,0.7393335347102 3.4743210283342,1.7157139779694 4.8116535677464,3.1505780758841 1.1674957455841,1.4504225115608 2.3802585479236,2.8564996875657 3.2021039701899,4.5487473284948 0.8028003773818,1.9495505187502 1.6342576059925,3.8758323159457 1.7583822653808,6.0148023283006 0.2814511975876,2.086924741963 0.066987410814,4.202799493131 -0.1881479634834,6.2864774767296 -0.9100597711116,5.3118830841064 -3.616904349569,10.1210095332799 -6.330829084634,14.7391393433375 -0.9671243259146,1.5046861596861 -1.9396491956868,2.9848948896743 -3.2561924798673,4.2245126360741 -1.1858247496465,1.4320742940341 -2.580873002109,2.6595041093847 -4.2261740186368,3.5450793844346 -1.6299308614356,0.9998785400934 -3.3664330290526,1.8464499549523 -5.1813983112294,2.4537310419344 -1.8954465037908,0.6024849566729 -3.836637941379,1.0918484069044 -5.81794016886,1.3041086949123 -2.1265903310982,0.2443175697304 -4.2547246747857,0.2902029219588 -6.3915654907722,0.1265678927494 -2.2392288621612,-0.1439611305132 -4.473812982425,-0.3713540918886 -6.6755546595022,-0.8184015278033 -2.4295883105727,-0.4832191262831 -4.8770057367362,-0.9184105030333 -7.2579346700887,-1.6078066918478 -2.3461656226267,-0.7097319888176 -4.7084071726125,-1.3806617985961 -6.971761064833,-2.3327102749171 -2.1452169558969,-0.9762694517524 -4.2375928337999,-2.0609428332567 -6.0801155981261,-3.5500775937444 -1.6950158587616,-1.4561738898656 -3.3289648032882,-3.016907483332 -4.463408427697,-4.9670682759596 -1.2608082994635,-1.9239964780232 -2.1552891699125,-4.0074645119416 -2.8630707200224,-6.196367691019 -0.547188267171,-2.085235040794 -1.0673855658367,-4.2121418583653 -1.0590847000336,-6.3814385621755 -0.016608825641,-2.1613158670759 -0.040447789691,-4.3226239262419 -0.040380274067,-6.484025750033 0.01077634014,-2.2686284482505 0.038613042512,-4.5397283749978 0.2383496873853,-6.8011379664476 0.2097175558264,-2.0617364452727 0.5175373086669,-4.1151626257995 1.1183287177379,-6.1042865103574 0.2675276146188,-2.0613728048537 0.7700246102713,-4.0652953910591 1.1100872165847,-6.1070737006485 0.2999004928146,-2.0169211150118 0.8396369109465,-3.9789634535144 1.0123212717434,-6.0125610751874 0.3057999290917,-1.8204564706182 0.8670742208583,-3.5579593520185 1.1886195442918,-5.3712577860834 0.2246817741303,-0.7740964244636 0.584792724385,-1.4217151286713 0.8604548871924,-2.1624611471841 1.4782009207586,-3.9721499514548 3.226985784414,-7.9065695772639 5.3621343532653,-11.6100398192744 0.693305108767,-1.6235185474658 1.7197108697156,-3.1053740643562 2.6447503938333,-4.6030904770497 1.0626821124295,-1.8358415746483 2.4593542239597,-3.4121012012826 3.8033244172456,-5.0432172499452 1.3539152986598,-1.5237390374709 2.629127278963,-3.1156584508645 4.0202330119446,-4.6057038983223 1.3117220674129,-1.5558213023661 2.762744920547,-3.0079348750235 4.4934170624199,-4.0991184072876 1.571377133871,-0.9085154925286 3.2169284836849,-1.6695000416586 4.9024075656516,-2.3423800574956 1.5401064004088,-0.7422251069162 3.1121764528428,-1.4184766248608 4.7023389945605,-2.0457502331454 1.5303800458778,-0.6492446184925 3.0452350460646,-1.342061332162 4.6091866975106,-1.9043305902169 1.6259163029474,-0.5949286373941 3.2899966545897,-1.0798885888635 4.9891316699949,-1.4195457292087 1.9925690711966,-0.2464399764071 4.0260678924916,-0.3212499789644 5.8926488562372,0.5503884478801 1.8858152980231,1.0226331003587 3.5105408929228,2.3977014543555 3.6466077155453,4.689974661884 0.4074544706848,5.2897690747433 -3.0549556442907,10.5026719692892 -7.019213293583,13.7682525418654 -1.4444852124493,1.3572894915829 -3.0463401833391,2.5504080516682 -4.6920847080057,3.6515448626466 -1.8052645322773,1.1921726581807 -3.7481120519521,2.1486938753955 -5.7945231709142,2.8572294069402 -1.9466190075334,0.6697535230965 -3.9198399901943,1.2904677388241 -5.9471273134774,1.6648806339136 -1.8603270223806,0.2961163567453 -3.7055469248621,0.6843759192825 -5.5758959113658,0.911866325442 -1.9701583099943,0.2064476941646 -3.9223045386001,0.5253242056841 -5.8605513351281,0.9362369344093 -2.1400535828542,0.3720780711222 -4.3062193374683,0.5867059292981 -6.4699515830531,0.7679349485421 -2.5737808675833,0.093602491515 -5.1350836887719,-0.1571867016261 -7.6617900715512,-0.6607629735691 -2.5123273502353,-0.5380626963532 -5.0541813834963,-1.1586676107761 -7.3086569274431,-2.4345395597502 -3.682027449822,-1.6748603668204 1.0551930418549,-12.0892066799568 4.7372204916769,-10.4143463131334 z"
         inkscape:connector-curvature="0"
         transform="scale(0.2645833333333333)" />
      <path
         style="opacity:1;vector-effect:none;fill:#f2f2f2;fill-opacity:1;stroke:none;stroke-width:1.8897638321;stroke-linecap:round;stroke-linejoin:round;stroke-miterlimit:4;stroke-dasharray:none;stroke-dashoffset:0;stroke-opacity:1;paint-order:stroke markers fill"
         id="path7767"
         d="m 990.2621676413159,620.3769933311814 c -2.4460596241298,0.828952648538 -4.9126223336299,1.5947853079164 -7.2899197294281,2.6105282523914 -2.02717610769,1.0457972181563 -3.9798100938707,2.4190482594031 -5.3820510467318,4.2337631866277 -1.3460642670101,1.9238368912728 -2.2049597214069,4.0822027523767 -3.1419833010998,6.2125513498869 7.5514158660794,-17.3070887880569 2.8892373348343,-6.2006239357687 1.5562498737571,-2.0050085608724 -0.9195478010904,2.8043214711197 -1.3705623455088,5.717261041793 -1.6548921692547,8.6448696389489 -0.2422656757019,2.8494197926111 -0.30897696973,5.7114471291562 -0.2993208658946,8.5701199037969 0.063572893223,2.5157004614615 0.3776586765985,5.0030085620076 1.0087481448281,7.4375592124203 0.4803410457612,2.1337847447686 1.3068641686002,4.094502733745 2.4953433062702,5.9223563946158 1.070384266386,1.5723511968331 2.3561559843513,2.9351043308925 4.016833626803,3.871886841823 1.5552403848179,0.7573904029226 3.1975529457326,0.8416993388881 4.8807745010699,0.6592634407908 1.8235505440771,-0.430151678652 3.332002146839,-1.6395224729077 4.6315889164282,-2.9395325458091 1.5135772064845,-1.4713523375572 2.5415012436326,-3.2994480468548 3.6274423759751,-5.0829317451244 0.1605321190144,-0.3217750802121 0.3210642380292,-0.6435501604245 0.4815963570436,-0.9653252406373 -0.2420766729983,0.7659682517217 1.3366670665233,-2.6573719170077 1.016223831164,-1.9862435533565 -7.3697810826661,15.4350866946112 -4.7231609004227,9.9007502646219 -3.1242620541419,6.5324933442582 0.9582460678882,-1.9935006058175 1.5282412366654,-4.1454118008902 2.0781600533035,-6.28020416936 0.5309744965809,-2.0928481736978 0.7632924828238,-4.2391493881314 0.9081701832154,-6.3880228419722 0.2414453579462,-1.8206146483444 0.016834754459,-3.6012866909376 -0.2607427833864,-5.3998314595409 -0.2862935074138,-1.8415756878909 -0.7086793970194,-3.6711084613994 -1.172913684484,-5.4769029971621 -0.4520214255376,-1.8730399223595 -0.9838929498852,-3.7154626190548 -1.7309079772108,-5.4920430559253 -0.6555458189125,-1.5459277376006 -1.5129121900337,-2.9756456150112 -2.4723666204162,-4.3477864260479 -0.9314621556848,-1.101476308074 -2.0147198799285,-2.0887737381468 -3.2941110321293,-2.7632568241418 -1.3648375114728,-0.5870464590774 -2.8141462505115,-0.6970540327977 -4.2699786802674,-0.5157213037785 -1.6323561974284,0.355979551166 -2.5984778856883,1.2773829463594 -3.5935765782034,2.541622559197 -0.5591630017262,0.7220714142163 -0.7480152816571,1.5900268676986 -1.0412426578663,2.427548367315 -0.1098170347834,0.3136614624609 -0.5119038596681,1.2262698601288 -0.3695651872624,0.9259650208411 2.7337365771708,-5.7676126212806 5.4398700001079,-11.779024554515 3.5905978498744,-7.6778283979513 -0.7472316245697,1.672409052392 -1.0984052527225,3.3680148207953 -1.0486068574066,5.1880242665346 -0.02532426192,1.5811012967702 0.4908389707156,3.1128318264541 1.1405393200509,4.5343486571849 0.6499910259533,1.5738656411864 1.6518171288286,2.8972628518603 2.8409668173965,4.0955276377426 1.38549785769,1.1824265464343 2.820695474138,2.3328535217771 4.4508836829301,3.1583206106127 1.3865354468452,0.8533179433748 2.87858965056,1.3627128473547 4.4734032940172,1.6320098893052 1.7464655818229,0.1813455956252 3.5260875861071,0.3417175551724 5.2734597864342,0.1192942214518 1.8658157129695,-0.1764225019487 3.4718946512105,-0.8944766897415 4.9218721804285,-2.0452161150115 1.837877765743,-1.0838836131181 3.193688427555,-2.7344114960988 4.611409985164,-4.291270206896 1.369859722629,-1.815190894456 2.847271210807,-3.5395175942815 4.303557414176,-5.2879774488282 1.281733107387,-1.6949852036331 2.568411797804,-3.3953710628942 3.93321829636,-5.0309532523399 1.183676331203,-1.8289057098222 2.763712132444,-3.3274989733441 3.970154076204,-5.1403297578294 1.346296958049,-1.4838482833205 2.345790298446,-3.244514583571 3.648288927402,-4.7587342267118 1.064819266094,-1.5199304328703 2.31811633393,-2.8980156965838 3.839398801479,-3.9714320574622 1.357714150626,-1.1680921337229 2.860015965899,-2.1891903472944 4.377451983293,-3.1395920732396 2.429028826836,-1.3419523008533 2.799406853704,-1.1684848774952 5.26748090207,0.340016573914 -3.144615925145,11.4147582229822 -1.810130026579,8.0468224438207 -5.80238573608,11.5241013208274 -1.799195657372,1.5671103031026 1.198196858485,-0.7365210237499 -1.034341224488,0.9318717216031 -1.237282258668,1.047378840663 -2.279674812527,2.2490992068814 -3.339159928638,3.482146784349 -1.13520603134,1.4637883272733 -2.237816638179,2.9377116948251 -3.180905948159,4.536862679704 -1.538147660547,3.7100880513161 -0.355689136978,0.818171906362 3.850798656267,-7.8762691837143 0.126605699712,-0.2616828698715 -0.246117815612,0.5267411066503 -0.370406092323,0.7895325674249 -0.400111779102,0.8459845263429 -0.727493904452,1.7129054569169 -1.095360838186,2.5733931179319 -2.466111489236,6.3393801152188 -11.822066871942,25.7336375285024 -2.549993082882,5.9204313238514 -1.656837257502,3.5122751514589 -3.318045944802,7.0224915024488 -4.970511772508,10.5368254543764 -1.820090895494,3.8708257214079 0.966968725294,-1.9280101434759 -1.008113600695,2.0324845524675 -0.165854470569,0.332576390535 -0.623489451351,1.3494722606356 -0.465787629012,1.0129534704023 4.034591603012,-8.6093861516448 5.257092322436,-11.4525782443435 3.546762654877,-7.5114681346031 -0.929108074115,1.8346420179384 -1.643123058298,3.7449920981029 -2.110640441898,5.7453106852367 -0.386544257045,1.8611122384998 -0.523172391114,3.7436953786965 -0.376659395164,5.6352387020848 0.222103121239,1.9238281271696 1.026989803871,3.5937334894952 2.065317015934,5.194376659304 0.883289143509,1.3892819834188 2.037271273286,2.4111640575685 3.486519832048,3.1658010618213 1.535184769895,0.7627048440172 3.112071998076,0.6638489022664 4.758525960123,0.5028106983201 1.771147621131,-0.2170783266148 2.952638445516,-1.2924894666406 4.295246392061,-2.32517379921 1.37428902355,-1.2146223148319 2.669648343903,-2.5347672175401 3.630830426898,-4.1083063703319 1.251147759363,-1.715495687632 2.239517654168,-3.5888948018548 3.31141972277,-5.415100426346 0.160635548154,-0.3275854292907 0.321271096308,-0.6551708585813 0.481906644461,-0.9827562878719 -0.251026400128,0.7753895453444 1.3526237697,-2.6824542550802 1.030531791285,-2.0039000674394 -7.312949989105,15.4062602351592 -4.567104926454,9.7761484706567 -3.090828312419,6.2939098859626 0.861079569119,-2.1164778316064 1.477140365297,-4.326074969278 2.09249678807,-6.5246965824299 0.486556800637,-1.913008934222 0.863562635567,-3.8740785368401 0.882977583007,-5.851619240978 -0.09496714971,-1.9813094526718 -0.353096293496,-3.945723121464 -0.752644318634,-5.8868312505853 -0.382276480879,-2.0036830359229 -0.861619619015,-3.9881429317893 -1.440094649766,-5.9441732968811 -0.434016120139,-1.688839324495 -0.98628008555,-3.3210622909462 -1.739745229165,-4.8921801311337 -0.522515117182,-0.8347267436209 -0.995800989747,-1.9291161748927 -2.09172640137,-2.0240609621591 -1.222830638145,-0.089080759188 -2.134331453048,0.5116042739453 -3.142265466573,1.080898715368 -1.037577983855,0.8720101939614 -1.967089762298,1.7946215731663 -2.805256340019,2.8662328942038 -0.871569646228,1.3124002354949 -1.737465847617,2.615992541595 -2.480591571742,4.0137345380807 -1.335809800803,3.6957641999171 -0.473474581042,1.2394349687786 3.840255354098,-7.9529185807123 0.108228943531,-0.2306307367842 -0.245146425403,0.4472523679451 -0.350017846092,0.6794290810109 -0.343581904221,0.760662120021 -0.51950435382,1.5448036791731 -0.685881289041,2.3576344567992 -0.413166079167,1.774754557662 -0.194703107914,3.4977076491488 0.181561489851,5.2494786697312 0.402940197066,1.5327826431762 1.19706668396,2.8626450911772 2.121436474096,4.1287447366503 0.81792127571,0.9797576510141 1.805068707647,1.6580950042071 3.017170918161,2.0262063892876 1.58078547706,0.3996045055734 3.16640146113,0.3476698060452 4.762312001612,0.1254590109644 1.94166509527,-0.256685263005 3.80621273998,-0.9508844592044 5.57232939633,-1.7787337032446 1.758257914678,-0.6958733528513 3.336698744543,-1.7494274934588 4.844101169866,-2.8771598296945 1.385921046628,-1.0332212985237 2.938617700719,-1.8118884708323 4.251608076799,-2.9425055902144 1.364972288044,-0.8370791217276 2.275415262134,-2.1836786961303 3.19571877536,-3.4623714302984 0.123487620449,-0.2368741800949 0.223202575915,-0.4877481856937 0.370462861347,-0.7106225402838 0.751532082463,-1.1374229469983 0.370849197696,-0.2068301848346 0.97122407334,-1.3811873959638 0.379970447674,-0.7432373560978 0.525008874614,-1.4938084965627 0.937822274744,-2.2273530651944 2.751287111452,-8.6922762614581 -13.505586350512,32.1103637090174 0.948465779449,-2.2020255209081 1.235553538932,-2.9330732697705 -5.690226794124,11.3720137435492 -4.035217137394,8.6534747260725 2.060062621145,-3.3838839497158 3.227718580414,-7.2557226028082 5.248520734463,-10.6631978033598 2.576505141415,-3.4404354715357 5.581029074229,-11.0106387310648 -2.085713627252,5.5377361463321 0.518148009405,0.1708680511025 2.534924968311,1.2166803042561 2.735537160688,1.7419059795676 0.04249752704,0.1112633887068 -0.260529640196,1.0103464548074 -0.267018653711,1.0311987620088 -0.510697823168,0.7092085690796 -0.734521328861,1.5512598706491 -1.067468555106,2.342383306721 -0.13297462928,0.3159640247296 -0.587868599145,1.2388134337684 -0.440807449602,0.929154693781 5.662527982115,-11.923280115352 5.433055048198,-11.4856472908932 -0.861854656627,1.97185202857 7.254299323264,-16.7984951501193 3.621791135508,-7.677312484876 2.048904932507,-3.7437623542936 -0.604426550489,1.804473174075 -1.241491006152,3.6124826061217 -1.658958604738,5.4726598925392 -0.508261766657,1.980923174562 -1.074758640729,3.9408969131283 -1.654651302929,5.9018328880137 -0.573883060387,1.8966520645373 -0.8355936685,3.8585057585406 -1.002633189303,5.8264124802431 -0.254391277589,1.9132713781516 -0.04929151235,3.7671539461245 0.407795810897,5.6268614154767 0.563738504445,1.8957650907156 1.385121847013,3.6943366702402 2.301133718705,5.4415639815865 0.765495173615,1.3298590405977 1.566009955725,2.5908702212821 2.92961048152,3.3470489840339 1.24841061815,0.5408538687661 2.599249401333,0.5632910292688 3.869471462536,0.093249742665 1.531897244667,-0.6372833094007 2.919254971807,-1.6677467733709 4.235167448123,-2.6790360327852 1.79063048397,-1.4602654969672 3.477949607489,-3.0581689283114 5.000108867736,-4.794739475945 1.437154571021,-1.2330148557054 2.417649753145,-2.8544172257351 3.018277445869,-4.6342272744487 1.659304059014,-3.7464756714096 0.617650224563,-1.3781490954337 -3.629009327906,7.7077855444359 -0.132952818394,0.2844590208349 0.276486717393,-0.5640505172541 0.402929882719,-0.8514622643964 0.398978584404,-0.9068986189938 0.663338016003,-1.8018330207418 0.885627033396,-2.7649824582539 0.547517981027,-1.9251124665959 0.974599778242,-3.8746117394637 1.258501930267,-5.8551634113333 0.331378790759,-1.9423409640212 0.277779297203,-3.8660100477758 0.06118615626,-5.8125794698352 -0.202218728837,-1.9169974814552 -0.503256186544,-3.8310681870558 -1.008832717714,-5.6924410821184 -0.400266348269,-1.619146426881 -1.018635440117,-3.1275101478129 -1.90992096318,-4.5347172931408 -1.078223347712,-1.4863959653173 -2.279856893247,-2.9117620403595 -3.783223872044,-3.9796039552655 -1.198045132816,-0.7692599461955 -2.29083119192,-0.8635743879337 -3.574993642733,-0.366144400022 -0.946566648462,0.77331023543 -1.910583623185,1.4833782203567 -2.398546555705,2.6395487281059 -0.886231278206,1.1486288090883 -1.724433557596,2.2415508070757 -2.069436942198,3.6759687648024 10.435562847496,-18.3423501707399 3.72966607279,-9.9335562547571 3.298336934489,-6.8003598533353 -0.07337397416,0.5329922126617 -0.03173665639,0.9441847846942 -0.01026528931,1.4815584234278 -0.04668838343,1.3347947191528 0.381514087954,2.5758354648781 1.068850260586,3.699645637057 0.64209340937,1.1092702598189 1.573746611934,1.9424595607306 2.578311700742,2.7101690295846 1.143212511317,0.7873121219023 2.526560596876,0.9100152207906 3.870023603062,1.025971695656 1.540130728866,0.1678270799483 3.007083265539,-0.2209783950614 4.433761330586,-0.745160036447 1.13399964996,-0.7908273386416 2.432144937262,-1.277101510044 3.435032597266,-2.2467213170493 1.050974978571,-0.8622233934349 2.148259728099,-1.7625384864531 2.993082227793,-2.8391090363945 1.085444566273,-0.9067295755268 1.716508503826,-2.2095869864979 2.494580362045,-3.3814388079767 0.111378944207,-0.2338023973055 0.196341294789,-0.4821328889255 0.33413683262,-0.7014071919164 0.810006637263,-1.2889651116391 0.281715645009,-0.054846963526 0.939505966669,-1.3700997880499 0.117083761199,-0.2341091721032 0.416585755007,-0.9601966212109 0.301776099129,-0.7249638545385 -3.461605992797,7.0924622897858 -8.22930734862,17.2283501915244 0.631870681425,-1.4945437509886 2.00549746185,-4.6331558777709 -4.894886854932,10.6136454530186 -3.707835717164,7.9435260572619 1.512349931227,-3.4018373396548 3.116172557244,-6.7622682437915 4.672533979101,-10.1441964991666 0.108529027826,-0.2358304315313 0.431224639605,-0.9446413730642 0.322133228937,-0.7090705632513 -4.27985659776,9.2418759501635 -5.390016505891,11.532854663688 -3.689177648152,8.0083284033551 0.392684127253,-0.9942830755316 0.647363059158,-2.0305496166037 1.002957549878,-3.0419217556063 -2.664339464853,-3.1197521554709 6.159652154167,-10.6556421673907 8.823991619019,-7.5358900119198 v 0 c -0.270876795291,1.0743575327283 -0.740455028814,2.0685853132982 -0.906486759948,3.1617382514471 -1.070805501309,4.4516683083357 -0.100157173786,0.6519680410904 -4.827091767833,10.988993887504 -0.109759360048,0.2400256062633 -0.451349587929,0.954341759776 -0.341696403475,0.7142676297261 1.32714808832,-2.9056513436976 5.28118252739,-11.6347794847162 3.994228694377,-8.7111034405626 -3.697743638634,8.4004602312669 -3.001920344982,7.0317175407874 -5.030883954381,10.931522657557 1.351555953803,-2.8824398135023 5.567429531876,-11.4485182737019 4.05466786141,-8.6473194405069 -2.333597500415,4.3211503324892 -3.737814870246,9.0672915056078 -6.795408579979,12.9124721532905 -0.920254441852,1.2191863888654 -1.941628678164,2.3007518146977 -3.07642094086,3.3199069157979 -1.173111083714,0.9629041137252 -2.275788841127,2.0069887119962 -3.585603891252,2.7942132557195 -1.463025606269,0.8010374996506 -2.920209040517,1.6647258677514 -4.541897070958,2.1059589490737 -1.911214902325,0.480537532414 -3.890066065444,0.6855956214913 -5.851314773851,0.3949258211702 -1.912701224055,-0.3008765610773 -3.803031127085,-0.7539434702876 -5.440256254784,-1.8409836952391 -1.365496914269,-0.9685963677688 -2.634085208014,-2.0289235781017 -3.658450465299,-3.3639124050153 -1.009524871816,-1.4848863224073 -2.013310514308,-2.9373899760212 -2.422480629037,-4.7248736625889 -0.862344125059,-6.8093150224047 -0.324225654064,-5.1973376163442 4.28295545913,-14.7408643950919 0.924327167806,-1.2649943061499 1.919477373739,-2.4727136879127 2.949593801504,-3.6494016671039 1.396935747121,-1.0697086979172 2.859895155138,-2.053414267532 4.638726547133,-2.3291219063575 2.197787056589,-0.2584940976997 4.291253830805,0.086001165991 6.21939073963,1.2275147593974 1.952831361331,1.2319416476271 3.611990092901,2.8205771298437 4.975853129332,4.6886451174167 1.113482380402,1.5905082361846 2.133208077673,3.2810511741723 2.697360384379,5.1500700525602 0.703662856014,1.9724906266005 1.304776184775,3.9874325815431 1.528707985534,6.0799852121579 0.279762821723,2.1141264669118 0.741188062462,4.222145007432 0.502791843021,6.3633850560559 -0.137974108974,2.1020311826175 -0.348931430004,4.2064054966878 -0.904662798598,6.2457828978872 -0.289381493823,1.0109604264976 -0.414453528499,2.0283105079092 -0.66734353576,3.0473472837377 -0.977501525006,3.9389061402529 -3.864627532801,8.786551072236 -5.084464472155,11.3959871377076 -0.138109354072,0.2954391016274 -0.30644474912,0.575782460263 -0.459667123681,0.8636736903948 -1.183889733296,1.727330198462 -2.559098949741,3.2706107045525 -4.049376186793,4.7402953288477 -1.788499751582,1.7154013726064 -3.608099558101,3.4056989530224 -5.761075295003,4.6665591518218 -1.748263385499,1.0143248565142 -3.521682927533,1.9935926232224 -5.558708537301,2.2686481415579 -2.119250831465,0.2167950707968 -4.205166372055,0.090426767171 -6.14712756598,-0.8817653962408 -1.884084587721,-1.0134370612232 -3.423498501717,-2.3231372092342 -4.493546422012,-4.2076536196663 -1.30475472745,-1.8100203311303 -2.287425263779,-3.8247048732959 -3.043652358615,-5.9225571106458 -0.799487677234,-2.0753279373325 -1.42229987698,-4.2710151819765 -1.340548797281,-6.5145987888272 0.05383195501,-2.1107080688835 0.144195374875,-4.2281509453957 0.536209589818,-6.308162167531 0.421311925887,-2.0329421061207 1.123812892194,-3.9682946208492 1.621120545223,-5.9800746131373 0.607331248095,-1.8500981314538 0.905488845665,-3.8051566901429 1.532143357083,-5.6518907626112 1.561686200462,-5.3967813240365 4.072264950559,-10.4972261945429 6.548089728366,-15.5175899523541 -1.321995969279,2.8372860761815 -5.377370250167,11.3057561337362 -3.965987907836,8.5118582285443 2.21170467848,-4.3781737115266 3.650981234844,-9.8122943921567 7.223299243223,-13.4970695211867 2.135374149163,-1.4333249841518 4.455987608236,-0.6927310924711 5.855952567823,1.4734196878451 -1.497817180126,3.3022469877508 -2.945406569603,6.627739859007 -4.49345154038,9.9067409632522 -0.556697122,1.1791714790103 -1.682601161273,2.1310013155114 -2.135825823028,3.3879898738033 -0.12010256857,0.2172054685348 -0.465410490704,0.8764635695291 -0.36030770571,0.6516164056045 1.358755895501,-2.9067965190955 5.348719259901,-11.6638054063635 4.121936251673,-8.6988961265198 -1.416680423721,3.4238564658043 -2.998342304046,6.7817204633478 -4.692250307212,10.0772404827366 -1.460165041947,2.8407700526557 5.284383613442,-11.6320022349282 3.990401844813,-8.7117851840489 -3.964727167344,8.9474706343268 -2.954036555621,7.0106490063974 -5.042916127438,10.9382920668322 -0.726883236076,1.6084381136735 -1.946604485848,2.9605737646707 -3.050010473549,4.3193243621009 -1.216809579209,1.2995924302226 -2.549354801965,2.4304974083472 -4.04238809575,3.404439119474 -1.48873396443,0.9583838526701 -2.928594070196,1.9752798863109 -4.393821735906,2.9694700917013 -1.788935318607,1.113704851654 -3.611992478625,2.1674474684021 -5.614682665558,2.8603731979115 -2.129935459139,0.7305080271992 -4.295614433849,1.3660870451411 -6.562019437817,1.4700229054779 -2.066226879863,0.092056437846 -4.132280680925,-0.075357939237 -6.109805705483,-0.7234910986482 -1.753851973877,-0.6577114100896 -3.287533300641,-1.586824799697 -4.64490174272,-2.8893307527326 -1.333678240828,-1.4027769060931 -2.493549313268,-3.007234313474 -3.256678960364,-4.7925891939308 -0.890890306346,-1.9876927851126 -1.441678166331,-4.1833637486195 -1.330973830904,-6.3728606540246 0.328041742992,-5.3524446783829 2.170282020213,-10.2999906762424 5.684664565165,-14.6910117303552 0.98052719341,-1.3969252555561 1.927022228212,-2.8358881910938 3.2190022717,-3.9758055063269 1.241939990914,-1.0768677114343 2.568107033374,-2.0963112600402 4.120681340845,-2.6795697273753 1.71651530238,-0.6245239327725 3.506720216273,-0.8363714031979 5.304703297273,-0.4163136512027 1.872033748699,0.547238990506 3.481865196173,1.4909648827228 4.507391390866,3.2127430611679 1.186283198956,1.5932906895578 2.072243006549,3.4150192272019 2.572301501725,5.3401509270611 0.630686247137,2.0306442152072 1.270514361736,4.0678051345027 1.669497992543,6.158368676559 0.435830794907,2.066436236492 0.945108047736,4.1057647791031 1.110191525883,6.2197697877255 0.292587247015,2.1995103863012 0.300364593189,4.3624487408716 -0.12918781961,6.5555427291724 -0.423926812196,2.3229485606536 -1.127742141351,4.5666302111596 -1.717936111866,6.8493375248147 -1.901233399608,5.581206344393 -4.515472574982,10.9335288035036 -7.548436322158,15.9866125756662 -1.123959358637,1.8565367292325 -2.370129137988,3.6387158729081 -3.757523485355,5.3090479533049 -1.430577910375,1.4924741311066 -2.921433915313,2.9466915101245 -4.697361560053,4.0285222704591 -1.879312912097,1.1599661956174 -3.959403151262,1.8093844807644 -6.170493124994,1.9474041801913 -2.250449720923,0.048083531556 -4.444360245425,-0.2114017529816 -6.49194840817,-1.2218022164717 -1.862248894163,-0.9667733202485 -3.603940000839,-2.1829597860097 -4.87155347405,-3.8843213264843 -1.527713782952,-1.8108330169318 -2.815687982591,-3.8263339430871 -3.351395520947,-6.1653865413964 -0.599086993994,-2.1343152320725 -0.768307591571,-4.2853909757954 -0.500599789851,-6.4931085488806 0.213729981582,-2.1948516152327 0.567099621252,-4.3816428778568 1.469430884428,-6.4138214590229 0.155645258008,-0.3346993194025 0.312042395168,-0.6690500184504 0.466935774024,-1.0040979582078 1.628773946252,-3.5231806488629 3.244146644815,-7.0525778546937 4.88406491864,-10.5705850331517 0.318070383014,-0.6823351556926 0.663812988945,-1.3514373085366 0.991428318092,-2.0292412841459 0.16462767898,-0.3405985171646 0.665030283917,-1.3590889811711 0.506238258938,-1.0157309823064 -1.314777172132,2.8429592659809 -2.649581433094,5.6766137644678 -3.974372149641,8.5149206467016 1.638816826,-3.5085285599465 3.224214007568,-7.042508165158 4.916450478,-10.5255856798393 1.370184260337,-2.8202075014576 -2.623156831307,5.6959050904629 -3.950154515249,8.5366888564979 -0.154288073156,0.3302937592274 0.276534025545,-0.6749732719984 0.431827861297,-1.0047953474877 0.444061959971,-0.9431246035908 0.88626435186,-1.8819985668107 1.329440834504,-2.8262552736771 1.860509313588,-4.9806192883744 3.929219015669,-10.0932322340735 6.842127193304,-14.4983074067895 1.174320745768,-1.5817907134881 2.334515562383,-3.1793831884362 3.752838392592,-4.5598387983143 1.192502179479,-1.1759838028734 2.493317903907,-2.2321060007813 3.779340291382,-3.2992727464986 4.394204899721,-4.0467155694441 3.085716267817,-2.3667703059757 -1.307133878889,7.7432225270322 0.565694096492,0.2920645458699 1.128595023301,0.5896037948784 1.697082289476,0.8761936376097 0.156389157311,0.078840013955 0.400339606986,0.062528185209 0.477178536277,0.2199101894855 0.02278489752,0.046668178124 -1.70980139785,1.2875695655432 -1.892067848934,1.4041956537404 -1.354897427727,1.0150901916553 -2.752120043944,1.968385972083 -3.945993787853,3.1821647538558 -1.125275098532,1.3139401044486 -2.145080064667,2.702140332362 -3.177811420422,4.0883062892715 -1.128083531907,1.6514294187405 -2.438626569084,3.1699792587931 -3.598783916605,4.7985650033268 -1.405220093994,1.6935210142224 -2.738332932188,3.4363855059545 -4.106300545984,5.1586381334176 -1.322161638091,1.6863506535982 -2.607608871267,3.4020953125234 -3.973209213503,5.0525235085945 -1.485420486376,1.8045388109728 -2.948286923374,3.6400489721676 -4.597473182739,5.2976863314502 -1.668746051454,1.5920160180677 -3.448358446553,3.0293782385842 -5.498660599302,4.1116852240907 -2.0732705697026,0.9753551719756 -4.2622483001705,1.5932422713213 -6.5676219734843,1.6591402531485 -2.0453876825771,0.021878811771 -4.0987211545762,-0.078361764849 -6.1111042178638,-0.4704189045026 -1.8614818556198,-0.4204943069071 -3.6565671118163,-1.0324299964973 -5.3330724998505,-1.9595642778763 -1.9536109013405,-0.9553062976303 -3.7427801963464,-2.1953928470747 -5.3805168667957,-3.6265440466599 -1.5623792402415,-1.408656702548 -2.8930322483405,-3.0133795333934 -3.9311824806491,-4.8482118902053 -0.8281936115454,-1.7484560535972 -1.6203905046361,-3.4772449121078 -2.0839133407521,-5.3684543469847 -0.2499380414069,-2.0694714978824 -0.6142401756646,-4.1306543837038 -3.530396197e-4,-6.1786313892686 1.2506451366356,-4.8090138374381 3.6960660228631,-11.2757481560376 7.8345362056903,-14.8284713109282 1.7708967804267,-1.219327075602 3.7431642560481,-1.9649862497886 5.9118918526635,-2.0497654429953 2.0835103360988,-0.021460262036 4.1226914313961,0.3049056732034 6.0220409884918,1.2066180586687 1.7021333846526,0.888734396532 3.2175554801646,2.0543288531936 4.5220609932602,3.4684800381742 1.2786453601816,1.4173446666224 2.3790864579308,3.0181033579942 3.2077646652903,4.7385446369949 0.9824357106031,1.8688054218882 1.8278015743962,3.8089845687169 2.2573199296692,5.8865364144986 0.518749261162,1.9232505314925 0.930638225257,3.8618960582997 1.432692140123,5.7904046653414 0.257397384559,1.9269298336875 0.796808926737,3.8292964113646 0.793157977935,5.7747569691835 -0.03266437371,2.2634012074651 -0.102694849676,4.5321436468398 -0.449362115813,6.7732644549744 -0.391922955571,2.3156471192083 -1.000545352974,4.5757063605423 -1.669537778656,6.824577510956 -2.035425678838,5.4124584115528 -4.4683201233498,10.7490094141388 -7.6819922448195,15.5662810506258 -1.3297722817812,1.8813940071452 -2.8541954934359,3.6195629371582 -4.7364660264277,4.9715291454011 -2.0694247043195,1.3698888791766 -4.2286036608558,2.4540929944272 -6.7765978474494,2.4850004542503 -2.3094979467347,0.011633097104 -4.5734001579679,-0.3532666715411 -6.6742020058296,-1.3628444404457 -2.1153581550653,-1.124307194767 -3.9562071089455,-2.6112705121404 -5.4012029804541,-4.5410994858125 -1.6036382175645,-1.9675359106299 -2.8574017061637,-4.1794867861647 -3.5081316476527,-6.6502746378618 -0.8434767536903,-2.5760258606432 -1.5754943316094,-5.1735941190847 -1.718196747418,-7.900364966566 -0.2783659739342,-2.9366943989958 -0.1388973657246,-5.8923960071052 -0.072256974064,-8.8378261030264 0.1637283231513,-3.0963188368995 0.4008697781444,-6.2033682030201 1.1680001859768,-9.2192425539721 1.650079818869,-6.2177830143155 4.042110121273,-11.9637431426745 7.1590882638875,-17.6994142414591 1.1325699677453,-2.2476983561032 2.4962801844051,-4.4159362503428 4.3684065855533,-6.1257169110828 2.0928917151492,-1.6843864252439 4.2825664257764,-3.2600109938604 6.841372196301,-4.1644568082706 2.4780108554895,-0.9079979763037 4.9960353869548,-1.7869337883799 7.6399152673442,-2.0464088830743 3.9460674166344,0.9320201526514 1.3099163360653,12.0931842699372 -2.6361510805659,11.1611641172855 z"
         inkscape:connector-curvature="0"
         transform="scale(0.2645833333333333)" />
      <path
         style="opacity:1;vector-effect:none;fill:#f2f2f2;fill-opacity:1;stroke:none;stroke-width:1.8897638321;stroke-linecap:round;stroke-linejoin:round;stroke-miterlimit:4;stroke-dasharray:none;stroke-dashoffset:0;stroke-opacity:1;paint-order:stroke markers fill"
         id="path7769"
         d="m 1100.090853438759,580.360652390074 c 2.356540987827,0.6827272141977 4.738217834963,1.2297375636591 7.151358496713,1.6716374730543 2.625587270183,0.3659695779563 5.228343373297,0.8606648025703 7.855364419894,1.2172301869452 2.329129585179,0.3378571397858 4.676192339076,0.4465951073265 7.025596281912,0.5004665740943 2.325968473662,0.220502471289 4.638096285601,0.5573471090637 6.96317083939,0.7874583752548 2.083749270276,0.3661086599087 4.160010456646,0.7598091770429 6.261128716132,1.0141459440233 1.948577501509,0.2176443583098 3.909855348605,0.2653837259538 5.868545061678,0.295432901788 1.682860635362,-0.1188481369926 3.308649144362,-0.4902765414116 4.925704497674,-0.9404663482087 1.825085259075,-0.6642978496277 3.567684830253,-1.5325295089789 5.168115448323,-2.6338357467865 1.415017207961,-1.1188059321177 2.292374962038,-2.2249668064433 2.624391114889,-4.0075285548398 -1.333130973558,2.9054904571673 -2.683839772156,5.8029798402332 -3.999392920674,8.7164713715015 -0.09440813051,0.2090810918919 0.246103489798,-0.389699780854 0.335024447608,-0.6011728556317 0.354240816674,-0.8424605015381 0.321268940418,-1.614251040337 0.08619373364,-2.4717013285847 -0.621726904802,-1.4387511449446 -1.756932680657,-2.4332012026393 -2.986683894099,-3.3461600826678 -1.449426649267,-1.0252856190452 -3.148165354801,-1.579922864458 -4.758190017206,-2.2868704237984 -1.547335867882,-0.7590074007699 -3.203294292041,-1.1396296572478 -4.900607962623,-1.3579976030599 -1.865300066308,-0.1905083570572 -3.742949161594,-0.1855196495252 -5.615732170218,-0.1847292139862 -1.656877720104,-0.070684781079 -3.246272540619,0.3075962997503 -4.787965580786,0.8632584172851 -1.246997750339,0.7874791204167 -2.470500899434,1.5446115752155 -3.530327784209,2.5775347898991 -1.551454296916,1.5915921977346 -3.078299942297,3.2069845995137 -4.6174711852,4.8104489524483 -1.615833129942,1.9008332706296 -3.191905788808,3.8287429333193 -4.494384246934,5.960322426405 -1.200487113708,1.8126038902561 -2.224673066399,3.7031352817887 -3.243408697703,5.6187136699342 -0.125396541458,0.2964941957678 -0.250793082919,0.5929883915354 -0.376189624377,0.8894825873033 0.20571486214,-0.690118416901 -1.147709038472,2.4455046491547 -0.860840534785,1.834100914195 7.375458059329,-15.7193367224321 4.436260133632,-10.2045941837173 3.266215529468,-6.7675184273369 -0.673946805551,1.7350997987237 -1.374187238088,3.4669705240841 -1.923832020338,5.2464913908407 -0.674614405119,1.8949930497357 -1.329063014659,3.7963849977034 -1.96667824614,5.7046631729876 -0.593425775518,2.0775752562431 -1.234600808777,4.1243717540219 -1.600162913459,6.2574707722395 -0.466043197221,2.4582963218792 -1.003759857216,4.8999188909079 -1.514444424431,7.3490621307267 -0.526279338989,2.5430393512504 -0.779634955646,5.1316573095742 -0.923244188579,7.721341541857 -0.125636145653,2.6149236050876 -0.138531732995,5.2342719931803 -0.122608249921,7.8517197012377 -0.08611081486,2.5272357466972 0.04560396072,5.0310614617765 0.32466844686,7.5408027045305 0.325763845791,2.4436648246759 0.933468207551,4.8272547936152 1.639538595905,7.1845618217475 0.672593718865,2.3019629796731 1.696205337248,4.4769006347948 2.920844654049,6.531986577173 1.237289605298,2.0327993058381 2.855605780498,3.740619131319 4.684476259736,5.2425076495873 1.792362857463,1.4573987838253 3.75587792958,2.6777509338232 5.764110013401,3.8105700819565 2.117121668543,0.966739657512 4.310767492771,1.7556301474715 6.540783702638,2.4164079299088 2.287241066781,0.7180758608596 4.660748431689,0.9637231468472 7.03832445518,1.1432172139127 2.358492451301,0.2726808091912 4.702694592565,-0.1067106429244 7.044565905925,-0.3592068036999 2.145878715271,-0.4026957858083 4.263615824598,-1.0111197259342 6.302327772099,-1.7931037427344 2.039755211905,-0.6631578321261 3.905070570255,-1.8141082649913 5.613390542814,-3.0936296740207 1.687921184515,-1.1725827540432 3.009523483707,-2.6093616917519 4.218444469516,-4.252032047106 0.897719936777,-1.8379386224043 1.949671476865,-3.609717520394 2.684502652868,-5.5247262697803 -7.6579325193,16.7685563231108 -3.400655337714,7.8176441066723 -2.175487737199,3.7297255975387 0.646199151276,-1.8677328969567 0.546870058555,-3.7726955252733 0.389300071562,-5.7060259963791 -0.06208504117,-1.6280140627863 -0.435461362485,-3.2301512107139 -0.996098083606,-4.7540213121163 -0.695212082281,-1.5936049238661 -1.859002761526,-2.9076849651017 -3.091580544181,-4.1080371898706 -1.262477096657,-1.0951707645479 -2.671497396431,-2.0374848899103 -4.218870500173,-2.675173353004 -1.412780137462,-0.752458277555 -2.915535981596,-1.1874055480672 -4.489096671355,-1.4243364392621 -1.54206125717,-0.2037930187911 -3.088098787668,0.1777022727165 -4.614306534232,0.3828377137917 -1.628067151177,0.179506171567 -3.310431111882,0.3661611415591 -4.831906840541,1.0060765059902 -1.538792934511,0.5072269331795 -2.769325737141,1.4323197978231 -3.922368121885,2.5390642256401 -1.530667476512,1.4736182744506 -2.627965190546,3.3194617631823 -3.989300627603,4.9346436497082 -1.22728282346,1.6717512049481 -2.376122778387,3.3958840166832 -3.149239224917,5.3265855304471 -4.136807527236,8.9861111552755 14.966867247173,-32.0915738893344 -1.309197946244,2.8979095699741 -1.324585853637,2.8475294406545 2.651413377861,-5.6940157031621 3.976213910772,-8.5414452715712 0.299011869618,-0.6426742877186 -0.577267053613,1.2954448752921 -0.833199262165,1.9564570105016 -0.80115873064,2.0348607453819 -1.619105994931,4.059269748984 -2.519379709066,6.0528523893174 -0.830895747632,2.0106161180812 -1.630555483089,4.029596454949 -2.353444787502,6.0819990058518 -2.065840035729,5.3495170145973 -4.672003480859,10.4690503660261 -7.108254797685,15.6557278401011 -0.997877447742,2.0277743506294 -1.958083316091,4.079170662928 -3.03742799566,6.0660235178854 -1.014634824586,2.0198715993554 -1.969323052477,4.0731534647117 -3.04548270858,6.0618213159604 -1.205634004152,2.1300937998235 -2.429476907565,4.217568847595 -4.114648836847,6.007793382765 -1.540373788931,1.8722634520096 -3.208061743755,3.6334397423757 -4.885445254409,5.3820648952317 -1.913899425665,1.7288857867228 -3.90675326161,3.3512838323875 -6.103555799835,4.7061058730999 -2.185454626524,1.3169902744628 -4.521971816152,2.1251866872485 -7.00660238231,2.645020819037 -2.469234333975,0.485599746789 -4.971859317092,0.1638821942365 -7.406102081163,-0.3424649517591 -2.254901060696,-0.5592010849884 -4.367406604071,-1.5227543157437 -6.309056966209,-2.7863569021943 -1.716414179091,-1.121776348103 -3.239560397497,-2.4895248882666 -4.602206662496,-4.0152237670032 -1.357577446264,-1.6053225899979 -2.381734080504,-3.4435699835146 -3.222551476317,-5.3608980009708 -0.812535730516,-1.978240551205 -1.194683825261,-4.0610246637772 -1.17680211032,-6.1914264073561 0.01145637662,-0.3276513570474 0.02291275323,-0.6553027140951 0.03436912985,-0.9829540711424 -2.750029286283,-3.0507626372885 5.878830508186,-10.8290200644592 8.628859794469,-7.778257427171 v 0 c -0.09982435468,0.2164333199885 -0.199648709367,0.4328666399764 -0.29947306405,0.6492999599648 -0.285255584226,1.7386530439054 -0.458785080923,3.3979020340863 0.09335312283,5.1216690335225 0.490565750697,1.69469781778 1.236490306035,3.2926806187755 2.242187486288,4.7463969191338 0.984034798687,1.3831800539631 2.343635339246,2.4694540748776 3.724685870647,3.4384255448432 1.528802218148,1.0520095045465 3.258885311996,1.728316076025 5.06338049091,2.1514255667353 1.987410271226,0.3489961978701 3.984538647436,0.4398216371943 5.940980654573,-0.1616618301899 2.07854492101,-0.6324487079492 4.025564167567,-1.5670692817946 5.764019715682,-2.8867943604412 1.897852764592,-1.4728303011658 3.756624631878,-3.0137795759722 5.364090835169,-4.8073321250761 1.601736889065,-1.7183742576934 3.164662212042,-3.474083005797 4.57231644737,-5.3575887636243 1.246174335889,-1.9282274464224 2.395399722669,-3.9184931242767 3.419276884422,-5.973892716417 0.985737821805,-2.0350739342703 2.031451920223,-4.0407892344296 3.04540760587,-6.0617818976281 0.976601293788,-2.0253470809064 2.010218089207,-4.0225303691249 2.967373190125,-6.0574558541915 -7.794364386624,16.7485991756042 -3.38815598157,7.4409761669942 -1.703612089565,3.5268435959491 0.908099361915,-1.9795992067227 1.467044649432,-4.0844163401115 2.365454762001,-6.067414301732 0.720442641511,-2.0772261913512 1.772762339162,-4.0079068846816 2.503465767708,-6.08074553649 0.286100305535,-0.6676183647095 0.471416651419,-1.3762328767774 0.769029309861,-2.0387993800507 1.581765353438,-3.5214387207559 3.27638164056,-6.9915688498886 4.850202501766,-10.5165653313346 1.278354841274,-2.8632206044553 -5.34129367551,11.3478840433614 -3.963723121436,8.5310555610914 1.693414049845,-3.4626588916054 3.261058777511,-6.9854682520821 4.911406279075,-10.4688589663016 0.152410693707,-0.3216934583179 0.330965108541,-0.6303371317401 0.496447662812,-0.9455056976103 1.176498227725,-1.8645669035891 2.443864678664,-3.669964270758 3.854657202668,-5.3662625111555 1.377577764611,-1.8037563148742 2.932884848356,-3.489573280593 4.827053158102,-4.7630150842712 1.596497060946,-0.996098872893 3.30741019023,-1.7690262142052 5.126875251566,-2.2660726045906 1.791093711712,-0.42130268835 3.593369581414,-0.7526681771989 5.430780605059,-0.8945042878386 1.870295889509,-0.2224053652313 3.765815459569,-0.4553305994373 5.631796014539,-0.054400671893 1.792365778017,0.3728432611397 3.530555375143,0.9134458940637 5.188383365884,1.7006998525841 1.934140446636,0.8146097564553 3.746381539225,1.8924913349852 5.381866780602,3.2116581152774 1.579857030454,1.4734113290548 3.114467198694,3.0227649929436 4.163475601428,4.934276376503 0.897374515458,1.7266062622151 1.523498659697,3.5213551533518 1.949444349834,5.4221880081494 0.225810436127,2.1473753396735 0.648636437284,4.331366240941 0.395062828098,6.4854522276604 -0.896743294539,5.6758443154023 -3.761911822208,10.6505434810787 -6.191390198892,15.8450993602321 -1.064521482035,1.9194639242595 -2.070785041901,3.9088130096914 -3.620634043069,5.4928091884998 -1.560000924361,1.6131799563185 -3.337922197306,2.9967703082664 -5.223109775749,4.2120936584805 -2.062859993838,1.2078006084238 -4.180272190124,2.2775857031659 -6.489689838869,2.9419054448197 -2.321973848676,0.7134022709154 -4.651788735916,1.4358024003807 -7.083339012293,1.666888597981 -2.560758922177,0.2777455784624 -5.126486899346,0.454426731657 -7.698809816422,0.1799112067073 -2.629742441768,-0.2364465826113 -5.248255841679,-0.632004700798 -7.774155322402,-1.4271283277265 -2.432544487396,-0.8037007190408 -4.874380142154,-1.6008151195712 -7.167659091631,-2.7591102725734 -2.200806276867,-1.1936457169603 -4.349493590309,-2.5028320145419 -6.317500739366,-4.0560055130458 -2.161634160852,-1.6907658994331 -4.195234182062,-3.5196646350215 -5.697865872247,-5.8473118936339 -1.48201374267,-2.2240147665045 -2.743014997157,-4.5830790198297 -3.676197353636,-7.0927053653189 -0.790725229116,-2.4712720249935 -1.557261573604,-4.949427063348 -2.019619033105,-7.5077421885089 -0.538069847129,-2.5933570064483 -0.818843833198,-5.2506593282275 -0.761138048506,-7.9007446185907 0.0027470596,-2.6575875616809 -0.02828358643,-5.3153862647063 0.02201359092,-7.9727859502033 0.07526396009,-2.7007158432757 0.163469307041,-5.4075816372989 0.572390424474,-8.0829974354542 0.406100376268,-2.5164763934473 1.058352741163,-4.9686143363774 1.536385343643,-7.4696457507781 0.522952820006,-2.1554695127103 0.633639168154,-4.4115171835472 1.508585892545,-6.4811888284345 0.448255101994,-2.0336095420088 1.184005818032,-3.9588266537793 1.81816933119,-5.9368081408603 0.719769150401,-1.7354320649671 1.199530143033,-3.5645890634045 1.875998899452,-5.3181550371804 0.514528482872,-1.1658307383956 0.293491137712,-0.5450010009272 0.641644282006,-1.8699936506198 1.934677597389,-4.4141005444898 3.854411443913,-8.9415136422812 6.197354278464,-13.1895180588156 1.089842752806,-1.9860139966366 2.345905225702,-3.8840596858781 3.617835664731,-5.7567033495667 1.586441757847,-2.0884039250038 3.246811667789,-4.1271672362046 5.12422940148,-5.9642632494885 1.606583343747,-1.5888447098105 3.204868977682,-3.2116716776713 5.058621669789,-4.516671271643 1.496153135995,-0.9519616253692 3.053669976705,-1.8610551681166 4.771518024996,-2.3453542935348 1.906252563286,-0.506440908891 3.875287632306,-0.7554112731269 5.850144619425,-0.6934121696545 2.032829817273,0.028904522905 4.072127983695,0.076937675712 6.085452118414,0.3866977001219 1.966121347036,0.3429539068559 3.892936242753,0.8486954436047 5.716602226499,1.6775058368777 1.886612725254,0.774110626219 3.792192421996,1.5347084019655 5.484579455407,2.6953856864367 1.618203280665,1.2081027865609 3.293010187328,2.4364540596849 4.338179622942,4.2062997952899 3.56622158278,5.4485672309119 0.231923868392,9.1884346520534 -2.957630140866,15.362807676591 -1.268129392046,1.6567973588542 -2.890826818537,2.9856013960102 -4.708179015374,4.0103661276522 -1.963553911051,1.0046420642769 -3.979100500707,1.9062236513491 -6.150728337263,2.3627909182544 -1.913374872778,0.4198825810164 -3.868769814404,0.6999967869867 -5.829393858056,0.7376333195249 -2.07839391961,-0.054762916316 -4.158279484326,-0.1424304706734 -6.222553000789,-0.4054311019609 -2.065921179808,-0.2736400492588 -4.111702927972,-0.6677307234813 -6.177296666976,-0.9403542802406 -2.255353301439,-0.215405861916 -4.503095030919,-0.5197929829262 -6.765656896552,-0.6493786917222 -2.471363994863,-0.098864760406 -4.943417969153,-0.2541748186903 -7.397329055915,-0.5725247740241 -2.691950446595,-0.3763230417565 -5.377171823648,-0.8042828846236 -8.068956208429,-1.180049626572 -2.627528730997,-0.5236214786843 -5.282973000707,-1.1505033069334 -7.635510122259,-2.4815191083959 -3.682027449822,-1.6748603668202 1.055193041855,-12.0892066799568 4.737220491669,-10.4143463131361 z"
         inkscape:connector-curvature="0"
         transform="scale(0.2645833333333333)" />
      <path
         style="opacity:1;vector-effect:none;fill:#f2f2f2;fill-opacity:1;stroke:none;stroke-width:1.8897638321;stroke-linecap:round;stroke-linejoin:round;stroke-miterlimit:4;stroke-dasharray:none;stroke-dashoffset:0;stroke-opacity:1;paint-order:stroke markers fill"
         id="path7771"
         d="m 1184.71791390139,627.1350407996668 c -1.057346307203,-0.881944543764 -2.338061823468,-1.7559830103357 -3.76731464854,-1.5006591584256 -1.255640324264,0.7626601651431 -1.741771450229,2.320530223888 -2.253657399295,3.6254672475192 -1.159823246414,3.9286367129118 -0.415959592194,1.2386404162323 3.732033467459,-7.6137642978449 0.14625312868,-0.3121248920047 -0.301369903728,0.6201262595783 -0.442999881427,0.9343759616856 -0.438083920015,0.9720240276746 -0.76820416382,1.9366977407623 -1.052687107068,2.9627751293964 -0.710752030393,1.9936984077532 -1.078808348573,4.0689067119274 -1.522705245563,6.1286394275212 -0.491311923776,1.9521291354274 -0.8410117718,3.9304760030767 -1.06956107468,5.9292311167661 -0.283467256977,1.8896892763363 -0.179174597393,3.7628601285681 -0.02715696663,5.6540144244472 0.204417893723,1.5237207217195 0.741955148149,2.9127803579142 1.672676852453,4.1335017821908 0.78876136319,0.9671612839936 1.274281931793,-0.086191363401 1.792968877946,-0.7523369640908 1.260634986016,-1.460163590742 2.137642259963,-3.2323007573343 2.785482706574,-5.0393930247394 -7.268030435733,16.8492021793453 -3.496686315325,7.7734951850662 -2.370875381417,3.6140097868106 0.513302531503,-1.9440071032641 0.700963944954,-3.9460904804009 0.817868869857,-5.946492567928 0.0035278603,-2.0675858662208 0.360954509526,-4.1124229404096 0.609349298551,-6.1599275954727 0.232833598072,-1.7974952315044 0.298767203896,-3.6076517593308 0.408107175951,-5.4137682594784 3.842667958512,-4.1677418422468 5.5452091093,-11.506806523715 8.336497071115,-7.4344209886866 0.733120609453,1.0695957587367 0.833495587084,2.4484359890539 0.960054851522,3.6931966745385 0.128469308428,2.0579159544409 0.03282010439,4.1110763503366 0.21161988443,6.1657910230477 0.234515094576,2.0936497282866 0.440607132358,4.1893533123368 0.580787142934,6.2914870472473 0.0060553624,2.0170378911824 0.312596404279,4.0049704179766 0.587449515674,5.997768485093 0.204922542883,1.9447161769896 0.674334694044,3.8474496226793 1.159664412543,5.737286207367 0.353802392009,0.7617846446183 0.677898810252,2.2205142235698 0.378222393089,0.4611712220277 -0.649437447929,0.5018927285088 0.647440450457,-2.869017503943 0.253092947711,-2.055772438237 -7.444905545175,15.3532928625041 -4.594360883925,10.3387201650844 -3.337470173325,6.8810035024117 0.596385493101,-2.097067314164 1.140733483927,-4.1950681123799 1.49323299832,-6.3477925730474 0.230156847077,-2.323841386782 0.61310183146,-4.6266366856452 0.924215253926,-6.9404449696879 0.283630868254,-2.3518619705078 0.664129911702,-4.7023553288043 1.14668433996,-7.0222240540578 0.388192064281,-2.0051978438364 0.953424041129,-3.9625991050292 1.439695855009,-5.9428330005504 1.623360803994,-4.9772764490713 3.842160277956,-9.7809754424292 6.840169535016,-14.0641474564732 1.308516377928,-1.5771302283017 2.640657335196,-3.1484698244229 4.347123456308,-4.3068585494752 1.505427269786,-1.2794743530574 3.3294519242,-2.1575837069685 5.176686405616,-2.8297875091337 1.876454171386,-0.6157141805852 3.799066850928,-0.9486350186653 5.730075594776,-0.4267812359745 5.429678793547,2.7045301944349 1.39521098994,4.1198076801993 -2.666120786014,11.4977391814392 -0.131067831059,0.2381015718281 -0.527354613632,0.1417967205092 -0.774547383215,0.2547872931759 -0.409509102009,0.1871845524713 -0.776815340707,0.4580655720514 -1.184165560745,0.6499028977912 -1.543821518012,1.0016888038615 -3.047722468222,2.0662997342331 -4.415995137816,3.2998152587841 -1.581048396231,1.4456187129609 -2.805411615426,3.2360638655517 -3.829993369323,5.1059214027666 -0.655265845632,0.8999316890347 -1.013961801645,1.9404697883978 -1.442173710684,2.9513004142598 -0.144669663014,0.3415050420623 -0.622364405127,1.3466731335354 -0.465298283739,1.0106891478118 1.293171410761,-2.7662546255749 5.628942589262,-12.0655963276862 3.538327926889,-7.5817816403545 -0.816358631126,1.98042785217 -1.483443603155,4.0117432125885 -2.197082884862,6.0298624308599 -0.586359197402,1.9725946699039 -1.194922546951,3.9441269547176 -1.693728527559,5.9424277270648 -0.464769961526,1.7483838788384 -0.644523117532,3.475326499114 -0.490476899822,5.2715360071782 0.123124231658,1.7350459837847 0.66485764131,3.4121736381223 1.356072447996,4.9978111889388 0.694439918363,1.6502040960604 1.764021388624,3.0205774911018 3.145398671952,4.1421492203525 1.260771944713,0.8850626164804 2.696654661946,1.2679080845852 4.123142084342,0.5898757254821 1.47152346492,-1.0202443556326 2.411616561611,-2.6328964027269 3.227093046586,-4.1909391011693 1.407489203598,-3.4258931302047 4.093232666226,-8.843642086037 -3.212071722962,6.5741653839538 -0.155003070149,0.3271331850801 0.340398045817,-0.6399718104847 0.482610434113,-0.9728647499583 0.04769623928,-0.1116480883751 0.77923097083,-2.1348986187303 0.819223602714,-2.2452349731542 0.792862818572,-2.3080902058567 1.406589834657,-4.6705295974299 2.067881781199,-7.017909883519 0.735262013753,-2.3281651198041 1.158738329999,-4.7296344806739 1.460751948872,-7.146959316657 0.133758867299,-2.2360738344879 0.447645285698,-4.4496570638837 0.754579288181,-6.666929158398 0.285085070522,-1.985609936776 0.41766922908,-3.987046202805 0.501650313888,-5.9897396132967 0.127169750372,-1.8208721339213 0.10504933068,-3.6041222312879 -0.15711769933,-5.4087376442399 -0.02534135803,-0.2512493666214 -0.05732373358,-0.5019173513067 -0.07602407408,-0.7537480998651 -0.120576926468,-1.6237660296208 0.47222942491,0.2424114135706 0.961633423146,-0.2626023085157 6.387395724754,-6.591124104065 7.510276341654,-11.9243773965135 6.599781989985,-7.8690560493141 -0.150960696041,1.735807418286 -0.114172612032,3.483119801635 -0.110551091096,5.2239978737573 -0.07684971086,2.0431272365535 0.05232666868,4.0605597533496 0.307756541598,6.085652890882 0.226969475665,2.1891839867228 0.589806091888,4.3568353437522 0.945532686227,6.5275258479293 0.261051781781,2.1834629866042 0.905316066485,4.2843620726347 1.532201629726,6.3827871591014 0.675443230003,2.0466312289556 1.352487063242,4.0911731225931 2.14628679582,6.0954150539582 0.795027056252,1.9116878245779 1.419954837711,3.8911548324813 2.201265572423,5.8064443375341 0.07944160582,0.3588309308269 1.299820806004,2.5333017706387 1.727872472734,1.640901779283 0.403900645482,-1.3927493856877 1.133121806558,-2.7100885643391 1.821804110511,-3.9876506137407 0.140062783604,-0.3173504401708 0.280125567209,-0.6347008803408 0.420188350813,-0.9520513205111 -0.235768826511,0.736472925932 1.279718170185,-2.6826763179103 0.961369523512,-2.0112546267159 -7.431215668736,15.6730033064989 -4.357753958353,9.9059807183486 -3.159376822659,6.4050290016211 0.88035596496,-2.5028895129858 1.54493886149,-5.0713756577964 2.255417732375,-7.6250770734761 0.722626009186,-2.7040207883971 1.518948744368,-5.387765340942 2.325077007357,-8.0679040847391 1.85418022337,-5.6427668132942 4.634339006652,-10.9114702815831 7.141709992282,-16.2816308779755 1.050766707919,-2.1493782753861 2.536615271888,-3.836316681986 4.320029349005,-5.3957068869684 1.872153289418,-1.4714290546145 3.99254069685,-2.1291481077202 6.348026396842,-1.9173811309214 6.525167581449,1.6004159066141 3.731919548386,8.3698115335278 -1.986941707984,12.7581458091154 -1.53437975352,0.8921269336258 -3.020384376636,1.8720358400441 -4.361964599178,3.0364390349433 -1.410906165987,1.3561585770118 -2.794569627299,2.757215841581 -3.846280785183,4.4194850909139 -1.18465867452,1.6709288939902 -1.796431688804,3.6491755805165 -2.676710580479,5.4822403024064 7.457067788611,-16.9452842046275 3.464396216716,-7.4141688413863 1.915114511158,-3.4302277480487 -0.817718287943,2.1608186622343 -1.453510374725,4.3879975337843 -2.088864820104,6.6086453607402 -0.570340569623,1.9685933243286 -0.825878600239,3.9998664047396 -0.981664544519,6.0369981326961 -0.211311704723,1.8350698239656 0.09231236543,3.660911147853 0.682205189091,5.3967027652948 0.444985667759,1.2247773860665 0.985409646649,2.4640173079449 2.15650689508,3.1219268906409 1.276603300269,0.4966439449971 2.605912034984,0.527710078464 3.880918620821,0.046226301647 1.586541988055,-0.9174243986836 2.937377696133,-2.2290078251519 4.137454876322,-3.6006764060452 1.381185487914,-1.4926937972393 2.044476744711,-3.4451210800542 2.936517400241,-5.2355440857957 1.63416831705,-4.0021124022245 0.123779609632,-0.2594345484667 -3.58716025047,7.6028286322343 -0.153773385535,0.3257953167772 0.270160002609,-0.6679757448644 0.409049239114,-1.0003890756982 0.433832131557,-1.0383208051418 0.826848232369,-2.0641700447933 1.174702766674,-3.1350012716206 0.599632483909,-2.2261855461901 1.236548125085,-4.434110836646 1.633637601395,-6.7073247603246 0.24440260482,-2.3016317458688 0.617087676844,-4.5843292927941 0.960977848969,-6.8728072102905 0.311795975692,-2.0311327641354 0.45258688297,-4.0811574198268 0.540227534627,-6.1323549617839 0.08695019203,-1.9671313857252 0.03207793746,-3.93694703917 0.09714125982,-5.9042264526255 0.2687703878,-4.4449829253952 2.492153405336,-4.0180653745324 8.114781910238,-8.6969075670149 0.0035763999,-0.00297608332 0.009534942,0.5348321298733 0.02299729181,1.6625315751686 0.03814724113,2.0082949921974 -0.03758805918,4.0181417734136 0.107222860073,6.0223582584599 0.147249589356,2.3675436308166 0.720833792605,4.6710748262366 1.154769350432,6.9951458969213 0.426891855164,2.4262245728347 1.272683014614,4.7384755443005 2.042499978768,7.0686742839954 0.639580593253,2.3318145116408 1.760331549178,4.4705484006749 2.894046571478,6.5903734838425 0.892006412243,1.7649588747244 1.97993854877,3.4100981754675 3.192622911769,4.9676782761948 0.833316351461,1.0327501396361 1.911324251536,1.5198358768041 3.219115522054,1.4620023311594 1.131649870277,-0.3660553107823 1.887790026081,-1.1613995241609 2.593324602614,-2.0814822313636 0.880641021494,-1.555007954413 1.750853505787,-3.1054468334988 2.346606958924,-4.7961159338031 1.753406608429,-3.9094467949677 0.308045304293,-0.6752538266709 -3.538353084663,7.5816247111634 -0.145247352589,0.3117955102381 0.291607224946,-0.6232037917362 0.427241792365,-0.9392995015446 0.413733939703,-0.9642049650772 0.712731017926,-1.9191244519394 0.965893649172,-2.9355959558758 0.585096567944,-1.9492166434492 1.041405115874,-3.9262227303262 1.342933305292,-5.938151643511 0.267426811859,-1.974558956256 0.318500106495,-3.9684132207518 0.350034591132,-5.9579421990701 -0.04698494323,-1.9227181024606 0.101866546154,-3.855427814002 -0.02026737533,-5.7738705816774 -0.0054740677,-0.8164131975127 -0.08265543436,-0.4771461016963 0.11741917568,-1.0371812127901 -3.011121685114,-2.676430849065 4.558967925889,-11.1931690991554 7.570089611004,-8.5167382500904 v 0 c 0.357833182226,0.7446791544126 0.261507728204,0.3632168881461 0.316344693579,1.1371255506533 0.08653125139,1.9417816365047 0.393048842579,3.8799120097913 0.249414357055,5.8426023360761 0.0077587071,2.0683917928889 0.01591139565,4.1383836804192 -0.0963680963,6.2045273162381 -0.142906853477,2.133990155646 -0.367963994284,4.2690828170101 -0.951621329308,6.3347120020511 -0.309451384257,1.0548404372843 -0.463364821811,2.1232683303098 -0.749236942745,3.1835616920804 -1.057141345844,3.9209138260519 -4.151580148504,9.4414925488747 -5.141161369488,11.5917736594339 -0.147648665635,0.3208287808847 -0.30922777395,0.6350615121769 -0.463841660926,0.9525922682651 -1.028895907529,1.7084277980802 -2.112746054831,3.4450612078622 -3.783773453821,4.5989637696752 -1.597771622068,0.9966270356342 -3.30927404791,1.6484204313338 -5.227337691507,1.532394401133 -2.170231712713,-0.2679574834777 -4.13523620574,-1.02269752508 -5.742472584887,-2.5593603766955 -1.526453576582,-1.5971944644833 -2.783656697113,-3.3913552270541 -3.943228751503,-5.2689807925201 -1.233412240678,-2.2756940629058 -2.611478409,-4.4992765892684 -3.435626327237,-6.9680085315989 -0.746624044492,-2.434573571938 -1.695335937748,-4.809132398319 -2.291375487033,-7.2868213192371 -0.600354884828,-2.4087934539274 -0.9940528785,-4.8844997925522 -1.429077075697,-7.3240359860329 -0.253371299568,-2.126068132974 -0.359379338297,-4.2378740093063 -0.249028629138,-6.3809620319955 0.0039010071,-0.2217554735911 0.02877001151,-1.7333754736862 0.03623042377,-1.7424515851776 4.769196084384,-5.802059436793 7.693126630715,-12.9311646837208 8.146736177646,-7.8323438169898 0.08311174001,1.9689082188722 0.03158387478,3.941373805489 0.04152602605,5.9115503907847 -0.02168876823,2.1179682190024 -0.06151999803,4.2380428951412 -0.260464943182,6.3482105348232 -0.235709351541,2.2963703558588 -0.68542315648,4.5591993506229 -0.899565847949,6.8531077933776 -0.230689892802,2.3833581634564 -0.587152443173,4.7532500452883 -1.350811453436,7.0328966732387 -1.158132922823,5.7091183668668 -3.960238960424,10.9394811201118 -6.650466327774,16.0700696726142 -1.066764624265,1.9631576177275 -2.36180255808,3.7559774699181 -4.094571478138,5.1937108775635 -1.812189005262,1.4835886194046 -3.690693210634,2.8527056086283 -6.087203786056,3.1651593908132 -2.123136422946,0.1907904065031 -4.194438743372,0.036399273728 -6.141802584852,-0.9205682490256 -1.886790551536,-1.0307971966331 -3.260000294249,-2.3846141132148 -4.24686984599,-4.3133599131268 -0.914370654958,-2.038974501127 -1.685462429332,-4.0991579479842 -1.817527173134,-6.3608299971409 0.03885994237,-2.1659114713085 0.113868050881,-4.3383886987551 0.488270933691,-6.4771728225048 0.448546081119,-2.3378433777756 1.180407345223,-4.5920085798141 1.784632512211,-6.8909413003519 1.86117798039,-5.4531113216244 4.286968407484,-10.6902541345157 6.833888065348,-15.8571192028191 0.918323073326,-1.9585583118352 2.003320541605,-3.8183152371643 3.450257177461,-5.4408406977445 1.461123459945,-1.5725701128013 2.967694147761,-3.1242570055923 4.751579984152,-4.3358487429316 1.380887992658,-0.9239414604039 2.886260184446,-1.7276810760604 4.104904402152,-2.8580808363583 2.862145831434,-2.9197249903716 -1.224293605645,1.1497196803863 -3.592865525924,8.8828639116069 -0.116268257613,0.379603928397 2.409157251298,0.745972952032 1.127540422392,0.8829296216541 -1.506427226559,0.4174284723548 -2.712948053529,1.3965914035601 -3.715202879415,2.5797573577491 -1.34172833506,1.6407956391221 -2.268870766847,3.5562916883177 -3.167686797558,5.4660648049909 7.83984932001,-16.9196786532706 3.155492201716,-7.1501305803259 1.629397828186,-3.1339914323005 -1.003520251158,2.5555630430973 -1.589667791799,5.2334353556843 -2.43143560686,7.8428043347383 -0.694134940565,2.6319924633931 -1.392247950334,5.2584377456243 -2.202566195381,7.8570478427732 -0.260466404535,0.7921901785799 -0.358587621364,1.6402387669241 -0.695159528467,2.4032114913894 -1.980188776879,4.4888773963662 -3.900058046022,9.3080494882679 -6.616905682364,13.5037358120313 -1.251386677537,1.7827274420448 -2.698307528391,3.2515796564605 -5.020179658248,3.289159962073 -2.347932723789,-0.2624617772947 -4.225283695776,-1.2481852572912 -5.527668820092,-3.2902443439466 -1.044139771165,-1.8799159263225 -1.69088770037,-3.9174681101787 -2.447551066864,-5.9256959621057 -0.813981731171,-2.0491601604447 -1.653116505905,-4.0853368746823 -2.298706114251,-6.1965714347989 -0.824117533439,-2.2018863842386 -1.49540792471,-4.4675719832143 -2.017326520044,-6.7595098432753 -0.318061832135,-2.2141425566092 -0.777767959514,-4.4053425123675 -0.963904303037,-6.6362066799986 -0.280530640531,-2.1300535137533 -0.741963393616,-4.2460786659251 -0.621953223713,-6.405203794003 1.8702827e-5,-1.8750313122839 0.0080044689,-3.7501507396835 0.06356549056,-5.6245169595976 0.006556098,-5.1386345455144 7.050808846935,-14.3302300629306 8.565248849653,-7.7495813043107 0.299804580597,1.9242447773945 0.833117528726,3.8165873190595 0.655525118578,5.7814462482831 -0.02541403174,2.0686824695636 -0.06794076926,4.1391677232981 -0.257345758843,6.2005833751107 -0.217363982536,2.1831769731092 -0.646986518472,4.3417395159174 -0.760550546597,6.5293081172923 -0.140420295435,2.5532341338185 -0.362986892685,5.1151057954462 -1.003693946674,7.5990596757155 -0.646992238746,2.3900163623083 -1.321959379482,4.767853435908 -1.975596610967,7.1543814689687 -1.653841307233,5.6520857791435 -3.871815902688,11.2681632148633 -7.355871348088,16.0492745530154 -1.58683086983,1.8203288510507 -3.350106749829,3.3571907764092 -5.826115298352,3.7464566295085 -2.495784356313,0.2241511063743 -4.839925596516,-0.1885432675035 -6.953540405829,-1.6186635669563 -1.885428406292,-1.3591169057071 -3.486599591766,-3.0099971515372 -4.544622591618,-5.1050286308526 -0.927562646013,-1.8492265175258 -1.781554036321,-3.7110952671097 -2.209748498293,-5.7530472684562 -0.279460044774,-1.9888082428926 -0.736586983337,-3.9632186869738 -0.328001392807,-5.9714949931812 0.307747404403,-2.1184101467014 0.871483583446,-4.1525218469126 1.431430578961,-6.2107985982099 0.558648369986,-2.1004836901461 1.293977108272,-4.1559557519889 2.038144489534,-6.195413607519 1.688004751676,-5.5271494901921 4.406940633645,-10.8020660161689 7.590771981833,-15.6252011279721 1.438411627756,-1.8717915981631 2.993528080707,-3.6428109605213 4.952302988686,-4.9946291700287 1.610882380942,-1.1289949180887 3.262337095193,-2.2149095823162 5.07935275882,-2.9876292974969 0.375780315289,-0.2071319797114 0.789004582298,-0.3473178993564 1.148006123249,-0.5823336349412 0.09918555649,-0.064930547247 0.281777880315,-0.375604715034 0.235587410579,-0.2664250874168 -11.507186805173,27.1993417152515 -5.487381971687,4.1226154208442 -2.436041399488,10.5930599814642 -1.385698659493,0.2572371713305 -2.790042750152,0.4811056029415 -4.057898585044,1.1415161494961 -1.527772607741,0.8125000493766 -2.925148473595,1.7666042505037 -4.158968186385,2.9901431337903 -1.201302472548,1.3449275816891 -2.403341200838,2.7143300461012 -3.275799339847,4.3008285657602 -0.268966309725,0.4870420003936 -0.573177171042,0.9560286569251 -0.809117270192,1.4598987349489 -0.112044363467,0.2392802341162 -0.395733757481,0.9793188927545 -0.282592722749,0.740555252132 7.157319400385,-15.1042249276235 4.90800274342,-10.4180159592008 3.259474775635,-7.1788993792554 -0.883671083669,1.6927560759228 -1.202415978706,3.6567137189409 -1.615672268303,5.5047283939317 -0.545618332008,2.2223094533905 -0.930806269956,4.4612409968831 -1.368486225604,6.7089237433603 -0.228500495136,2.3385045751023 -0.677321968208,4.6408898804558 -0.90329228255,6.9740471310407 -0.211521649599,2.2901885971153 -0.492972893101,4.5837191915142 -1.248292322958,6.7694853200554 -0.889632861661,4.7650322833287 -2.427884309794,6.6176986457598 -5.198729615151,12.4469705059036 -0.441354733222,0.9285169120553 -1.30369968392,1.4462180319363 -2.226249511453,1.792049766582 -2.501078553652,0.4022903000684 -4.738538865739,-0.3626884438163 -6.019703939769,-2.6647493958062 -0.893274323224,-1.9870101031266 -1.295017014826,-4.1146886464119 -1.76113433211,-6.2338325775571 -0.231850090662,-2.061240551227 -0.671234377028,-4.1008261910994 -0.77671855187,-6.16880700226 -0.0768734533,-2.0544491813855 -0.200097122511,-4.107705027435 -0.461006029846,-6.1481856743056 -0.26059041619,-2.1211693577225 -0.538547730094,-4.2194469081444 -0.333698985597,-6.3624301695542 0.02336516517,-1.0064413614233 -0.214398113731,-2.4559534282986 0.423747352033,-3.2668499120094 2.339629337993,-2.9729854792512 4.655460325228,-5.9646224990663 6.983190487842,-8.9469337485996 -0.941069062925,1.3224689086189 -0.18085235634,3.3026772790488 -0.549139512557,4.8131285159154 -0.163461859079,2.0083291229173 -0.40034756944,4.0091186943795 -0.771465819791,5.9908213134036 -0.02294456338,2.1306143395609 -0.06800420073,4.2670979850525 -0.371150929605,6.3799210245674 -0.934453232313,5.7739087597172 -3.179987919202,10.7074437970472 -6.060729923391,16.0061197915896 -1.230300049603,1.9347633653936 -2.604753654675,3.7679857523128 -4.736760646988,4.7739857690933 -2.204830468661,0.7685585385528 -4.308410231586,0.5940859927343 -6.220970237748,-0.839148502806 -1.532736545227,-1.4233769972577 -2.717052446123,-3.1770124282624 -3.27510137014,-5.2133707956423 -0.646433178907,-2.0316970618886 -0.863270419058,-4.1990543393201 -0.731954559671,-6.3253294863997 0.102691764977,-2.1037557512104 0.264800573732,-4.2102026167788 0.720720082112,-6.2718371652535 0.482243350753,-2.0964755678995 0.799415028276,-4.2159796282928 1.348761443351,-6.2981268568788 1.740601936154,-5.5224518141357 2.51019224841,-10.68612630189 6.690858192323,-15.649905700972 1.535719165346,-1.8349918591621 3.318670763181,-3.043174739712 5.812470042633,-3.0110441454198 2.437354560348,0.2368224039035 4.741868650957,1.0375973037342 6.384930815878,2.9509032249006 3.411843621668,2.1784703155495 -2.749800909286,11.8286213604649 -6.161644530943,9.650151044916 z"
         inkscape:connector-curvature="0"
         transform="scale(0.2645833333333333)" />
    </g>
    <use
       x="0"
       y="0"
       xlink:href="#g5445"
       id="use5523"
       transform="translate(-226.5644598107725,4.233853132973309e-6)"
       width="100%"
       height="100%" />
  </g>
  <g
     inkscape:label="Layer 1"
     inkscape:groupmode="layer"
     id="layer1"
     transform="translate(108.0227032425933,39.16052747797852)"
     style="display:none"
     sodipodi:insensitive="true">
    <image
       sodipodi:absref="D:\deving-games\drim-tim\Drim-Tim-Fase-2\Art\fernet uv.png"
       xlink:href="fernet uv.png"
       transform="matrix(0.2645833333333333,0,0,0.2645833333333333,-108.0227079473866,-39.16053218277182)"
       width="1365.333374023438"
       height="1365.333374023438"
       preserveAspectRatio="none"
       id="image7593" />
  </g>
</svg>
