<?xml version="1.0" encoding="UTF-8" standalone="no"?>
<!-- Created with Inkscape (http://www.inkscape.org/) -->

<svg
   xmlns:dc="http://purl.org/dc/elements/1.1/"
   xmlns:cc="http://creativecommons.org/ns#"
   xmlns:rdf="http://www.w3.org/1999/02/22-rdf-syntax-ns#"
   xmlns:svg="http://www.w3.org/2000/svg"
   xmlns="http://www.w3.org/2000/svg"
   xmlns:xlink="http://www.w3.org/1999/xlink"
   xmlns:sodipodi="http://sodipodi.sourceforge.net/DTD/sodipodi-0.dtd"
   xmlns:inkscape="http://www.inkscape.org/namespaces/inkscape"
   width="361.2444458007812mm"
   height="361.2444458007812mm"
   viewBox="0 0 361.2444458007812 361.2444458007813"
   version="1.1"
   id="svg5604"
   inkscape:version="0.92.1 r15371"
   sodipodi:docname="rum.svg"
   inkscape:export-filename="../Assets/Textures/RUM label.png"
   inkscape:export-xdpi="96"
   inkscape:export-ydpi="96">
  <defs
     id="defs5598">
    <linearGradient
       inkscape:collect="always"
       id="linearGradient9033">
      <stop
         style="stop-color:#1b1111;stop-opacity:1"
         offset="0"
         id="stop9029" />
      <stop
         style="stop-color:#400e0e;stop-opacity:1"
         offset="1"
         id="stop9031" />
    </linearGradient>
    <linearGradient
       inkscape:collect="always"
       id="linearGradient8346">
      <stop
         style="stop-color:#8e2b2b;stop-opacity:1;"
         offset="0"
         id="stop8342" />
      <stop
         style="stop-color:#ceae0d;stop-opacity:1"
         offset="1"
         id="stop8344" />
    </linearGradient>
    <linearGradient
       inkscape:collect="always"
       xlink:href="#linearGradient8346"
       id="linearGradient8348"
       x1="897.439697265625"
       y1="789.4463500976562"
       x2="1109.08642578125"
       y2="122.9386291503906"
       gradientUnits="userSpaceOnUse"
       gradientTransform="matrix(0.8563305232566321,0,0,0.8563305232566321,77.94062297945299,99.77423157045592)" />
    <linearGradient
       inkscape:collect="always"
       xlink:href="#linearGradient8346"
       id="linearGradient8352"
       gradientUnits="userSpaceOnUse"
       x1="897.439697265625"
       y1="789.4463500976562"
       x2="1109.08642578125"
       y2="122.9386291503906" />
    <linearGradient
       inkscape:collect="always"
       xlink:href="#linearGradient9033"
       id="linearGradient9035"
       x1="660.8045043945312"
       y1="1074.413330078125"
       x2="660.8045043945312"
       y2="362.51171875"
       gradientUnits="userSpaceOnUse" />
  </defs>
  <sodipodi:namedview
     id="base"
     pagecolor="#ffffff"
     bordercolor="#666666"
     borderopacity="1.0"
     inkscape:pageopacity="0.0"
     inkscape:pageshadow="2"
     inkscape:zoom="0.2942338455328655"
     inkscape:cx="604.7012085580329"
     inkscape:cy="274.9323011695086"
     inkscape:document-units="mm"
     inkscape:current-layer="layer4"
     showgrid="false"
     inkscape:snap-global="false"
     inkscape:window-width="1920"
     inkscape:window-height="1013"
     inkscape:window-x="-9"
     inkscape:window-y="-9"
     inkscape:window-maximized="1" />
  <metadata
     id="metadata5601">
    <rdf:RDF>
      <cc:Work
         rdf:about="">
        <dc:format>image/svg+xml</dc:format>
        <dc:type
           rdf:resource="http://purl.org/dc/dcmitype/StillImage" />
        <dc:title />
      </cc:Work>
    </rdf:RDF>
  </metadata>
  <g
     inkscape:groupmode="layer"
     id="layer4"
     inkscape:label="Layer 2">
    <rect
       style="opacity:1;vector-effect:none;fill:url(#linearGradient9035);fill-opacity:1;stroke:none;stroke-width:7.5590553284;stroke-linecap:round;stroke-linejoin:round;stroke-miterlimit:4;stroke-dasharray:none;stroke-dashoffset:0;stroke-opacity:1;paint-order:stroke markers fill"
       id="rect6161"
       width="1345.556030273438"
       height="728.0419311523438"
       x="9.611114501953125"
       y="353.7635803222656"
       transform="matrix(0.2343452379043468,0,0,0.4689150212381595,20.6341476217172,-155.5664246307667)" />
    <text
       xml:space="preserve"
       style="font-style:normal;font-weight:normal;font-size:40px;line-height:1.25;font-family:sans-serif;text-align:center;letter-spacing:0px;word-spacing:0px;text-anchor:middle;fill:#e0aa00;fill-opacity:1;stroke:none;stroke-opacity:1;"
       x="540.0977783203125"
       y="740.9346313476562"
       id="text8461"
       transform="matrix(1.639989697101098,0,0,1.639989697101095,-703.8884626677523,-999.5027844511221)"><tspan
         sodipodi:role="line"
         id="tspan8459"
         x="540.0977783203125"
         y="740.9346313476562"
         style="-inkscape-font-specification:Stencil;font-family:Stencil;font-weight:normal;font-style:normal;font-stretch:normal;font-variant:normal;fill:#e0aa00;fill-opacity:1;stroke:none;stroke-opacity:1;">RUM</tspan></text>
    <path
       style="opacity:1;vector-effect:none;fill:none;fill-opacity:1;stroke:url(#linearGradient8348);stroke-width:6.4730496407;stroke-linecap:round;stroke-linejoin:round;stroke-miterlimit:4;stroke-dasharray:none;stroke-dashoffset:0;stroke-opacity:1;paint-order:stroke markers fill"
       d="M 442.9375 180.833984375 C 420.7734888763428 180.833984375 402.9296875000001 198.6758326263428 402.9296875 220.83984375 L 402.9296875 250.845703125 L 372.923828125 250.845703125 C 350.7598170013428 250.845703125 332.9179687500001 268.6895045013428 332.91796875 290.853515625 C 332.9179687500001 313.0175267486572 350.7598170013428 330.861328125 372.923828125 330.861328125 L 399.05078125 330.861328125 L 382.5625 604.462890625 L 330.490234375 604.462890625 C 308.3262232513427 604.462890625 290.482421875 622.3066920013428 290.482421875 644.470703125 C 290.482421875 662.7081749664464 302.5687192042882 678.0103664204181 319.197265625 682.86328125 C 302.5687192042882 687.7161960795819 290.482421875 703.0183875335534 290.482421875 721.255859375 C 290.482421875 743.4198704986574 308.3262232513428 761.2636718749999 330.490234375 761.263671875 L 373.11328125 761.263671875 L 352.482421875 1103.568359375 L 332.51171875 1103.568359375 C 310.3477076263428 1103.568359375 292.50390625 1121.412160751343 292.50390625 1143.576171875 C 292.50390625 1165.740182998658 310.3477076263428 1183.583984375 332.51171875 1183.583984375 L 362.517578125 1183.583984375 L 362.517578125 1213.58984375 C 362.517578125 1235.753854873657 380.3594263763428 1253.595703125 402.5234375 1253.595703125 C 424.6874486236572 1253.595703125 442.5312499999999 1235.753854873657 442.53125 1213.58984375 L 442.53125 1183.583984375 L 472.537109375 1183.583984375 C 492.0609313850025 1183.583984375 508.2234960287101 1169.735247853431 511.798828125 1151.287109375 L 860.046875 1151.287109375 C 863.6222070962898 1169.735247853431 879.7847717399973 1183.583984375 899.30859375 1183.583984375 L 929.314453125 1183.583984375 L 929.314453125 1213.58984375 C 929.314453125 1235.753854873657 947.1582545013426 1253.595703125 969.322265625 1253.595703125 C 991.4862767486574 1253.595703125 1009.330078125 1235.753854873657 1009.330078125 1213.58984375 L 1009.330078125 1183.583984375 L 1039.333984375 1183.583984375 C 1061.497995498657 1183.583984375 1079.341796875 1165.740182998657 1079.341796875 1143.576171875 C 1079.341796875 1121.412160751343 1061.497995498657 1103.568359375 1039.333984375 1103.568359375 L 1021.57421875 1103.568359375 L 1000.943359375 761.263671875 L 1054.490234375 761.263671875 C 1076.654245498657 761.263671875 1094.49609375 743.4198704986574 1094.49609375 721.255859375 C 1094.49609375 703.0183875335536 1082.411749545712 687.7161960795819 1065.783203125 682.86328125 C 1082.411749545712 678.0103664204181 1094.49609375 662.7081749664463 1094.49609375 644.470703125 C 1094.49609375 622.3066920013428 1076.654245498657 604.462890625 1054.490234375 604.462890625 L 991.494140625 604.462890625 L 975.005859375 330.861328125 L 994.880859375 330.861328125 C 1017.044870498657 330.861328125 1034.88671875 313.0175267486572 1034.88671875 290.853515625 C 1034.88671875 268.6895045013428 1017.044870498657 250.845703125 994.880859375 250.845703125 L 970.18359375 250.845703125 L 969.388671875 237.654296875 L 964.875 237.654296875 L 964.875 220.83984375 C 964.875 198.6758326263428 947.0311986236574 180.833984375 924.8671875 180.833984375 C 902.7031763763429 180.833984375 884.8593749999999 198.6758326263428 884.859375 220.83984375 L 884.859375 237.654296875 L 482.9453125 237.654296875 L 482.9453125 220.83984375 C 482.9453125 198.6758326263428 465.1015111236572 180.833984375 442.9375 180.833984375 z M 443.65234375 202.265625 A 16.43154525756836 16.43154525756836 0 0 1 460.083984375 218.697265625 A 16.43154525756836 16.43154525756836 0 0 1 443.65234375 235.12890625 A 16.43154525756836 16.43154525756836 0 0 1 427.220703125 218.697265625 A 16.43154525756836 16.43154525756836 0 0 1 443.65234375 202.265625 z M 932.3125 204.408203125 A 16.43154525756836 16.43154525756836 0 0 1 948.7421875 220.83984375 A 16.43154525756836 16.43154525756836 0 0 1 932.3125 237.271484375 A 16.43154525756836 16.43154525756836 0 0 1 915.880859375 220.83984375 A 16.43154525756836 16.43154525756836 0 0 1 932.3125 204.408203125 z M 989.46484375 270.849609375 A 16.43154525756836 16.43154525756836 0 0 1 1005.896484375 287.28125 A 16.43154525756836 16.43154525756836 0 0 1 989.46484375 303.712890625 A 16.43154525756836 16.43154525756836 0 0 1 973.033203125 287.28125 A 16.43154525756836 16.43154525756836 0 0 1 989.46484375 270.849609375 z M 372.923828125 273.70703125 A 16.43154525756836 16.43154525756836 0 0 1 389.35546875 290.138671875 A 16.43154525756836 16.43154525756836 0 0 1 372.923828125 306.5703125 A 16.43154525756836 16.43154525756836 0 0 1 356.4921875 290.138671875 A 16.43154525756836 16.43154525756836 0 0 1 372.923828125 273.70703125 z M 1035.90234375 621.626953125 A 16.43154525756836 16.43154525756836 0 0 1 1052.333984375 638.05859375 A 16.43154525756836 16.43154525756836 0 0 1 1035.90234375 654.490234375 A 16.43154525756836 16.43154525756836 0 0 1 1019.470703125 638.05859375 A 16.43154525756836 16.43154525756836 0 0 1 1035.90234375 621.626953125 z M 338.462890625 626.51171875 A 16.43154525756836 16.43154525756836 0 0 1 354.89453125 642.943359375 A 16.43154525756836 16.43154525756836 0 0 1 338.462890625 659.375 A 16.43154525756836 16.43154525756836 0 0 1 322.03125 642.943359375 A 16.43154525756836 16.43154525756836 0 0 1 338.462890625 626.51171875 z M 438.5859375 649.701171875 L 441.734375 649.701171875 L 495.60546875 649.701171875 L 495.60546875 791.94921875 C 495.60546875 795.0968367710115 496.2112526842266 797.3564770004573 497.421875 798.728515625 C 498.0675402350792 799.535597168849 498.6733241693059 800.0606099118451 499.23828125 800.302734375 C 499.8032383306942 800.4641506837694 501.6590226039888 800.9487778311509 504.806640625 801.755859375 C 508.6806320354751 802.643649073234 510.6171874999999 804.8629037070647 510.6171875 808.4140625 C 510.6171875 810.5124745140074 509.5691151390074 812.2067164048416 507.470703125 813.498046875 C 505.9372481916868 814.466544727619 503.3949087929352 814.9511718749999 499.84375 814.951171875 L 495.7265625 814.951171875 L 441.734375 814.951171875 L 438.5859375 814.951171875 C 435.6804439421437 814.951171875 433.4208037126978 814.426159132004 431.806640625 813.376953125 C 430.2731856916871 812.2470389636115 429.505859375 810.6739538596222 429.505859375 808.65625 C 429.505859375 805.3472156702192 431.1212831996042 803.1663935070034 434.349609375 802.1171875 C 437.0129784697016 801.229397801766 438.5456779780754 800.7063381837701 438.94921875 800.544921875 C 439.4334676763092 800.3027974118455 439.9180948236905 799.8181702644638 440.40234375 799.091796875 C 441.3708416026187 797.8004664048416 441.8554687500001 795.7427541534715 441.85546875 792.91796875 L 441.85546875 671.734375 C 441.85546875 668.9095895965287 441.3708416026187 666.8518773451584 440.40234375 665.560546875 C 439.9180948236905 664.8341734855361 439.4334676763091 664.3899319337701 438.94921875 664.228515625 C 438.5456779780755 663.9863911618455 437.0129784697017 663.420992823234 434.349609375 662.533203125 C 431.1212831996042 661.4839971179966 429.5058593749999 659.3051280797808 429.505859375 655.99609375 C 429.505859375 653.9783898903776 430.2731856916871 652.445690382004 431.806640625 651.396484375 C 433.4208037126979 650.2665702136115 435.6804439421435 649.701171875 438.5859375 649.701171875 z M 505.169921875 649.701171875 L 508.318359375 649.701171875 C 517.2769645117236 649.701171875 524.9039827079781 650.0242566399211 531.19921875 650.669921875 C 540.561364658648 651.557711573234 548.9133704509744 654.6231105899818 556.2578125 659.869140625 C 566.8305807244215 667.3749989827957 572.1171875 678.0693693207977 572.1171875 691.951171875 C 572.1171875 703.3310216432704 568.5671613358709 712.6522817303595 561.46484375 719.916015625 C 558.478642037759 722.9829254916258 554.9670483442451 725.4848792947627 550.931640625 727.421875 C 546.9769410601402 729.358870705238 540.9230079678746 731.5396928684532 532.771484375 733.9609375 C 540.1966345784103 735.0908516613885 545.8870973101399 736.3408520004567 549.841796875 737.712890625 C 553.8772045942447 739.0849292495428 557.5099550746041 740.940713522838 560.73828125 743.28125 C 564.1280237341658 745.7832027859318 566.7107487285324 748.769783736449 568.486328125 752.240234375 C 570.3426156758527 755.7106850135502 571.26953125 759.3838210895245 571.26953125 763.2578125 L 571.26953125 788.31640625 C 571.26953125 790.8990671903169 572.1176287579174 792.1914062500001 573.8125 792.19140625 C 574.4581652350793 792.19140625 574.9831779780756 792.0298638675395 575.38671875 791.70703125 C 575.8709676763095 791.3034904780756 576.515184081151 790.5765497570042 577.322265625 789.52734375 C 579.3399694846224 786.7832665009137 581.3996348609926 785.412109375 583.498046875 785.412109375 C 584.8700854995432 785.412109375 586.2412426254568 786.1370969710715 587.61328125 787.58984375 C 588.9853198745432 789.0425905289279 589.671875 790.4964719710723 589.671875 791.94921875 C 589.671875 794.4511715359318 588.4603071315469 797.5185236776796 586.0390625 801.150390625 C 583.6985260228381 804.7015494179359 580.7542837929356 807.8881052215287 577.203125 810.712890625 C 573.8940906702195 813.3762597197014 570.301725785475 815.2743827136118 566.427734375 816.404296875 C 562.553742964525 817.6149191907734 557.9940769100185 818.21875 552.748046875 818.21875 C 542.0945704961938 818.21875 533.7809971744824 815.1937365788672 527.80859375 809.140625 C 521.8361903255178 803.0068052667478 518.849609375 794.491303966961 518.849609375 783.595703125 L 518.849609375 763.2578125 C 518.849609375 758.7381558544457 518.809223779385 756.1150452644646 518.728515625 755.388671875 C 518.3249748530756 752.1603456996041 517.1961313008527 749.3756927271617 515.33984375 747.03515625 C 512.9993072728381 744.2103708465287 509.6492559617845 742.5545614263096 505.291015625 742.0703125 L 505.291015625 729.1171875 C 509.6492559617845 728.4715222649205 512.7569936991476 727.3426787126981 514.61328125 725.728515625 C 516.2274443376982 724.2757688460721 517.3159022943058 722.6199594258528 517.880859375 720.763671875 C 518.5265246100793 718.9073843241476 518.849609375 716.1631169473203 518.849609375 712.53125 L 518.849609375 680.451171875 C 518.849609375 675.3665581487512 517.8419226096224 671.5722652859318 515.82421875 669.0703125 C 513.8872230447623 666.5683597140682 510.3352437556335 664.5914186539279 505.169921875 663.138671875 L 505.169921875 649.701171875 z M 609.888671875 649.701171875 L 613.037109375 649.701171875 L 667.03125 649.701171875 L 670.177734375 649.701171875 L 674.537109375 650.185546875 C 675.9091479995432 650.5890876469244 677.037991551766 651.314075242996 677.92578125 652.36328125 C 678.813570948234 653.4124872570034 679.2578125 654.6644407210721 679.2578125 656.1171875 C 679.2578125 659.3455136753964 677.6443418003961 661.4839971179966 674.416015625 662.533203125 C 671.7526465302986 663.420992823234 670.1776083013095 663.9863911618455 669.693359375 664.228515625 C 669.2898186030756 664.3899319337701 668.8455770513095 664.8341734855361 668.361328125 665.560546875 C 667.3928302723813 666.8518773451584 666.91015625 668.9095895965287 666.91015625 671.734375 L 666.91015625 773.3046875 C 666.91015625 780.1648806227162 667.0697455074602 784.9668602509138 667.392578125 787.7109375 C 667.7961188969244 790.3743065947019 668.5634452136115 792.7954892066076 669.693359375 794.974609375 C 670.7425653820037 796.9923132346224 671.9137476548418 798.4461946767668 673.205078125 799.333984375 C 674.4964085951584 800.221774073234 676.9579768026797 801.2294608386115 680.58984375 802.359375 L 680.58984375 818.21875 L 677.92578125 818.21875 C 667.4337211799635 818.21875 658.7182450271011 817.2918344258524 651.77734375 815.435546875 C 643.6258201571254 813.2564267066076 636.4814759832522 810.0275321823993 630.34765625 805.75 C 624.2138365167478 801.4724678176002 619.8560984403166 796.6704881894034 617.2734375 791.34375 C 614.5293602509133 785.6941791930573 613.158203125 777.4613770625757 613.158203125 766.646484375 L 613.158203125 671.734375 C 613.158203125 668.9095895965287 612.6735759776187 666.8518773451584 611.705078125 665.560546875 C 611.2208291986908 664.8341734855361 610.7362020513095 664.3899319337701 610.251953125 664.228515625 C 609.8484123530756 663.9863911618455 608.3157128447016 663.420992823234 605.65234375 662.533203125 C 602.4240175746041 661.4839971179966 600.80859375 659.3455136753964 600.80859375 656.1171875 C 600.80859375 654.0187754859932 601.5759200666871 652.445690382004 603.109375 651.396484375 C 604.7235380876979 650.2665702136115 606.9831783171436 649.701171875 609.888671875 649.701171875 z M 712.1875 649.701171875 L 741.84765625 649.701171875 C 744.3496090359318 649.701171875 746.0034653311512 649.7819430662299 746.810546875 649.943359375 C 747.698336573234 650.0240675293844 748.546434081151 650.3067666986905 749.353515625 650.791015625 C 751.4519276390071 652.0016379407734 752.4999999999999 653.6554942359926 752.5 655.75390625 C 752.5 657.5294856464679 751.8538304701582 659.0217995592266 750.5625 660.232421875 C 750.1589592280756 660.6359626469244 748.4243317416262 661.7263737285326 745.357421875 663.501953125 C 741.8062630820644 665.438948830238 739.0216101096222 668.4255297807553 737.00390625 672.4609375 C 734.9862023903776 676.4156370648598 733.9785156250001 680.9349175237518 733.978515625 686.01953125 L 733.978515625 765.072265625 C 733.978515625 778.6312355616623 730.9919346744822 789.769847451431 725.01953125 798.486328125 C 720.6612909132155 804.9429804757916 714.4054298428746 810.1084304645251 706.25390625 813.982421875 C 702.2184985307553 815.919417580238 697.3761333069428 817.3309603017668 691.7265625 818.21875 L 691.7265625 802.359375 C 699.7973779384896 801.3101689929966 706.5378661562119 798.0024564025579 711.9453125 792.43359375 C 718.0791322332522 786.0576495535928 721.1445312500001 776.8959787239645 721.14453125 764.951171875 L 721.14453125 686.01953125 C 721.14453125 674.9625140992697 716.907949960414 667.254724711785 708.43359375 662.896484375 C 705.9316409640682 661.6051539048422 704.2777846688488 660.514742823234 703.470703125 659.626953125 C 702.7443297355361 658.658455272381 702.3808593749999 657.2872981464679 702.380859375 655.51171875 C 702.380859375 653.4133067359932 703.1481856916871 651.920992823234 704.681640625 651.033203125 C 706.2150955583132 650.145413426766 708.7170493614493 649.701171875 712.1875 649.701171875 z M 777.923828125 649.701171875 L 834.580078125 649.701171875 L 858.4296875 717.6171875 L 868.962890625 680.935546875 L 868.962890625 721.126953125 L 840.99609375 814.951171875 L 834.580078125 814.951171875 L 787.607421875 675.607421875 C 785.9932587873021 670.9263489206763 784.2990168964678 667.7801787126979 782.5234375 666.166015625 C 781.4742314929963 665.1168096179966 779.6588328153166 664.3494833013095 777.076171875 663.865234375 C 771.8301418399818 662.7353202136115 769.2070312500001 660.2333664104754 769.20703125 656.359375 C 769.20703125 654.2609629859926 769.9339719710719 652.6474922863885 771.38671875 651.517578125 C 772.9201736833129 650.3069558092266 775.0990427215287 649.701171875 777.923828125 649.701171875 z M 879.130859375 649.701171875 L 932.8828125 649.701171875 L 936.15234375 649.701171875 C 942.2054553288672 649.701171875 945.23046875 651.7992697219852 945.23046875 655.99609375 C 945.23046875 659.3051280797808 943.6169980503959 661.4839971179966 940.388671875 662.533203125 C 937.7253027802984 663.420992823234 936.1522176763093 663.9863911618455 935.66796875 664.228515625 C 935.2644279780756 664.3899319337701 934.8201864263096 664.8341734855361 934.3359375 665.560546875 C 933.3674396473813 666.8518773451584 932.8828125000001 668.9095895965287 932.8828125 671.734375 L 932.8828125 792.91796875 C 932.8828125 795.7427541534713 933.3674396473813 797.8004664048414 934.3359375 799.091796875 C 934.8201864263095 799.8181702644639 935.2644279780757 800.3027974118454 935.66796875 800.544921875 L 940.388671875 802.1171875 C 943.6169980503959 803.1663935070034 945.2304687500001 805.347215670219 945.23046875 808.65625 C 945.23046875 812.8530740280148 942.2054553288672 814.951171875 936.15234375 814.951171875 L 932.8828125 814.951171875 L 879.009765625 814.951171875 L 875.015625 814.951171875 C 871.4644662070644 814.951171875 868.7605844258525 814.426159132004 866.904296875 813.376953125 C 865.1287174785324 812.2470389636115 864.2402343750001 810.5931826683923 864.240234375 808.4140625 C 864.240234375 804.8629037070647 866.176789839525 802.6436490732339 870.05078125 801.755859375 C 873.1983992710111 800.948777831151 875.0561366693058 800.4641506837693 875.62109375 800.302734375 C 876.1860508306942 800.0606099118449 876.7514491693059 799.5759827644639 877.31640625 798.849609375 C 878.5270285657734 797.3968625960721 879.130859375 795.0968367710112 879.130859375 791.94921875 L 879.130859375 649.701171875 z M 787.607421875 705.388671875 L 800.44140625 741.94921875 L 800.44140625 778.390625 C 800.44140625 782.1032001017053 800.5625630368453 784.7666962873019 800.8046875 786.380859375 C 801.1275201175395 787.9950224626979 801.771736522381 789.7700355447624 802.740234375 791.70703125 C 804.4351056170826 795.2581900429353 806.7774701627586 797.9216862285322 809.763671875 799.697265625 L 814.2421875 802.6015625 C 817.3090973666261 804.4578500508524 818.8417968749999 806.5175154272225 818.841796875 808.77734375 C 818.841796875 812.8934596236298 815.8167834538672 814.9511718750001 809.763671875 814.951171875 L 779.376953125 814.951171875 C 773.3238415461328 814.951171875 770.296875 812.9338452192447 770.296875 808.8984375 C 770.296875 807.6071070298416 770.5391885736905 806.6378527350797 771.0234375 805.9921875 C 771.5883945806942 805.2658141105361 772.6364669416872 804.4581021982341 774.169921875 803.5703125 C 783.1285270117236 798.7278232369063 787.6074218749999 790.3354318489643 787.607421875 778.390625 L 787.607421875 705.388671875 z M 339.47265625 706.328125 A 16.43154525756836 16.43154525756836 0 0 1 355.904296875 722.759765625 A 16.43154525756836 16.43154525756836 0 0 1 339.47265625 739.19140625 A 16.43154525756836 16.43154525756836 0 0 1 323.041015625 722.759765625 A 16.43154525756836 16.43154525756836 0 0 1 339.47265625 706.328125 z M 1035.90234375 711.64453125 A 16.43154525756836 16.43154525756836 0 0 1 1052.333984375 728.07421875 A 16.43154525756836 16.43154525756836 0 0 1 1035.90234375 744.505859375 A 16.43154525756836 16.43154525756836 0 0 1 1019.470703125 728.07421875 A 16.43154525756836 16.43154525756836 0 0 1 1035.90234375 711.64453125 z M 1045.904296875 1124.576171875 A 16.43154525756836 16.43154525756836 0 0 1 1062.3359375 1141.0078125 A 16.43154525756836 16.43154525756836 0 0 1 1045.904296875 1157.439453125 A 16.43154525756836 16.43154525756836 0 0 1 1029.47265625 1141.0078125 A 16.43154525756836 16.43154525756836 0 0 1 1045.904296875 1124.576171875 z M 322.916015625 1130.291015625 A 16.43154525756836 16.43154525756836 0 0 1 339.34765625 1146.72265625 A 16.43154525756836 16.43154525756836 0 0 1 322.916015625 1163.154296875 A 16.43154525756836 16.43154525756836 0 0 1 306.484375 1146.72265625 A 16.43154525756836 16.43154525756836 0 0 1 322.916015625 1130.291015625 z M 407.216796875 1190.30078125 A 16.43154525756836 16.43154525756836 0 0 1 423.6484375 1206.732421875 A 16.43154525756836 16.43154525756836 0 0 1 407.216796875 1223.1640625 A 16.43154525756836 16.43154525756836 0 0 1 390.78515625 1206.732421875 A 16.43154525756836 16.43154525756836 0 0 1 407.216796875 1190.30078125 z M 958.744140625 1191.73046875 A 16.43154525756836 16.43154525756836 0 0 1 975.17578125 1208.162109375 A 16.43154525756836 16.43154525756836 0 0 1 958.744140625 1224.59375 A 16.43154525756836 16.43154525756836 0 0 1 942.3125 1208.162109375 A 16.43154525756836 16.43154525756836 0 0 1 958.744140625 1191.73046875 z "
       transform="scale(0.2645833333333333)"
       id="rect8339" />
    <path
       sodipodi:nodetypes="ccccc"
       inkscape:connector-curvature="0"
       id="path8350"
       d="m 381.5426825544779,161.013534545898 h 659.4669420199501 l 64.297351743931,1066.9141845703129 h -788.061645507812 z"
       style="opacity:1;vector-effect:none;fill:none;fill-opacity:1;stroke:url(#linearGradient8352);stroke-width:7.5590553284;stroke-linecap:round;stroke-linejoin:round;stroke-miterlimit:4;stroke-dasharray:none;stroke-dashoffset:0;stroke-opacity:1;paint-order:stroke markers fill"
       transform="matrix(0.2131468072525318,0,0,0.2189011195603147,30.16994457441847,31.72495563397848)" />
  </g>
  <g
     inkscape:label="Layer 1"
     inkscape:groupmode="layer"
     id="layer1"
     transform="translate(29.35448798901219,18.93155784134336)"
     sodipodi:insensitive="true"
     style="display:none">
    <image
       sodipodi:absref="D:\deving-games\drim-tim\Drim-Tim-Fase-2\Art\cognac uv.png"
       xlink:href="cognac uv.png"
       transform="matrix(0.2645833333333333,0,0,0.2645833333333333,-29.35448798901219,-18.93155784134336)"
       width="1365.333374023438"
       height="1365.333374023438"
       preserveAspectRatio="none"
       id="image6157" />
  </g>
</svg>
