<?xml version="1.0" encoding="UTF-8" standalone="no"?>
<!-- Created with Inkscape (http://www.inkscape.org/) -->

<svg
   xmlns:dc="http://purl.org/dc/elements/1.1/"
   xmlns:cc="http://creativecommons.org/ns#"
   xmlns:rdf="http://www.w3.org/1999/02/22-rdf-syntax-ns#"
   xmlns:svg="http://www.w3.org/2000/svg"
   xmlns="http://www.w3.org/2000/svg"
   xmlns:xlink="http://www.w3.org/1999/xlink"
   xmlns:sodipodi="http://sodipodi.sourceforge.net/DTD/sodipodi-0.dtd"
   xmlns:inkscape="http://www.inkscape.org/namespaces/inkscape"
   width="361.2444458007812mm"
   height="361.2444458007812mm"
   viewBox="0 0 361.2444458007811 361.2444458007812"
   version="1.1"
   id="svg9043"
   inkscape:version="0.92.1 r15371"
   sodipodi:docname="sirope.svg"
   inkscape:export-filename="../Assets/Textures/sirope.png"
   inkscape:export-xdpi="96"
   inkscape:export-ydpi="96">
  <defs
     id="defs9037">
    <clipPath
       clipPathUnits="userSpaceOnUse"
       id="clipPath9603">
      <rect
         style="opacity:1;vector-effect:none;fill:#1b1111;fill-opacity:1;stroke:none;stroke-width:7.5590553284;stroke-linecap:round;stroke-linejoin:round;stroke-miterlimit:4;stroke-dasharray:none;stroke-dashoffset:0;stroke-opacity:1;paint-order:stroke markers fill"
         id="rect9605"
         width="26.13021850585938"
         height="39.64584732055664"
         x="278.4219665527344"
         y="242.5019989013672"
         transform="matrix(5.585012414575635,0,0,5.585012414575623,-741.5568160803752,-1033.492771549232)" />
    </clipPath>
  </defs>
  <sodipodi:namedview
     id="base"
     pagecolor="#ffffff"
     bordercolor="#666666"
     borderopacity="1.0"
     inkscape:pageopacity="0.0"
     inkscape:pageshadow="2"
     inkscape:zoom="0.4161848216390791"
     inkscape:cx="1067.18206121863"
     inkscape:cy="893.7778131020104"
     inkscape:document-units="mm"
     inkscape:current-layer="g9860"
     showgrid="false"
     inkscape:window-width="1920"
     inkscape:window-height="1013"
     inkscape:window-x="-9"
     inkscape:window-y="-9"
     inkscape:window-maximized="1"
     inkscape:snap-global="false" />
  <metadata
     id="metadata9040">
    <rdf:RDF>
      <cc:Work
         rdf:about="">
        <dc:format>image/svg+xml</dc:format>
        <dc:type
           rdf:resource="http://purl.org/dc/dcmitype/StillImage" />
        <dc:title></dc:title>
      </cc:Work>
    </rdf:RDF>
  </metadata>
  <g
     inkscape:groupmode="layer"
     id="layer5"
     inkscape:label="รง"
     transform="translate(14.6953451013178,-16.60254123775274)">
    <rect
       style="display:inline;opacity:1;vector-effect:none;fill:#e1a401;fill-opacity:0.5156950951;stroke:none;stroke-width:7.5590553284;stroke-linecap:round;stroke-linejoin:round;stroke-miterlimit:4;stroke-dasharray:none;stroke-dashoffset:0;stroke-opacity:1;paint-order:stroke markers fill"
       id="rect9773"
       width="346.0001220703125"
       height="346.0001220703125"
       x="36.04167938232422"
       y="978.4860229492188"
       transform="matrix(0.3821759266682842,0,0,0.3821759266682842,-27.198137014125,-130.8826659850802)"
       rx="34.84030151367188"
       ry="34.84030151367188" />
    <rect
       ry="34.84030151367188"
       rx="34.84030151367188"
       transform="matrix(0.3821759266682842,0,0,0.3821759266682842,123.4711011215696,-130.8826659850802)"
       y="978.4860229492188"
       x="36.04167938232422"
       height="346.0001220703125"
       width="346.0001220703125"
       id="rect9775"
       style="display:inline;opacity:1;vector-effect:none;fill:#e16101;fill-opacity:1;stroke:none;stroke-width:7.5590553284;stroke-linecap:round;stroke-linejoin:round;stroke-miterlimit:4;stroke-dasharray:none;stroke-dashoffset:0;stroke-opacity:1;paint-order:stroke markers fill" />
    <rect
       transform="matrix(0.2645833333333333,0,0,0.2645833333333333,-14.6953451013178,16.60254123775274)"
       style="display:inline;opacity:1;vector-effect:none;fill:#80b6f0;fill-opacity:1;stroke:none;stroke-width:7.5590553284;stroke-linecap:round;stroke-linejoin:round;stroke-miterlimit:4;stroke-dasharray:none;stroke-dashoffset:0;stroke-opacity:1;paint-order:stroke markers fill"
       id="rect9777"
       width="1464.55615234375"
       height="312.619873046875"
       x="-35.679443359375"
       y="334.027587890625"
       rx="34.84030151367188"
       ry="34.84030151367188" />
    <g
       id="g9860"
       transform="translate(-30.3434544549535,3.371494939439231)">
      <g
         id="g9890"
         transform="translate(-123.3326253093871)">
        <ellipse
           ry="107.038330078125"
           rx="158.0089569091797"
           transform="matrix(0.2645833333333333,0,0,0.2645833333333333,12.50138074408538,8.735719712394484)"
           cy="501.3811645507812"
           cx="1130.698486328125"
           id="path9868"
           style="opacity:1;vector-effect:none;fill:#ffffff;fill-opacity:1;stroke:none;stroke-width:7.5590553284;stroke-linecap:round;stroke-linejoin:round;stroke-miterlimit:4;stroke-dasharray:none;stroke-dashoffset:0;stroke-opacity:1;paint-order:stroke markers fill" />
        <path
           style="opacity:1;vector-effect:none;fill:#000000;fill-opacity:1;stroke:none;stroke-width:7.5590553284;stroke-linecap:round;stroke-linejoin:round;stroke-miterlimit:4;stroke-dasharray:none;stroke-dashoffset:0;stroke-opacity:1;paint-order:stroke markers fill"
           id="path9802"
           d="m 953.093030107687,-157.9389806998634 c -5.5331060955582,0.5325934197574 -11.0480235081674,1.2195291475812 -16.5149946326842,2.2288386285675 -6.3070604840498,1.2855106114337 -12.322300846791,3.6145146836536 -17.8456278546869,6.8976315348325 -5.511374361594,3.1545511694469 -10.1423648107043,7.38132201849 -14.1461912221505,12.2654266638347 -0.5798713626485,0.8135840436991 -1.1857267805544,1.6092603126817 -1.7396140879464,2.4407521310975 -1.2006582417724,1.8024198991829 -1.9801978176242,3.18681989998 -2.9604867092357,5.1067426267711 -0.4426528834206,0.8669478336756 -1.6934271023988,3.5061160532162 -1.2739095658832,2.627739620204 5.7731505489155,-12.0876934692955 6.7216697191127,-14.458974614813 4.0717963844163,-8.1703423268254 -2.0957511763147,5.2463261768412 -2.8094138073554,10.777344344262 -2.7587677934987,16.3837021109734 0.19546380355,4.8286588967331 1.2323700899283,9.4494035566925 3.6256797954942,13.6527168605417 2.3337009282751,3.2216889266406 5.9741631125961,4.0116510248936 9.7392401329148,4.155065770213 5.0895741727079,-0.216037167329 9.888792867152,-1.939713854066 14.6085276351971,-3.7111615332173 5.4242972846778,-2.1969251002059 10.8142186182763,-4.4884040226721 16.3295947092204,-6.4493455004743 5.2127863388755,-2.1465423626316 10.6726409237418,-3.5010169156401 16.2261876908261,-4.3804061177702 5.1692427140456,-0.5314736838666 10.1493306065445,0.5833478526585 14.8956973588538,2.5474258005388 4.4168732136734,2.1519679199293 7.9026396050356,5.4611275977265 10.8076346771071,9.3599450052354 2.9109733248556,4.19290034859776 4.4672655541425,8.88731541778023 5.2075087021972,13.88925532148963 0.7259570516974,5.80865539684282 -0.2940823688972,11.50642918099015 -1.9451183621857,17.05678469636382 -3.5715563402266,10.60667426492955 -8.7748671377122,20.51822075063683 -15.2818768759898,29.55956371718434 -3.64237540152,4.09327421551347 -7.817118594194,7.64973695472986 -12.5666114210384,10.37804352686361 -4.1105513562552,2.1758988716193 -8.4377235776419,3.67442629566548 -12.9876269996023,4.57621338739418 -4.1907998405389,0.87417145870427 -8.3837025680318,0.66503298034559 -12.5973163645308,0.18405141028689 -2.3860181740813,-0.37378526784233 -4.5858282679992,-1.25075871718559 -6.772109515117,-2.23020589330463 -5.1509300483591,-2.35171890444373 1.5007354907482,-16.9207491708926 6.6516655391072,-14.5690302664489 v 0 c 1.7566639578441,0.73386010403895 3.5386037027197,1.33606031235581 5.4569107741124,1.478035208841 3.7344869577189,0.311659468103 7.4436485856094,0.20698116764878 11.1008192498291,-0.72248589357833 4.017942539856,-1.07750640589484 7.8394141181691,-2.78121154000359 11.3242914098438,-5.06502103197726 4.0664066753892,-3.02844062066653 7.8228509226922,-6.50276941181486 10.6116487857311,-10.77714293811734 1.5958613758872,-2.49451184183431 3.1718943513567,-4.99958628853653 4.5484687500079,-7.62485537802372 0.4576380989596,-0.87276296620666 1.7051347052309,-3.55334469652873 1.3055182791358,-2.6525369829758 -2.1427739448875,4.83020009166353 -7.4568601351033,16.27633388253341 -3.6954079418113,8.16303978292076 2.0758290590436,-5.01220159441638 3.6132123007251,-10.14099021555874 3.6360232682802,-15.62193321646438 -0.2379291149587,-4.43044080430603 -0.7825913042831,-8.59895709216859 -3.185461978688,-12.46059041040371 -2.1029824943032,-3.35800673530954 -4.7132385734269,-6.2106989226622 -8.3570873154623,-7.93996931471452 -3.9354303977691,-1.61228650232076 -8.0378658495398,-2.37885102191491 -12.2700847756573,-1.49687700147521 -5.2893128763317,1.10949837231324 -10.4191248874514,2.75707776720419 -15.438908578005,4.76334974431757 -5.4825692067127,2.07992676257574 -10.8688873311627,4.40679077660886 -16.3938452873414,6.37440642297518 -5.3925635438826,1.75513568340601 -10.8780415731089,3.34630055899538 -16.6222482175715,2.94467100615022 -5.1335655532074,-0.71920691543554 -9.9606219215384,-2.2757391769558 -13.580488259557,-6.19920313775151 -3.3643190135452,-4.43997275863696 -5.3639875988641,-9.46683483369456 -5.8290861047104,-15.05773691205657 -0.713820440016,-5.9995486237676 -0.4313716422728,-11.9846814281871 1.2749146035145,-17.8174770581059 3.2313295262604,-10.6850049136928 8.4795017795743,-21.0378644091176 15.7414590370689,-29.5548027472787 4.6897236530325,-4.793323832373 9.8811266616264,-9.0167890767297 15.8706300603159,-12.1081628496822 6.1761294772194,-3.0724778896508 12.6494720919604,-5.5159098648921 19.5019343235467,-6.5689967048131 5.605134298071,-0.8291651694999 11.3198273158164,-1.6029844815007 16.9849748233496,-0.946378161944 5.3355662826774,1.6822975869117 0.5773101559612,16.773557986718 -4.7582561267163,15.0912603998062 z"
           inkscape:connector-curvature="0"
           transform="matrix(0.1163728622926576,0.0671879033710331,-0.0671879033710331,0.1163728622926576,180.5804959616178,72.31950824234883)" />
        <path
           style="opacity:1;vector-effect:none;fill:#000000;fill-opacity:1;stroke:none;stroke-width:7.5590553284;stroke-linecap:round;stroke-linejoin:round;stroke-miterlimit:4;stroke-dasharray:none;stroke-dashoffset:0;stroke-opacity:1;paint-order:stroke markers fill"
           id="path9804"
           d="m 1016.072323869716,-148.8008972527121 c 2.099479199545,3.9660308309461 3.685737350524,8.1789257563292 5.364379623015,12.3337983986235 2.047352319343,4.6749341594614 3.984201517218,9.4000374850109 6.216545651894,13.9909506241183 1.787658721351,3.6643942961562 3.798936646872,7.2097796580647 5.785591300399,10.7673271972547 1.438383258414,2.4604006161712 2.634075538164,5.0438473803938 3.882346881494,7.5992089108554 2.346556526328,5.34056526311677 0.393265287903,0.424456715446 -8.892022771592,13.14470084333264 -4.989355443262,-2.41564247404358 1.843113254012,-16.52767074476514 6.832468697274,-14.11202827072155 v 0 c -2.589474667778,4.4248468840997 -5.178949335557,8.84969376819936 -7.768424003335,13.27454065229902 0.04024238034,-0.0162364151465 0.08048476068,-0.032472830293 0.120727141025,-0.0487092454398 -0.174225465715,-1.6802142876777 -3.126273332152,-4.93561298717417 -3.639384022195,-6.76710258281264 -1.930441940031,-3.58001692909738 -4.309935099017,-6.90445910501859 -6.074223641526,-10.58275693395109 -2.497505400272,-4.5762012633449 -4.566728702161,-9.361428807256 -6.624820987086,-14.1479368538985 -1.793825578449,-4.2440638571322 -3.451212351418,-8.5666737744386 -4.794954000534,-12.9699980992318 -4.41305152649,-3.3912028516654 5.178718604677,-15.8731974920936 9.591770131167,-12.4819946404282 z"
           inkscape:connector-curvature="0"
           transform="matrix(0.1163728622926576,0.0671879033710331,-0.0671879033710331,0.1163728622926576,180.5804959616178,72.31950824234883)" />
        <path
           style="opacity:1;vector-effect:none;fill:#000000;fill-opacity:1;stroke:none;stroke-width:7.5590553284;stroke-linecap:round;stroke-linejoin:round;stroke-miterlimit:4;stroke-dasharray:none;stroke-dashoffset:0;stroke-opacity:1;paint-order:stroke markers fill"
           id="path9806"
           d="m 991.8291017064218,-178.8507721135047 c -2.063278273293,4.6757684793174 -6.3649887691322,12.9633944571601 3.7054261742556,-7.6513996860063 0.3296201750871,-0.6747539295117 -0.630637489791,1.363382998474 -0.9242615210741,2.0545611618077 -0.863062457168,2.0316113820134 -0.7321469428746,1.7968761846651 -1.3519688057261,3.861130098481 -0.1091597678098,0.6595647763215 -1.5848865392578,4.9807593510716 0.1555686361361,4.6481100905382 2.6246752526006,-0.4903714800966 4.8672567733771,-2.2929511327252 6.8062099228896,-4.0401173430664 0.305273806882,-0.3848602682697 0.644169995371,-0.7452948089499 0.915821420648,-1.1545808048088 0.934537780568,-1.408029520911 1.723710622262,-3.919498125957 0.999234612981,-2.469395831835 -10.5505754859723,21.1179024847226 -6.4775932119406,14.4232982683231 -4.7625595502828,9.8233154270292 0.3527479347039,-2.1232033390882 -0.4561546463425,-3.7947751433508 -1.8611350165655,-5.3232775846318 -1.8705596976977,-1.6574373806525 -4.1243329310148,-2.0406773014038 -6.5232161180504,-1.6336169636363 -2.6142322501451,0.3315621293068 -4.0332889650876,2.055557121794 -5.709790021333,3.8082131107367 -0.03825623136,-1.4081962652167 -2.0540202108114,4.6770055591025 -1.3502947925446,3.2255523404692 10.2726838072629,-21.1876956395461 6.5232903614573,-14.7943977755529 4.7964375295284,-10.2333323983549 -0.082407603842,0.8036563493534 0.00281454635,1.5327026384523 0.2506912797619,2.2899664193906 4.6320874279506,3.1497315484483 -4.2766987193492,16.2512532738604 -8.9087861472997,13.1015217254121 v 0 c -1.0196299262069,-1.1887069110021 -1.943877161473,-2.3155169401616 -2.260203048387,-3.9024809449761 -2.153513678433,-7.4362239685399 3.275847192799,-15.4930529785181 8.8287423912516,-20.3571988643498 2.5558132350927,-2.0227899393699 5.6319394391877,-3.1117328186929 8.8875030755994,-3.3123989344253 3.7358377259421,0.010653455024 7.2054527325707,0.8981727619457 10.1581858209348,3.3017399785415 2.308878354718,2.1053887624266 4.213926873842,4.6078192406234 4.880115061638,7.7251299616373 1.628917703665,7.972698382393 -3.895395567409,16.4784143704535 -10.2095942560301,21.1407828538354 -3.3124440204575,2.0216279605506 -6.7572378868051,3.6266653295042 -10.7422871968946,2.7981430356317 -4.1052799761487,-1.3384555238206 -6.6333790483642,-3.9895236462403 -6.4781109012979,-8.5220955071097 1.1360109952086,-9.0606460903955 5.7078621863983,-17.2697685576095 10.5396079945342,-24.9456226675382 5.5746005224169,-0.056096002594 5.7332639777442,15.7112553246338 0.1586634553272,15.767351327228 z"
           inkscape:connector-curvature="0"
           transform="matrix(0.1163728622926576,0.0671879033710331,-0.0671879033710331,0.1163728622926576,180.5804959616178,72.31950824234883)" />
        <path
           style="opacity:1;vector-effect:none;fill:#000000;fill-opacity:1;stroke:none;stroke-width:7.5590553284;stroke-linecap:round;stroke-linejoin:round;stroke-miterlimit:4;stroke-dasharray:none;stroke-dashoffset:0;stroke-opacity:1;paint-order:stroke markers fill"
           id="path9808"
           d="m 1053.636984930986,-148.4583184060266 c 1.500760472397,4.2537415300596 3.381135182088,8.3640209088926 5.385245952709,12.4009058659829 1.937699992292,4.0004628714157 4.246083918017,7.7992591736194 6.547017127554,11.5964626654219 1.584573849639,2.9012699282223 3.566803533971,5.57402084492 5.029325018597,8.5403118183302 3.166037203868,6.3481917265883 2.698939521702,2.8514099810211 -9.234010397812,13.4269514060538 -0.0592359903,0.052497720469 -0.928505228479,-1.2204554110813 -1.721798559862,-2.3624275764462 -1.918509756969,-3.0431337423533 -3.787386567286,-6.119251481841 -5.600359032542,-9.2267555457486 -1.994252773494,-3.3885316752778 -3.838919105652,-6.856480018986 -5.494612377948,-10.4219278401121 -1.731677465968,-3.499423646407 -2.88067949482,-7.2109568920614 -3.606505981807,-11.0360983077231 -0.655046917305,-3.8975535953423 -0.7741771128,-7.8284270227866 -0.427415029237,-11.7571665122063 0.325595169666,-3.7312465480568 1.314387362488,-7.36650399778 2.769658226553,-10.8077891722592 3.46503832331,-7.553899450304 5.530269531336,-15.5880580335674 12.867371879144,-19.7158513286297 3.160458580573,-1.3273276709103 6.546934718571,-2.1282454666402 9.89940080977,-2.8298832672192 1.683620460698,-0.1807189209494 3.374402342574,-0.1177480826775 5.061625636436,-0.060437891051 5.400161646682,1.7165715118251 0.544964221069,16.9905351913151 -4.855197425613,15.2739636794899 v 0 c -1.353571531575,0.031414901621 -2.705793705552,0.06069391202 -4.01715267781,0.4510082038726 -2.760843596644,0.6771771398451 -5.70719152085,1.1967492988281 -7.94582884994,3.069570940713 -4.099142286139,4.147304023505 -8.885433904443,16.4805763590864 1.680524192411,-6.1327739724559 -1.547131890198,3.0856138391821 -3.032832583913,6.1686587866509 -3.720263067238,9.5894289038238 -0.508686573095,3.6232437587423 -0.967579599067,7.1997240621097 -0.439013713124,10.8621288584882 0.330530786157,3.5061532630982 0.926515962871,6.9373656549019 2.503216510324,10.1325330234481 1.614382799775,3.4575855359696 3.209480774827,6.9203079662811 5.195890415584,10.1887303551609 1.692005243085,3.1111380214918 3.603680161105,6.0962586052683 5.226711923376,9.2445518369111 0.38022599685,0.6323386044874 1.338445935403,2.203487842816 1.308286124147,2.2537548219496 -2.716234082848,4.5271132768273 -6.164720747357,8.57957441558 -8.994711298073,13.0364607386657 -0.107815076545,0.1697954574285 1.024561371664,0.8403478368454 0.314449800092,-0.2716598864779 -1.761807223708,-2.6619542758656 -3.399761490157,-5.4197981772313 -5.119959224786,-8.108710139835 -2.42179219807,-3.8056446627705 -4.938588737169,-7.5688549637939 -7.062191390493,-11.5496553639253 -2.341051048491,-4.3767072899936 -4.519680703776,-8.9238650908419 -5.753137449583,-13.7495216400341 -4.255405617095,-3.6074582830506 5.948027242076,-15.6435629572388 10.203432859171,-12.0361046741881 z"
           inkscape:connector-curvature="0"
           transform="matrix(0.1163728622926576,0.0671879033710331,-0.0671879033710331,0.1163728622926576,180.5804959616178,72.31950824234883)" />
        <path
           style="opacity:1;vector-effect:none;fill:#000000;fill-opacity:1;stroke:none;stroke-width:7.5590553284;stroke-linecap:round;stroke-linejoin:round;stroke-miterlimit:4;stroke-dasharray:none;stroke-dashoffset:0;stroke-opacity:1;paint-order:stroke markers fill"
           id="path9810"
           d="m 1111.787227597333,-174.55729919545 c -4.048385785679,1.2553612047338 -8.050109795342,2.7601708827926 -11.736810884856,4.8629875891979 -3.475333515974,2.0210420373699 -5.538918083887,5.0822505282495 -6.882873036784,8.7717533873756 10.432140897224,-21.3417305543155 5.312791948104,-12.6760977048932 4.154692830824,-7.6702392687748 -0.497561339087,2.1506981480204 -0.63530572831,4.2395910775126 -0.663346846461,6.4372478079892 0.02200348763,4.4751684954284 1.092504574861,8.7237989072039 3.011887704035,12.7364788243388 2.027097865672,3.7207875919662 4.697380152567,7.0035354119429 8.068540273455,9.5640543727416 3.343894639716,2.4492773464633 7.233089585958,3.0018472437907 11.267168314186,2.8038392830672 4.381774524533,-0.2547510904206 8.46075494539,-2.0052102607572 12.251449839167,-4.1104946060992 3.504133700337,-2.0227504591762 5.442770524971,-5.5018680563073 7.190819725501,-9.0128187241209 0.237046761882,-0.6022160138971 0.993086436064,-2.3891956045359 0.711140285646,-1.806648041691 -9.021645309867,18.6402172198563 -4.300425750387,11.876068830888 -3.934177168854,4.1188021300161 0.183322819666,-3.7272733021562 -0.7493235378,-7.1837866859869 -2.445509842516,-10.4614613855752 -1.879324382754,-3.3886253498958 -4.701828762819,-5.9528392292743 -7.794176714194,-8.2041497395945 -2.759721821914,-1.9405742304452 -5.948641721793,-2.7157202694588 -9.23628803547,-3.1425553239512 -3.118654207299,-0.5110251025093 -6.069596552434,0.011462781363 -9.026397452931,0.9707830984385 -1.586074201213,0.6900812275796 -2.827167891849,1.6532419207578 -4.019340317831,2.880367781533 -5.619420569406,-0.6086244199757 -3.897970751164,-16.5027459838412 1.721449818242,-15.8941215638656 v 0 c 1.844347426448,-1.1218683684908 3.764063097705,-2.1125546649653 5.868706068222,-2.6571882294735 3.621718475925,-0.8694473031077 7.286622233265,-1.0868160492842 10.980783605827,-0.4817586806215 4.009494571298,0.6433661331811 7.918940721597,1.7118475079691 11.365844464953,3.9482794722692 3.721129468763,2.5397776057714 7.182019973918,5.4872479256398 9.634206730759,9.3193460658068 2.305345027635,3.7551036784271 3.994162855844,7.662839708565 4.368772409866,12.1108055988434 0.422611046966,10.2013841473387 -1.255101086099,15.641805106914 -8.130264434382,25.6206190848859 -2.630694882164,3.763547833508 -5.69406293191,6.9540883154912 -9.966467414244,8.8650004759518 -4.588556734983,2.0944258585136 -9.343866933078,3.662578370338 -14.456305674718,3.6005191295217 -5.057047163208,-0.1574304271349 -9.953643992432,-1.0970225869499 -14.176763600539,-4.0687137944733 -3.986985229887,-2.9349479397616 -7.386637200218,-6.3955064700713 -9.927347500465,-10.688070549252 -2.549411242573,-4.4158394985875 -4.314140452374,-9.0514309344512 -4.783032953721,-14.1754630173457 -0.658524739679,-11.0560421407968 1.596646515943,-15.7082951871703 7.609289836588,-26.8830478074722 2.534086795177,-3.7417539561838 5.795699910748,-6.7313549409086 9.908457083536,-8.6922838345867 4.035935655891,-1.8734267990599 8.238785010826,-3.5132221720221 12.692940957846,-4.0183789083894 5.429345956612,1.2823551432361 1.802297885924,16.6388645165461 -3.627048070687,15.35650937331 z"
           inkscape:connector-curvature="0"
           transform="matrix(0.1163728622926576,0.0671879033710331,-0.0671879033710331,0.1163728622926576,180.5804959616178,72.31950824234883)" />
        <path
           style="opacity:1;vector-effect:none;fill:#000000;fill-opacity:1;stroke:none;stroke-width:7.5590553284;stroke-linecap:round;stroke-linejoin:round;stroke-miterlimit:4;stroke-dasharray:none;stroke-dashoffset:0;stroke-opacity:1;paint-order:stroke markers fill"
           id="path9812"
           d="m 1149.977236858335,-201.9879494675877 c 3.434849069304,3.3228513952681 6.237590253777,7.2436166269684 9.066689918513,11.078500038527 3.723846512569,5.1388646963335 7.309638081477,10.3753968388778 10.72611159965,15.7231883796519 3.634938267041,5.8977731953616 7.123825129829,11.8839643794138 10.508463883784,17.9284069460962 3.323315869678,6.0316055871649 6.718609804337,12.0226933060948 10.156139610817,17.989759189337 3.112762592967,5.3060526013637 5.954393522282,10.7645982661022 8.855152366814,16.1878578109577 1.984568734552,3.8274813934947 4.004959276183,7.6355605522897 6.016292062004,11.4486737872298 0.07859060368,0.1652744646031 2.175552898913,4.1066494217937 1.943627095605,4.1824702595052 -0.223124973032,0.072943683404 -0.512470301959,-0.4294653705008 -0.659653160524,-0.2465918057524 -3.116215333384,3.8718734782884 -5.878977127857,8.01538750614644 -8.818465691786,12.02308125921971 -1.429595952004,-3.39084740381398 -3.255342189903,-6.59543858312871 -5.116567205284,-9.76346722660472 -3.028748842374,-4.9039993461647 -5.686126620394,-10.0223063429164 -8.434073587269,-15.0855329786557 -3.293480571585,-5.7372663942046 -7.006772769195,-11.2206749690556 -10.602553178198,-16.7701465328323 -3.501670194188,-5.7324600273691 -6.545129969619,-11.7265024397038 -9.741080579031,-17.6306496336049 -3.13470171321,-5.4972517277794 -6.127641970451,-11.0697176062215 -8.909653309269,-16.7540029707975 -2.474654054344,-4.8838896227266 -4.514798404372,-9.9710397478807 -6.22424563095,-15.1684662778598 -1.386972608554,-4.355466295435 -2.076089485632,-8.8686976918916 -2.444878223254,-13.4107708674646 -0.279525941675,-4.1253705856584 0.135772583854,-8.2592802400261 1.244813495742,-12.2358480921675 3.619281605082,-8.8855913067151 5.596382279158,-16.4206846278292 14.056338274862,-20.2763559622606 4.147847187662,-1.214661745074 8.301964024009,-0.5375510410138 12.330505132473,0.7442836412879 4.566925589352,1.6929426827384 8.404052404179,4.6900842996444 12.076330473709,7.8060353668247 3.627511053737,3.0509744079679 6.638162764436,6.7075725298894 9.328300286475,10.5875834945471 2.381213348179,3.4597380431439 3.684346178849,7.2759999310321 4.056538284059,11.4278627702301 -0.290209665639,9.0526575247679 -5.757512608169,17.0561882115269 -9.582162296663,24.8852231246397 -2.678261363057,3.5487000020739 -5.881179496266,6.6515215903757 -9.045995163526,9.7578760863755 -2.975121761582,2.870113668582 -6.020511330484,5.9737857360639 -10.245081022409,6.6261506720811 -0.420093739196,-0.019744775215 -0.840187478391,-0.039489550431 -1.260281217587,-0.059234325646 -5.374081870599,-1.4206670262228 -1.355828718398,-16.6208659596341 4.018253152202,-15.2001989334112 v 0 c 0.154063574644,-0.1104184906501 0.308127149289,-0.2208369813004 0.462190723934,-0.3312554719507 2.897169181893,-2.2663273480978 5.586825798975,-4.785261700639 8.166264462507,-7.404501306999 2.891114181854,-2.955244786655 5.826723356548,-5.9607265976981 7.706526883163,-9.6920621041066 -10.826179954032,23.2591170955268 -3.339968430906,8.4381853189544 -1.694144456881,2.7696816490625 0.774568239907,-3.3539626194624 0.01840685009,-6.378494503793 -1.791259306792,-9.2995201168601 -2.331590417363,-3.606587919174 -5.053904493095,-6.9431339933619 -8.297390427495,-9.7767548177005 -3.104673054934,-2.7570973607976 -6.302785970899,-5.5277889840504 -10.207522391789,-7.0864104152079 -2.758203470055,-0.8790980357255 -5.792248814646,-1.6119638342227 -8.356590287663,0.1578915335327 -4.724201150826,3.7758739035985 -9.39619003005,16.7366788653341 0.951871372519,-5.7184015844448 -2.032555194216,3.1882784610193 -2.487571496058,6.7324431980782 -2.691119826965,10.4614638351163 0.175425686438,4.2102794063201 0.462334140787,8.4236018665754 1.677784706095,12.487435465644 1.470607329682,4.9943819210798 3.372345596659,9.8748009553663 5.787805318893,14.4918517175311 2.742148982431,5.6087954850102 5.620402467877,11.1558287006596 8.817254796323,16.5203759136143 3.149087931711,5.7923752139038 6.19624706273,11.6393893506808 9.482039315865,17.3565287170484 3.617175060411,5.7108890440702 7.419574293172,11.3041471167182 10.853676116835,17.1302988317593 2.658690165002,5.1137720160234 5.242732060953,10.2776090219543 8.138788286659,15.2593649814973 1.950659094911,3.5620096079945 3.880591820904,7.1319424885496 5.382841436539,10.9117486722362 -7.04725664214,11.92313953053527 -6.817959082909,18.8853918997565 -11.915861736688,9.35160393193019 -1.912589703976,-3.74113832439248 -4.287311452866,-7.23139109360729 -6.172786984818,-10.99277532200928 -3.047978173655,-5.2623492470763 -5.929431457037,-10.618373664877 -9.013301747533,-15.8579944464286 -3.423348797348,-5.994732184947 -6.909648982579,-11.9521551639111 -10.262488264755,-17.9871634718549 -3.276804678812,-6.0304232767669 -6.703398616067,-11.9718756850214 -10.226469829438,-17.8615739227796 -3.254170378372,-5.3688001143869 -6.748115138791,-10.5795500390112 -10.367222845262,-15.7090668001663 -2.682860176898,-3.9373217588498 -5.478685379602,-7.7937784268798 -8.207482128736,-11.6989277435798 -4.694313962757,-2.9973306967507 3.783417481766,-16.2748556410882 8.477731444524,-13.2775249443376 z"
           inkscape:connector-curvature="0"
           transform="matrix(0.1163728622926576,0.0671879033710331,-0.0671879033710331,0.1163728622926576,180.5804959616178,72.31950824234883)" />
        <path
           style="opacity:1;vector-effect:none;fill:#000000;fill-opacity:1;stroke:none;stroke-width:7.5590553284;stroke-linecap:round;stroke-linejoin:round;stroke-miterlimit:4;stroke-dasharray:none;stroke-dashoffset:0;stroke-opacity:1;paint-order:stroke markers fill"
           id="path9816"
           d="m 1221.910321250682,-236.6228374105135 c 3.29827326486,-2.756126806619 7.012122803104,-4.9888470330318 10.474314184126,-7.5368977788605 2.08822260085,-1.3553779362744 4.244894330503,-2.8022177715839 5.52532484422,-5.0078118998052 0.248857325912,-0.4286669607745 0.849604711182,-1.7912261612532 0.627295010321,-1.3482095376114 -1.943819005247,3.8736237300443 -3.861387844588,7.7603644516326 -5.792081766881,11.6405466774488 1.563650679266,-2.1299157952667 0.930085821987,-3.5751863384391 -0.836563325736,-5.2129874408547 -2.104083226518,-1.6792942430836 -4.511082651019,-1.6186429092381 -7.050247975508,-1.4656652033445 -2.880305509491,0.1500877765982 -5.661630603659,1.1114080545315 -8.134932883326,2.5657565032184 -2.446149595813,1.3808953338366 -4.776958234972,3.0876423942104 -6.659461965028,5.1879466405523 -3.251080080994,4.8041593639337 -9.087810323163,18.250047355979 1.704831552452,-4.519030481629 -1.489417098857,2.9329184818758 -2.487143729409,6.0871452718473 -2.760278959279,9.3652094999493 -0.193829351976,3.5990123889569 0.776772180167,7.038090213116 2.000092934304,10.3797444155621 1.255350443399,3.8448053923887 4.037473388685,6.6465217118655 6.945475531558,9.3131089817241 3.267866055611,2.6418196164959 7.082356627089,4.1217516256288 11.102299635881,5.1543375630324 4.164189224247,1.057258599011 8.253459852786,0.6398917224679 12.401405633612,-0.1419171535281 4.053594775776,-1.0265586058483 7.775143269051,-2.897884822298 11.216829940367,-5.235110303628 3.423158763579,-2.0489153636882 6.576655254243,-4.5334056803329 9.377127389851,-7.3688665695097 2.242465883086,-2.529919394038 4.620172690853,-5.0237658476333 6.264951277091,-7.9954789468661 5.688521077104,0.07487921881 5.476730663541,16.1644465329807 -0.211790413563,16.0895673141703 v 0 c -2.282362700921,2.8441076357358 -4.620243613849,5.6568270749536 -7.374977604124,8.0640170585139 -3.24613217665,2.7655661406527 -6.637650230743,5.3178032157048 -10.360551695143,7.4217807753869 -4.10121979544,2.2561644109792 -8.429963770129,4.128151267776 -13.08085568361,4.8909360895532 -4.802987615417,0.6728731328561 -9.623966261773,0.7595955294772 -14.351631459549,-0.5155151605673 -4.748129513403,-1.2722651555236 -9.224884823011,-3.1469402588793 -13.152169782254,-6.1705993235475 -3.521978444909,-3.00385333899 -6.967119595869,-6.3947383562755 -8.862198169908,-10.6854549889197 -1.513170624231,-3.7660842590173 -2.956078598166,-7.5836259101826 -3.216924961813,-11.6786130558639 -0.285717613851,-3.7411617953789 7.42588833e-4,-7.3548126397923 1.357591937408,-10.9025986922025 3.477509310585,-7.4014349561189 5.971232038458,-15.9439030799538 12.359652238213,-21.4815896571888 2.527462175129,-1.9112957483417 5.156690771756,-3.7165295034367 8.074714901182,-4.9847382467466 3.251452452392,-1.251356152062 6.610861909265,-2.1908453883253 10.131453357936,-2.1214840699749 3.664658961491,0.08237361569 7.144941605548,0.7181779237845 10.172669830694,2.9400355829711 2.937031029995,2.3565778727147 5.491947425888,5.0916131764609 5.491698670028,9.0926574284282 -6.724037781964,13.9118768094728 -5.023694920625,14.2254209322989 -14.882783009438,21.0619858388408 -3.516140585864,2.4099865417274 -7.026091583027,4.9017535438174 -10.851789745708,6.7967610041936 -5.512541838707,-0.8313845214713 -3.161031307083,-16.423207384368 2.351510531624,-15.591822862897 z"
           inkscape:connector-curvature="0"
           transform="matrix(0.1163728622926576,0.0671879033710331,-0.0671879033710331,0.1163728622926576,180.5804959616178,72.31950824234883)" />
        <g
           style="fill:#c83737"
           id="g9866">
          <path
             transform="matrix(0.1163728622926576,0.0671879033710331,-0.0671879033710331,0.1163728622926576,180.5804959616178,72.31950824234883)"
             inkscape:connector-curvature="0"
             d="m 1099.166934897105,-62.47167443090872 c 3.13802844387,3.7455289483321 5.609699685234,7.99834929843247 8.048853494783,12.21654679159337 2.705567037094,4.66711724087555 5.317894818984,9.38896502830562 8.057897716766,14.03589405340836 2.415207821295,3.83998494936894 4.891569566464,7.64019800106962 7.220045325662,11.53393544421534 1.773485413477,2.95957369384018 3.550112114353,5.92047467012298 5.40850050234,8.82780314579576 1.205929948284,2.23181121549487 2.735270710799,4.29570482959344 3.880396708724,6.558634373671798 3.344273738325,5.239536271052872 0.335932995369,3.515320659070974 -8.570827159454,13.669490709928592 -0.06713534981,0.07653779225211 -3.196231343025,-2.102486749052112 -3.386000514178,-2.230209907748539 -2.672260560485,-1.757016336387549 -5.413802543408,-3.410263362765363 -8.287416465106,-4.815971905939933 -3.093533596389,-1.382118049742304 -6.276194714318,-2.47859932315032 -9.584953011695,-3.1996002841654 -3.17791814865,-0.790628906698659 -6.328079334319,-0.572044490696497 -9.532597896052,-0.191081824753385 -3.23687791663,0.577190287645407 -6.187565758903,1.921038944494738 -9.11657079337,3.343945282381586 -2.556432619932,1.55972324455547 -4.226239063638,3.968488925284645 -5.403265235289,6.665801901368467 -1.778579732297,5.669363777937634 -0.494772664004,1.359551773288787 4.964520163753,-10.326385385060577 0.180528776679,-0.38643245674825 -0.335130912899,0.785449499774133 -0.470553589112,1.189901451932655 -0.427167612909,1.275774336852015 -0.3568347069,2.16100283646529 -0.06136599856,3.451066084626748 1.090790807334,2.937698539737536 3.639887286328,4.644954349075987 6.226204375089,6.164832284393926 2.895349105711,1.59402907126014 6.124337054528,2.141281454256616 9.367460763777,2.472499032835005 3.297917902792,0.3198846002349 6.566756202385,0.26390735689756 9.838901582417,-0.206222539481816 3.452043713332,-0.248145825619754 6.198303007473,-1.895028855837607 8.720960146191,-4.131384129970689 2.505749148238,-2.49868892711083212 4.852526542566,-5.186169881709703 6.704549030009,-8.212892495295818 1.889263622631,-2.722780422415999 3.22632020169,-5.784954819161828 5.026129411428,-8.548906108384228 0.222314519076,-0.4211894526884 0.444629038152,-0.84237890537679 0.666943557228,-1.26356835806541 5.661507193907,-0.0760141162102 5.87650758206,15.9371463979812073 0.215000388152,16.0131605141914192 v 0 c -0.252031477961,0.4309527858520139 -0.504062955925,0.8619055717040264 -0.756094433887,1.2928583575560404 -1.560819857785,3.039477004619366 -3.507936788101,5.886507195169321 -5.479173214623,8.671121572269171 -2.454701823553,3.00864337777581 -5.030638239403,5.9806463076502 -8.290886775045,8.14796931766431 -3.433886810458,2.05398154533305 -7.100052913994,3.32415591206246 -11.122106688472,3.59000961837319 -3.635721187482,0.33892981822715 -7.287562446739,0.26940755656801 -10.919652926415,-0.11906532233366 -3.888324328527,-0.50657984659984 -7.736676372607,-1.32553410940273 -11.217684427613,-3.21653474220056 -3.53734432221,-2.04685761267092 -6.813957266708,-4.42407727820704 -8.926546605034,-8.01948620998427 -4.140559320213,-8.472718508171512 -0.444256208016,-14.420456807533586 5.537871817402,-23.04755118054004 2.244289207725,-2.76082462318255 4.856558584926,-5.05843700226659 8.185733393143,-6.43725996702688 3.407592675836,-1.51442757677023 6.976901644196,-2.63811298712948 10.70523470984,-3.0039233966711 3.702886451119,-0.29976037411393 7.383549910408,-0.20268246476394 11.017081051563,0.66924363750559 3.66012500874,0.86072503649053 7.197359503191,2.07650340941655 10.622637524052,3.63531928080715 3.11573392579,1.52750069060492 6.059836584765,3.35429930344615 8.903782357959,5.3412537273375 0.167839803152,0.12661784645411 2.950025777316,2.037681232608518 2.897422412957,2.151708641367122 -13.883609376268,30.095261409542658 -7.565981719751,17.077075391534208 -7.283711820703,13.493927201403037 -1.669625733844,-1.905022260878923 -2.944272472742,-4.1602669120563859 -4.21122586567,-6.341896259280932 -1.888424255598,-2.918463970577026 -3.780429068198,-5.832440016921509 -5.696959608588,-8.735014635501556 -2.260274923442,-3.87371875717235 -4.797979555761,-7.57444034874059 -7.300749964797,-11.29386257036819 -2.898858920596,-4.58666314698258 -5.542720059566,-9.32561386450814 -8.256410608279,-14.02275476071467 -2.365638306649,-4.22436386903474 -4.849974633614,-8.38686334171211 -7.139764610175,-12.64965220772773 -4.639928007546,-3.11070124519097 4.158463771334,-16.2343994786017 8.798391778882,-13.12369823341075 z"
             id="path9818"
             style="opacity:1;vector-effect:none;fill:#c83737;fill-opacity:1;stroke:none;stroke-width:7.5590553284;stroke-linecap:round;stroke-linejoin:round;stroke-miterlimit:4;stroke-dasharray:none;stroke-dashoffset:0;stroke-opacity:1;paint-order:stroke markers fill" />
          <path
             transform="matrix(0.1163728622926576,0.0671879033710331,-0.0671879033710331,0.1163728622926576,180.5804959616178,72.31950824234883)"
             inkscape:connector-curvature="0"
             d="m 1146.62092692094,-41.39872212654928 c 3.388717880602,-3.21444836782006 6.563233384062,-6.64198658325858 9.780329277803,-10.02660533570542 3.338736460375,-3.71566695337401 7.031102190424,-7.06901287564438 10.53465775792,-10.62044779780104 2.341372290926,-2.89966370700312 6.09632652683,-4.75026819368144 7.245791022565,-8.43776261595301 -1.883285662147,4.0140120242729 -3.857693825752,7.98652024598162 -5.64985698644,12.04203607281848 -0.154721153114,0.3501210709858 0.719500960268,-0.47418815633795 0.767820587816,-0.85390991389589 0.08277606399,-0.65049906422361 -1.222968723729,-0.929729001135 -1.55337697686,-1.05026354385268 -2.501604951802,-0.73807097062353 -4.98281641209,-0.0645375920226 -7.409671317492,0.60125234891143 -2.573734901245,0.85490233740596 -4.567117931193,2.57489452136656 -6.691520144093,4.15907409047305 -1.903253938618,1.71702871391517 -3.495834333926,3.49895528846605 -4.502463020344,5.88390726131729 -2.145132912512,4.58111981140041 -5.720212348012,12.07306133031237 4.221745168923,-8.85192089558725 0.220170981989,-0.46339706007962 -0.440328795368,0.92740796182602 -0.633782794444,1.40257913818482 -0.518421715057,1.27337277787023 -0.590829734217,1.66484741071941 -0.968429524312,2.98885383687253 -0.835794255405,2.82678398834878 -0.848473147339,5.65431215710646 -0.280482933749,8.5222882790938 0.666224532763,3.28048868988138 2.539605335732,5.99966702934217 4.702670366667,8.47367350960122 2.16543547574,2.22535631001574 4.621207837552,4.11209112339908 7.627079004865,4.96641801333522 2.754528781938,0.6991980196085 5.187584022942,-0.65110841265482 7.58204131851,-1.8400501150411 2.843578428875,-1.70704564156609 5.28704752543,-4.02303833231349 7.477058050222,-6.49315705055914 2.128616425483,-2.59069709604615 3.923218220729,-5.47012280397803 5.638319163548,-8.34729596773832 5.695197036917,0.0282750442702 5.61522313475,16.13672482426091 -0.07997390217,16.10844977999067 v 0 c -2.01859800684,2.95621502618294 -3.971569733608,5.97204711208589 -6.695294077018,8.35461163473157 -2.7979680495,2.49577645029013 -5.699023638283,4.86655449552768 -9.267487515732,6.18629347048682 -3.511405175514,1.3301491121681 -7.12470931906,1.96181221950336 -10.810081550037,0.86218046735598 -3.811543874681,-1.19896603461325 -7.171746269913,-3.1801365911847 -10.054719669099,-5.97732506010493 -2.767880231762,-2.96178627751557 -5.239063644262,-6.16345313852321 -6.53283921178,-10.06689008644436 -0.911473054866,-3.23998826670708 -1.774281842818,-6.58272807897469 -1.292073786989,-9.97466396296226 1.155563608512,-8.07614385438842 4.83597205412,-15.56934848230435 9.42932929258,-22.30140608793768 1.851980312804,-2.17133163243534 3.95890829928,-4.11978849706225 6.306611402975,-5.74729374864728 2.610613688546,-1.84145862869605 5.503510046603,-3.23882755573277 8.639109945962,-3.92490762623902 3.410395846065,-0.61197826464378 6.909694988384,-0.80199690357017 10.201503658154,0.48815420236292 10.678640851856,4.94622226705246 5.134001998031,9.25889204205009 -0.07150790651,20.40987637975876 -2.608647463509,3.11691819241058 -5.714565330438,5.77991086657698 -8.456180671475,8.77967364175584 -3.530109917567,3.57847072322556 -7.032427505179,7.1821609391011 -10.497555469229,10.82404322977959 -3.206110018714,3.26206811687765 -6.423941471035,6.56823224214471 -10.23261240334,9.13970533727485 -5.543424028307,-0.53946726406843 -4.017580185704,-16.21863814970383 1.525843842603,-15.67917088563544 z"
             id="path9820"
             style="opacity:1;vector-effect:none;fill:#c83737;fill-opacity:1;stroke:none;stroke-width:7.5590553284;stroke-linecap:round;stroke-linejoin:round;stroke-miterlimit:4;stroke-dasharray:none;stroke-dashoffset:0;stroke-opacity:1;paint-order:stroke markers fill" />
          <path
             transform="matrix(0.1163728622926576,0.0671879033710331,-0.0671879033710331,0.1163728622926576,180.5804959616178,72.31950824234883)"
             inkscape:connector-curvature="0"
             d="m 1209.350719633489,-88.25556035051498 c 1.260464987422,-0.54638320023493 2.686943566696,-0.65452219857163 3.93570144163,-1.22841584470076 1.201701998145,-0.55226810186264 2.304535134619,-1.29837573850728 3.464193741187,-1.93420564099074 5.242352005958,-2.87433227835527 10.474672472265,-5.74838626534597 15.670273454388,-8.70775771024451 11.547262389571,-6.6462248801598 22.783794660961,-13.8105769088698 34.037455732474,-20.9370931354609 8.538332282771,-5.617564518317 17.297901001644,-10.8832451117075 26.08001508047,-16.1071823266909 5.585525758161,-3.2883604843125 10.985200611104,-6.8720478467273 16.281892568631,-10.6034475827719 2.706857818305,-2.1671828702876 5.657861198834,-4.0367311712575 8.05905900318,-6.5534400918352 5.687499286149,0.4442206558333 4.431053533818,16.5308979087508 -1.256445752331,16.0866772529175 v 0 c -2.809768694347,2.4511335902212 -5.777211721741,4.7184620613412 -8.769184234816,6.9419784314144 -5.457677215157,3.9799837177961 -11.004600876623,7.827632926597 -16.745012649975,11.3937017824655 -8.755914829297,5.5789173042654 -17.45211321326,11.2489792413962 -26.086049985241,17.0150981623008 -11.247036956582,7.42152770435797 -22.582187147978,14.75141595535622 -34.496084310691,21.07104917126304 -7.644319887077,3.91171254587495 -15.553358224181,8.47631166444718 -24.353190794164,8.76777580139516 -5.37568676811,-1.47692569792936 -1.198310062852,-16.68166396699054 4.177376705258,-15.20473826906148 z"
             id="path9824"
             style="opacity:1;vector-effect:none;fill:#c83737;fill-opacity:1;stroke:none;stroke-width:7.5590553284;stroke-linecap:round;stroke-linejoin:round;stroke-miterlimit:4;stroke-dasharray:none;stroke-dashoffset:0;stroke-opacity:1;paint-order:stroke markers fill" />
          <path
             transform="matrix(0.1163728622926576,0.0671879033710331,-0.0671879033710331,0.1163728622926576,180.5804959616178,72.31950824234883)"
             inkscape:connector-curvature="0"
             d="m 1047.717773409843,36.30074836625318 c -4.31763754573,1.99061274901123 -8.476343740312,4.32165475744273 -12.610162138334,6.66616287052443 -5.990412611746,3.83067917398647 -11.929507530484,7.74138273314521 -17.942523480429,11.53515566248506 -7.001215518192,4.46450222724297 -14.220675102736,8.59335902468069 -21.168314401927,13.13913141270018 -6.2889403283492,4.21777331595649 -12.7119816145351,8.22929227594636 -19.0701707284347,12.34051569532174 -4.9355518120918,3.01178425718355 -9.2668245568001,6.84201663086266 -13.8291939704917,10.35598302266023 -1.8717615939412,1.54093948164973 -3.6427887498987,3.23894564305419 -5.6591723414875,4.587699506626 -5.6099037264785,-0.54890660139017 -4.0573614061545,-16.41611046857679 1.5525423203239,-15.86720386718663 v 0 c 1.8191693814653,-1.84990627248135 3.8124594557769,-3.51721177393209 5.7978549056269,-5.18508131986755 4.5947152930958,-3.84937819526452 9.342725200731,-7.5103341831509 14.3753710042901,-10.77598175796604 6.3773501030845,-4.2133225166183 12.7734453250304,-8.39822191124927 19.1477838210191,-12.61610647083262 7.0219240321089,-4.43314376840045 14.1299399045199,-8.7302154003537 21.218854345375,-13.05521079608502 6.023103992176,-3.73915274110437 11.987114848624,-7.59187926189818 18.198242264461,-11.0141221240624 4.161416777627,-2.13380338711432 8.368325190539,-4.25477626340695 12.868511180838,-5.58705300905854 5.471631579028,1.01810039779206 2.592008798198,16.49421157253323 -2.87962278083,15.47611117474116 z"
             id="path9826"
             style="opacity:1;vector-effect:none;fill:#c83737;fill-opacity:1;stroke:none;stroke-width:7.5590553284;stroke-linecap:round;stroke-linejoin:round;stroke-miterlimit:4;stroke-dasharray:none;stroke-dashoffset:0;stroke-opacity:1;paint-order:stroke markers fill" />
        </g>
        <path
           style="opacity:1;vector-effect:none;fill:#000000;fill-opacity:1;stroke:none;stroke-width:7.5590553284;stroke-linecap:round;stroke-linejoin:round;stroke-miterlimit:4;stroke-dasharray:none;stroke-dashoffset:0;stroke-opacity:1;paint-order:stroke markers fill"
           id="path9828"
           d="m 1061.727525515004,171.0630092495567 c -2.210025967151,-4.7953464235057 -3.866188922389,-9.8293718893661 -5.66326500833,-14.7902206448835 -2.390578342913,-6.6800875170017 -4.863371309648,-13.330639580869 -7.321884389302,-19.9861263932694 -2.285409157305,-6.2506895978829 -4.491253461102,-12.5291546222599 -6.514380234123,-18.8698707079056 -1.535660735361,-4.7072940334299 -2.805978482574,-9.4839268994385 -3.836923231983,-14.324656644618 -1.045294780723,-3.64866178056432 -1.333686943327,-7.39261477864432 -1.352610490366,-11.1664653789345 0.07257655738,-7.68541598061276 1.616171308394,-17.05220062837334 8.233374694232,-21.83113113407147 3.14022372573,-1.86141448505489 6.57240667015,-1.81626342214214 10.084383834849,-1.57374583027696 3.939669546145,0.57591753407769 7.697300854576,1.9305558220333 11.420465969832,3.29042067487262 4.805136252754,1.62083732661131 9.210483691538,4.15321059238252 13.576197423791,6.68732211740961 5.251306919366,3.06962930488865 9.986911247313,6.90120527671162 14.738421350019,10.67362105943769 4.808321765727,3.99843701645544 9.480563718474,8.14974428994765 13.879340842775,12.59526687654132 3.71791623791,3.9208041512272 7.361615236813,7.9098869288739 11.066420509081,11.8430569643701 2.814137698658,2.8576769941713 5.397035352415,5.9227264162403 7.987766681538,8.980095033722 1.560900517675,1.7453312283487 2.952956915876,3.6514984579014 4.658985365099,5.2593759687251 0.990144510097,0.983993007608 0.37231172059,0.3708701280264 1.855212281212,1.8376399519071 3.949081410768,3.7500730570084 -6.657726943454,14.9197620370557 -10.606808354222,11.1696889800473 v 0 c 0.423400655997,0.2762309413242 0.846801311997,0.5524618826485 1.270201967995,0.8286928239727 -0.03377953927,-0.039925332946 -0.06755907854,-0.079850665892 -0.101338617812,-0.1197759988372 -2.17523508802,-1.432503453985 -3.926978566837,-3.2862220821319 -5.588881671846,-5.2853362315437 -2.709952319362,-2.828962971155 -5.182601457093,-5.8792478907805 -8.006080082627,-8.6032706782509 -3.805966661662,-3.7820955920252 -7.544866320196,-7.6210841427601 -11.20692187359,-11.5453261675471 -4.24568222987,-4.3181715645246 -8.770327588493,-8.3201684873761 -13.36148576391,-12.2679659111438 -4.586849140663,-3.6367779294044 -9.101731379052,-7.40791882416897 -14.075517393786,-10.51318996554984 -4.044063494105,-2.49204165834476 -8.135426321302,-4.94718337957212 -12.61640024841,-6.58656367988486 -3.249953628839,-1.2190860761616 -6.497586758295,-2.61026854661418 -9.977594731573,-2.99886297986406 -2.190467145898,-0.0860390776973 -4.55883683106,-0.0591038599555 -5.621401093797,2.21462867496395 -1.376701235939,5.15084321380958 -0.546729615698,1.84698431876471 5.02913330424,-11.03450661477177 0.164353091744,-0.37969241561338 -0.429571183563,0.71349345447673 -0.569491246046,1.10285272989584 -0.500747866755,1.39344439322942 -0.671112457257,2.96614123769473 -0.705177648298,4.43035494246624 -0.135588107505,3.40375304777241 -0.394392749866,6.89636203823012 0.577810562043,10.20551469421366 1.215216341465,4.60773484569222 2.116676095295,9.30389088983702 3.866722122332,13.76202573590194 1.896779518275,6.2361382298554 4.313431340357,12.3045012917823 6.517607051838,18.4360747791384 2.50056061874,6.7087602503338 4.931863315546,13.4450554380738 7.292453809178,20.2037230373553 1.70608543126,5.1689093348609 3.633605511091,10.2750438109027 4.869275207938,15.5854954700294 4.380938203418,3.4639785526914 -5.416672694554,15.8551429990739 -9.797610897971,12.3911644463824 z"
           inkscape:connector-curvature="0"
           transform="matrix(0.1163728622926576,0.0671879033710331,-0.0671879033710331,0.1163728622926576,180.5804959616178,72.31950824234883)" />
        <path
           style="opacity:1;vector-effect:none;fill:#000000;fill-opacity:1;stroke:none;stroke-width:7.5590553284;stroke-linecap:round;stroke-linejoin:round;stroke-miterlimit:4;stroke-dasharray:none;stroke-dashoffset:0;stroke-opacity:1;paint-order:stroke markers fill"
           id="path9830"
           d="m 1055.171196111034,130.1981479678873 c 3.939138567991,-3.3298253736969 8.320064659933,-6.1111185780505 12.51542420952,-9.1092846532308 4.784310158407,-3.5806342991559 9.688157333064,-6.9966245741585 14.489923776359,-10.5531833539594 4.576276295501,-2.8917224233572 9.106460032209,-5.8511081748441 13.651375887368,-8.7902263597246 3.595221190704,-2.44924717855359 7.281905310438,-4.78324985340238 11.121975638032,-6.83106758276382 3.118819466064,-1.89983366457473 6.387846158063,-3.60525314824254 9.256515122835,-5.87829417064765 1.47172215964,-0.87758391561917 0.833487083309,-0.44047788217425 1.943097878533,-1.26886638724794 5.553042728802,0.63417532879221 3.759324027001,16.34055200781061 -1.793718701801,15.70637667901832 v 0 c -1.32222223164,0.979009257474 -0.635870233666,0.4598483176717 -2.055958706514,1.5615691195492 -3.191895989054,2.0993540762463 -6.43145463844,4.120766942875 -9.773536654528,5.9754822756345 -3.6849726818,2.2671712881647 -7.299738492516,4.6380885727613 -10.861500714001,7.0949268475083 -4.49769109633,2.9834915127228 -8.997767381231,5.9700756395662 -13.411677628519,9.0752161289404 -4.846344867134,3.5469302612721 -9.728748890151,7.045066914085 -14.612535475414,10.5401510909519 -4.072702904281,2.7852282308588 -8.174995906789,5.5390769441662 -12.350774789801,8.1648873940182 -5.546434939332,-0.6651718693651 -3.665044781401,-16.3528588974118 1.881390157931,-15.6876870280466 z"
           inkscape:connector-curvature="0"
           transform="matrix(0.1163728622926576,0.0671879033710331,-0.0671879033710331,0.1163728622926576,180.5804959616178,72.31950824234883)" />
        <path
           style="opacity:1;vector-effect:none;fill:#000000;fill-opacity:1;stroke:none;stroke-width:7.5590553284;stroke-linecap:round;stroke-linejoin:round;stroke-miterlimit:4;stroke-dasharray:none;stroke-dashoffset:0;stroke-opacity:1;paint-order:stroke markers fill"
           id="path9832"
           d="m 1131.23581657615,47.63821362101726 c 3.737496480916,3.09428560361607 6.941079603757,6.81285185559977 10.076284445437,10.50376901365416 3.21724573687,3.80929359147763 6.202389790358,7.80534905614763 9.070113968183,11.88197596005216 2.620404284448,3.81214629485771 5.083014710551,7.72250091325962 7.321688609684,11.77000252481957 1.713046892267,3.17316701722551 3.27339145691,6.42516768971312 4.937788670326,9.62273103544294 0.547061483055,1.08495507774704 1.182615975446,2.12127429169503 1.79455257441,3.17007588170759 0.543157932873,0.93092144609295 0.827206305655,1.27629400536898 0.650310701009,1.25465209729873 -0.391516100346,-0.0478991858993 -0.706987955315,-0.34997826560722 -1.060481932973,-0.52496739841081 -2.76374363742,4.16071020417961 -5.52748727484,8.3214204083595 -8.29123091226,12.48213061253929 -4.508570030713,-3.2956735731065 4.813002497771,-16.04783534179317 9.321572528484,-12.75216176868661 v 0 c -2.446636781181,4.76267026230836 -4.893273562362,9.52534052461671 -7.339910343543,14.2880107869248 -2.189380954219,-1.0438080175454 -3.216821153205,-2.9497858764839 -4.536493516021,-4.9654926112146 -1.667721189708,-3.1110773774089 -3.411459761558,-6.17667755498674 -5.044865444752,-9.3061474853866 -2.169512176562,-3.90205255035086 -4.498922145991,-7.68943422936877 -6.922266310462,-11.44029385107662 -2.760562863845,-3.95332338100775 -5.7297533804,-7.75943551507838 -8.824490932351,-11.45631056846082 -3.073193037717,-3.68227231387685 -6.305431546268,-7.23059299190095 -9.286658819028,-10.99058060367177 -4.786191416102,-2.87583393706382 3.347895297755,-16.41322756259524 8.134086713857,-13.53739362553142 z"
           inkscape:connector-curvature="0"
           transform="matrix(0.1163728622926576,0.0671879033710331,-0.0671879033710331,0.1163728622926576,180.5804959616178,72.31950824234883)" />
        <path
           style="opacity:1;vector-effect:none;fill:#000000;fill-opacity:1;stroke:none;stroke-width:7.5590553284;stroke-linecap:round;stroke-linejoin:round;stroke-miterlimit:4;stroke-dasharray:none;stroke-dashoffset:0;stroke-opacity:1;paint-order:stroke markers fill"
           id="path9834"
           d="m 1124.321569193895,45.09395200449581 c 3.256742765461,-3.85130309380338 7.170783824169,-7.06964428904802 10.916903784908,-10.42640162238512 3.73744950532,-3.08725714337608 7.876280745746,-5.6638097353523 12.178446738643,-7.88336506288739 3.526801596457,-1.66506717300127 7.180862532606,-3.00559475135106 10.866374826348,-4.2694703581758 3.447032513083,-1.16634867982748 6.887354640849,-2.2496646535219 10.466512511443,-2.93800568557208 4.025857817895,-0.47786567565004 7.023557585717,1.23605549866306 9.017959075347,4.64964987177132 1.16569191924,3.4921989296954 -0.213116431542,6.83949281172909 -1.464904477259,10.09193207943963 -3.026923125072,6.62136565332821 -0.873922848423,1.9345775594345 -7.852394212087,16.58136637420876 -0.277607817392,0.58265812995023 -1.118341099155,2.32679867525983 -0.844640935762,1.74229476831578 11.658932667535,-24.89838372947454 1.838119201549,-3.63834110264087 -2.381088125483,4.86372435476165 1.807712211794,-3.84515404716876 7.153837242471,-15.4158884706294 5.423136635383,-11.53546214150629 -2.177362921344,4.88189371023168 -4.516751705097,9.68991028584378 -6.763335263212,14.54033890666187 -1.782683769712,3.84885767869582 7.123571169267,-15.39857095775573 5.371633592612,-11.53562110289635 -2.213723332184,4.88116833539857 -4.550004272222,9.70620468534457 -6.757045866663,14.59039783369144 -2.664325527019,5.89616458375894 8.211805433226,-17.67894990986793 4.66419481606,-9.99081095745351 -1.087364322585,2.4361823668155 -1.982544623086,4.95384075438915 -2.132841293722,7.63286175636745 0.361971261775,1.93125872257225 3.084063269784,2.37434605810927 4.691625358875,2.78707268088715 3.342141108068,0.74401562470052 6.681870112623,1.3871769496991 10.08440220485,1.77932448181969 3.731688764422,0.40461966018938 7.484247542993,0.53617569253923 11.234484058297,0.61717088400813 3.495568639459,0.0582114408835 6.991778602632,0.0442540195377 10.487651556887,0.0332378376225 2.274999291355,-0.59583253502636 4.655070207564,-0.17004660461133 6.936869612098,-0.48152661309838 5.376437887084,1.49234011713112 1.155462620442,16.69920287147238 -4.220975266641,15.2068627543413 v 0 c -2.512881609317,0.258827029779 -5.019738199205,0.62760694131609 -7.549170449551,0.67413857987438 -3.54215717705,0.0197432658515 -7.08470186465,0.0452277035945 -10.626685975772,-0.009517276888 -3.927634941819,-0.0837991045255 -7.861143405419,-0.22361703746219 -11.759224449002,-0.7469563631019 -3.607107510167,-0.5386408268066 -7.16494025262,-1.3203974287228 -10.698886175006,-2.22049073691072 -3.293212998693,-1.04624550610606 -6.466672395482,-2.49681940814935 -8.619386432312,-5.31946597082856 -1.68825365776,-3.17053768243501 -1.539811586016,-6.44876069854672 -0.38032862614,-9.81698968867904 2.333711430912,-6.68401493113991 0.445607387192,-1.4482001375452 7.33314440756,-16.26355802857412 1.783758249267,-3.8369328216795 -7.078468959794,15.37386747300435 -5.321466722186,11.52460908898365 2.219676317603,-4.86288946733635 4.527253562517,-9.68572416904135 6.709499472584,-14.56552536524374 0.458300605424,-1.02482301937404 -17.343538313852,37.39054161931125 1.44715379844,-3.0411282243481 0.260035143805,-0.52386238308462 1.025299677814,-2.10255782071863 0.780105431412,-1.57158714925388 -1.771145989466,3.83543492186255 -7.153586719008,15.30967625156265 -5.358211518874,11.48552313661162 2.327122243333,-4.95677548349908 4.618935270267,-9.93010285255263 6.953456287381,-14.88339799315147 0.277692030106,-0.58919605916114 1.154578267128,-2.33523325783563 0.882808843048,-1.74328204375567 -1.74720134017,3.80564501710569 -3.543780592265,7.58842966444717 -5.309611045172,11.38546657905475 -0.267162349536,0.57447491728864 0.542393271116,-1.14516293419797 0.813589906674,-1.71774440129706 1.432696065749,-2.63580288962249 2.641843237946,-5.38303986954474 3.873284926482,-8.11123135394746 1.656816905718,-1.99899026260917 -1.364259291332,-1.15695898509398 -2.5120927982,-0.94890885038354 -3.347524741883,0.83790034455457 -6.602573547234,1.97905451146494 -9.858434178293,3.11617490528672 -3.45179244783,1.31312919830588 -6.908529129832,2.64798371595566 -10.086904644842,4.55737540198403 -3.955807342423,2.45075873499128 -7.783257633233,5.10453219048532 -11.159839789871,8.32908878889361 -3.552991617378,3.1672948851185 -7.049698564518,6.39363278986321 -10.577445832417,9.58654005875632 -5.570129064017,-0.38950136756057 -4.468452830884,-16.14420550056411 1.101676233135,-15.75470413300355 z"
           inkscape:connector-curvature="0"
           transform="matrix(0.1163728622926576,0.0671879033710331,-0.0671879033710331,0.1163728622926576,180.5804959616178,72.31950824234883)" />
        <path
           style="opacity:1;vector-effect:none;fill:#000000;fill-opacity:1;stroke:none;stroke-width:7.5590553284;stroke-linecap:round;stroke-linejoin:round;stroke-miterlimit:4;stroke-dasharray:none;stroke-dashoffset:0;stroke-opacity:1;paint-order:stroke markers fill"
           id="path9836"
           d="m 1233.841580388229,1.945372767343315 c -4.336860874634,1.048117117554966 -8.442067185547,2.672062396627326 -12.55068539411,4.387509378076857 -3.287501697797,1.720000072246876 -6.894812510064,3.207384710081214 -9.333378909498,6.098859720368868 -1.267682905806,1.60979751132777 -2.45458783953,3.25409552008113 -3.176161144869,5.18898275657374 -0.180889701169,0.4850528302759 -0.6947109543,1.94619578569291 -0.467600588394,1.48098807526049 1.856498651413,-3.8028096322198 3.574890900761,-7.67150235703889 5.362336351142,-11.507253535558447 -1.649660793096,3.167571783203127 -2.39800978558,6.613244462221697 -2.916304047849,10.113947580164676 -0.524947793001,3.4214220968031 -0.422960421614,6.88700220078112 0.203888191758,10.28317308602982 0.677615515314,3.05135599839946 2.215241761211,5.82764015366615 4.074982502558,8.30981063952118 2.114393196977,2.73416519908778 5.051590439702,4.19059890837843 8.254785798425,5.25109312909921 3.557354237391,1.07508750008583 7.226918217668,1.11820278657797 10.891130780816,0.79887119134355 3.667079018667,-0.29440931443105 7.196251005059,-1.43485616254474 10.546724495877,-2.90765465745357 3.285380522899,-1.32844985222664 6.426418280181,-2.97912483214214 9.417913037571,-4.87529863577356 2.924738767198,-1.86554857668194 5.638436998365,-3.98441434079133 8.336434174996,-6.16067574580939 2.468838337339,-1.82217483169439 5.054802767181,-3.58118005482129 7.222293810131,-5.76534853624094 1.120483407901,-0.69411858397348 1.821803646906,-1.62663079470212 2.474914540787,-2.7324736237158 5.623050740534,0.26075963355651 4.885511119944,16.16514887190669 -0.73753962059,15.90438923835018 v 0 c -1.039836907117,0.92597040546616 -2.119307216069,1.80224193570029 -3.138646288128,2.75092573432152 -2.501531915687,1.98287905298595 -4.972687467361,4.00186707048488 -7.535791912822,5.90701740312921 -2.877269570703,2.1822231710771 -5.809998252928,4.28374112789379 -8.956371547757,6.06950449055239 -3.301690764991,1.82921428777308 -6.655483224379,3.56055858487615 -10.21877628228,4.83578665937648 -3.893836525974,1.34160409402624 -7.873268949489,2.4338046892483 -12.016354374384,2.59907757576435 -4.289063858904,0.1781413961571 -8.557772551266,-0.18814890306932 -12.67653784585,-1.4790599066505 -4.058131504547,-1.41805035369294 -7.758765875126,-3.36686953405593 -10.659419515878,-6.62799151954892 -2.415331793536,-2.89423094786251 -4.387929663058,-6.06746279784965 -5.718679426708,-9.6138152092542 -1.091317941044,-3.67884027322178 -1.841850504371,-7.47973748049481 -1.531114986849,-11.34166851869395 0.291323790038,-3.82581169493346 0.666371534223,-7.69117449119631 2.041917215675,-11.30633948747754 3.604371997609,-7.829608547797533 5.745260808348,-15.622833168101545 12.268964721871,-21.201309922470468 3.438201740675,-2.547602114988877 7.158785340241,-4.685478541929794 11.114710857709,-6.330546463687594 4.362980306946,-1.711093641759398 8.871144865481,-3.185703602988307 13.599742111907,-3.335239164658827 5.37568676811,1.47692569792912 1.198310062853,16.681663966990335 -4.177376705257,15.204738269061184 z"
           inkscape:connector-curvature="0"
           transform="matrix(0.1163728622926576,0.0671879033710331,-0.0671879033710331,0.1163728622926576,180.5804959616178,72.31950824234883)" />
        <path
           style="opacity:1;vector-effect:none;fill:#000000;fill-opacity:1;stroke:none;stroke-width:7.5590553284;stroke-linecap:round;stroke-linejoin:round;stroke-miterlimit:4;stroke-dasharray:none;stroke-dashoffset:0;stroke-opacity:1;paint-order:stroke markers fill"
           id="path9838"
           d="m 1284.145758396073,-39.97771011871646 c -3.663910405044,2.294983595046 -7.294541634574,4.6692972668875 -10.840457845439,7.14975803765583 -3.261224135003,2.17578444326887 -6.63104008127,4.29012112065289 -9.534815894285,6.93969076250869 -2.433050000256,1.82469571918 -4.676860489604,3.90921484335581 -6.648535754085,6.21915400523267 -0.187214014778,0.33277777915259 -0.44481533325,0.63482039792984 -0.561642044334,0.99833333745778 -1.298370024615,4.03995199268183 3.758737167666,-7.61527323110795 5.397187458397,-11.52966430365018 0.06625138794,-0.15827995696827 -0.313205456245,0.18370780863552 -0.388217027585,0.33802908178836 -0.218434635256,0.4493854802829 0.386504886054,1.00791546015717 0.546270729897,1.23858662810767 2.073666271064,2.04079844806938 4.384992094683,3.86439749951319 6.631740219476,5.72289565787492 2.915486917636,2.47977004302379 5.909663785569,4.86125189372205 8.976810153955,7.15034679954123 3.447158320344,2.43817206930226 6.821031515406,4.97969241668057 10.093964947122,7.646979447913536 2.875765688624,2.264527681302519 5.528541903143,4.79506745373328 8.163559919701,7.3308511772479487 2.327730613556,2.1804080102838279 4.412164969303,4.6304899516496771 6.815060019606,6.7278352258133544 1.643492950905,0.885341624572674 3.151146104448,-1.065846481842072 4.391905655406,-1.930189773310985 2.072554805234,-1.815119931629174 4.044658988754,-3.6791806077080808 5.816507819685,-5.795378954773474 2.185047141336,-2.106164349340816 4.094687012351,-4.463425632194241 6.380404831401,-6.471585019985927 2.10648857151,-2.138051275473133 4.369155654656,-4.173316414620573 6.677276674149,-6.103498674265684 0.211301666495,-0.24695338949755 0.422603332992,-0.49390677899487 0.633904999488,-0.74086016849264 5.591793661017,0.37750740877186 4.524041466254,16.193488275578836 -1.067752194764,15.8159808668069743 v 0 c -0.31899159493,0.2919092942570395 -0.63798318986,0.5838185885138495 -0.95697478479,0.8757278827708903 -2.158386400477,2.04607571682254 -4.448844625272,3.948128791574619 -6.468466230197,6.137981749832765 -2.015281456847,2.193210339160482 -4.110217155285,4.309872539702152 -6.160535735604,6.469690530235751 -2.203536873217,2.11641946090526 -4.519624807401,4.17994707620028 -7.227599211609,5.63045374476519 -3.186707131404,1.52651709215843 -6.49309571424,1.84463731730875 -9.697563694128,0.09492601943 -2.762555002139,-1.93546493989993 -5.0542760898,-4.40804988212741 -7.376610687089,-6.8400833261091 -2.509932026422,-2.44114585453054 -5.044475356014,-4.893288520457226 -7.869993242952,-6.97026207384763 -3.238492561704,-2.590798054841574 -6.529214270241,-5.122897139338654 -9.892650606933,-7.550389107659621 -3.188958569462,-2.311078699187874 -6.247147362081,-4.80375448416794 -9.182000214464,-7.429492105382904 -2.491335486868,-2.123246749204117 -4.964501873001,-4.266778225418447 -7.37661589258,-6.479585448056497 -0.549167736141,-0.6623343995102 -3.197990117106,-3.15408693631046 -2.919844611092,-4.06895868440958 2.900691837433,-9.54090918109066 2.870334506014,-11.57820009300508 7.648195657858,-16.28030200478317 2.320644488247,-2.16820549251452 4.701799432664,-4.24569697468383 7.175933140231,-6.24016471910363 3.278300698528,-2.53462544408467 6.588864304704,-5.02600689188671 10.08327188668,-7.26094310542704 3.581415204291,-2.31609325391036 7.161318289596,-4.69148132714008 11.089792090502,-6.38768634862209 5.512541838706,0.83138452147137 3.161031307083,16.42320738436797 -2.351510531624,15.59182286289659 z"
           inkscape:connector-curvature="0"
           transform="matrix(0.1163728622926576,0.0671879033710331,-0.0671879033710331,0.1163728622926576,180.5804959616178,72.31950824234883)" />
        <path
           style="opacity:1;vector-effect:none;fill:#000000;fill-opacity:1;stroke:none;stroke-width:7.5590553284;stroke-linecap:round;stroke-linejoin:round;stroke-miterlimit:4;stroke-dasharray:none;stroke-dashoffset:0;stroke-opacity:1;paint-order:stroke markers fill"
           id="path9840"
           d="m 1277.445549383856,-9.117321778557197 c 3.34153802386,-3.355919644547162 7.073238104398,-6.330435724032443 10.897164102987,-9.118030990353872 3.823520597433,-2.80087128628043 7.851910483463,-5.30915366696763 11.843722558962,-7.86044999188698 3.179818809144,-2.25675840821555 6.698341575236,-3.95090555149227 10.027959561579,-5.96720764924726 2.667138643841,-1.38879422305195 5.125094660588,-3.1932915463417 7.901073593839,-4.36102666864008 0.252036368778,-0.11849503856729 0.504072737556,-0.23699007713459 0.756109106334,-0.35548511570164 5.496085766936,0.86570179027603 3.047511341378,16.41097985340823 -2.448574425558,15.54527806313218 v 0 c -0.276095186103,0.16820714270648 -0.552190372206,0.3364142854125 -0.82828555831,0.50462142811898 -2.493675289903,1.6589614614611 -5.16239731302,3.05800104188733 -7.701753826587,4.64811053153062 -3.358065496811,1.96884682818131 -6.66014163558,4.02777574889773 -9.88150947196,6.214156657470799 -3.922957167878,2.566275613479088 -7.79121699919,5.2251366523908 -11.494563969551,8.10160060190128 -3.518254241735,2.792758087648281 -6.984956202178,5.660001824883241 -10.597185514339,8.327604019311367 -5.543424028308,-0.539467264068435 -4.017580185704,-16.218638149703792 1.525843842604,-15.679170885635393 z"
           inkscape:connector-curvature="0"
           transform="matrix(0.1163728622926576,0.0671879033710331,-0.0671879033710331,0.1163728622926576,180.5804959616178,72.31950824234883)" />
      </g>
      <use
         x="0"
         y="0"
         xlink:href="#g9890"
         id="use9892"
         transform="translate(-239.2472161493665)"
         width="100%"
         height="100%" />
    </g>
  </g>
  <g
     inkscape:label="Layer 1"
     inkscape:groupmode="layer"
     id="layer1"
     transform="translate(578.1125011181998,66.35432869214935)"
     style="display:none"
     sodipodi:insensitive="true">
    <image
       sodipodi:absref="D:\deving-games\drim-tim\Drim-Tim-Fase-2\Art\sirope uv.png"
       xlink:href="sirope uv.png"
       transform="matrix(0.2645833333333333,0,0,0.2645833333333333,-578.1125011181998,-66.35432869214935)"
       width="1365.333374023438"
       height="1365.333374023438"
       preserveAspectRatio="none"
       id="image9770" />
  </g>
</svg>
