<?xml version="1.0" encoding="UTF-8" standalone="no"?>
<!-- Created with Inkscape (http://www.inkscape.org/) -->

<svg
   xmlns:dc="http://purl.org/dc/elements/1.1/"
   xmlns:cc="http://creativecommons.org/ns#"
   xmlns:rdf="http://www.w3.org/1999/02/22-rdf-syntax-ns#"
   xmlns:svg="http://www.w3.org/2000/svg"
   xmlns="http://www.w3.org/2000/svg"
   xmlns:xlink="http://www.w3.org/1999/xlink"
   xmlns:sodipodi="http://sodipodi.sourceforge.net/DTD/sodipodi-0.dtd"
   xmlns:inkscape="http://www.inkscape.org/namespaces/inkscape"
   width="361.2444458007812mm"
   height="361.2444458007812mm"
   viewBox="0 0 361.2444458007812 361.2444458007813"
   version="1.1"
   id="svg4681"
   inkscape:version="0.92.1 r15371"
   sodipodi:docname="wine label.svg"
   inkscape:export-filename="../Assets/Textures/tequila label.png"
   inkscape:export-xdpi="96"
   inkscape:export-ydpi="96">
  <defs
     id="defs4675" />
  <sodipodi:namedview
     id="base"
     pagecolor="#ffffff"
     bordercolor="#666666"
     borderopacity="1.0"
     inkscape:pageopacity="0.0"
     inkscape:pageshadow="2"
     inkscape:zoom="0.6998733039459356"
     inkscape:cx="667.4462931443603"
     inkscape:cy="742.3288987090009"
     inkscape:document-units="mm"
     inkscape:current-layer="layer3"
     showgrid="false"
     inkscape:snap-global="false"
     inkscape:window-width="1920"
     inkscape:window-height="1013"
     inkscape:window-x="-9"
     inkscape:window-y="-9"
     inkscape:window-maximized="1" />
  <metadata
     id="metadata4678">
    <rdf:RDF>
      <cc:Work
         rdf:about="">
        <dc:format>image/svg+xml</dc:format>
        <dc:type
           rdf:resource="http://purl.org/dc/dcmitype/StillImage" />
        <dc:title></dc:title>
      </cc:Work>
    </rdf:RDF>
  </metadata>
  <g
     inkscape:groupmode="layer"
     id="layer3"
     inkscape:label="Layer 2">
    <rect
       style="opacity:1;vector-effect:none;fill:#eeeeee;fill-opacity:0.9237667918;stroke:none;stroke-width:2.5356628895;stroke-linecap:round;stroke-linejoin:round;stroke-miterlimit:4;stroke-dasharray:none;stroke-dashoffset:0;stroke-opacity:0.3946188534;paint-order:stroke markers fill"
       id="rect5238"
       width="1004.361450195312"
       height="356.8126220703125"
       x="-1.201389312744141"
       y="440.2636108398438"
       transform="matrix(0.3698996791901369,0,0,0.2649113116694548,-5.271625332116403,-0.2029103432489592)" />
    <g
       id="g5351" />
    <path
       style="opacity:1;vector-effect:none;fill:#eeeeee;fill-opacity:0.9237667907;stroke:none;stroke-width:3;stroke-linecap:round;stroke-linejoin:round;stroke-miterlimit:4;stroke-dasharray:none;stroke-dashoffset:0;stroke-opacity:0.3946188534;paint-order:stroke markers fill"
       id="path5248"
       d="m 934.5640434493639,446.3499281427705 c -1.1183133604341,-2.8245422766804 -1.5511204833238,-5.853682486347 -2.1454637379051,-8.8166183313077 -0.6336868308814,-3.3357463055876 -1.2641907031955,-6.672348116881 -1.889850587919,-10.0099304027451 -0.4044916966031,-2.6819311979247 -1.0111394903737,-5.3255628681677 -1.4971587850705,-7.9925540995195 -0.3978041658214,-2.392651098267 -0.784468053497,-4.777210210902 -0.8533458369734,-7.2050474476184 -0.189146028074,-0.7980983569526 -0.021710689517,-1.6283181228357 -0.094735540709,-2.430893625381 -0.012109946579,-0.133093683897 -0.1849896811849,-0.2923077289482 -0.093627428436,-0.3898449950161 7.6414448925709,-8.1579166581636 5.8023238282453,-10.6882872633678 8.0825376227203,-6.7883936935031 0.9572901927793,2.0331899370144 1.1602859701534,4.2874207487042 1.3307000594575,6.497774536219 0.1231122883454,2.4263736726873 0.5286088224433,4.8277394918987 0.80399356858,7.2400245562514 0.2756132738707,2.455504788688 0.3815915786668,4.9246417965945 0.4494227324176,7.3931637623494 0.1306546508695,2.2525467924082 -0.00357305214,4.4946002322488 -0.102515326567,6.7402412941231 -0.046210475175,0.1583073450749 -0.092420950351,0.3166146901499 -0.1386314255263,0.4749220352249 2.6890375545664,2.8300900546046 -5.3156659213515,10.4358368134018 -8.0047034759181,7.6057467587973 v 0 c -0.010957379365,-0.1488818046416 -0.021914758731,-0.297763609283 -0.032872138097,-0.4466454139246 0.581986022679,-1.963254230049 0.2163855540172,-4.162701540796 0.3277261075765,-6.1905262806068 -0.024832086674,-2.3993404693536 -0.065467253852,-4.8003656564575 -0.2555301869154,-7.1934162761848 -0.2138553743364,-2.4720119317982 -0.5340037041842,-4.9305125848073 -0.9141910718026,-7.3824501378731 -0.036211795609,-1.9741531757277 -0.081300825816,-3.9537565048552 -0.3484911022772,-5.9129727056354 -0.6210647691983,-4.3030108521343 -0.1779115669251,-0.2052187885968 6.8546507382765,-9.3707534331969 0.034639913627,-0.045146180675 -0.1212867877061,-0.1258323360519 -0.1519160001684,-0.077874515109 -0.3018269509895,0.4725868446383 0.2610113284893,1.4219859813952 0.00719919161,1.8951089331248 0.3815491031439,2.3178588858364 0.1499853706496,4.705461373722 0.7348058518221,7.0040632862528 0.3920968868432,2.6415564933338 1.0710767827213,5.2162552477153 1.5340565960918,7.8423206114723 0.6177329042516,3.3017470771412 1.4493909587565,6.5586328497281 1.9216316985614,9.8872677532545 0.6257129002164,3.0112670786434 1.1217484280603,6.0347266973996 1.5799652567728,9.0758677668099 3.0233835579232,2.5115219400409 -4.0802732216836,11.062942003783 -7.1036567796018,8.5514200637421 z"
       inkscape:connector-curvature="0"
       transform="scale(0.2645833333333333)" />
    <g
       id="g5445">
      <path
         transform="scale(0.2645833333333333)"
         inkscape:connector-curvature="0"
         d="m 929.6074919240169,477.2602340451255 c -0.6664010021316,-2.9482291925082 -0.8257294875514,-5.9769460738758 -1.015860461244,-8.9832246841204 -3.1329806948148,-3.043028951847 5.474004933977,-11.904436530368 8.6069856287918,-8.8614075785212 v 0 c -0.074763517504,3.2039941511528 -0.020969340463,6.402044435648 -0.016292072528,9.6064694193952 2.9126304054893,2.6781079239225 -4.662202689531,10.9162707671688 -7.5748330950199,8.2381628432464 z"
         id="path5244"
         style="opacity:1;vector-effect:none;fill:#eeeeee;fill-opacity:0.9237667907;stroke:none;stroke-width:3;stroke-linecap:round;stroke-linejoin:round;stroke-miterlimit:4;stroke-dasharray:none;stroke-dashoffset:0;stroke-opacity:0.3946188534;paint-order:stroke markers fill" />
      <path
         id="rect5250"
         transform="scale(0.2645833333333333)"
         d="M 974.607421875 467.400390625 A 22.5098836095367 22.5098836095367 0 0 1 953.150390625 489.751953125 L 953.150390625 739.88671875 A 22.5098836095367 22.5098836095367 0 0 1 955.705078125 739.7265625 A 22.5098836095367 22.5098836095367 0 0 1 978.21484375 762.236328125 A 22.5098836095367 22.5098836095367 0 0 1 977.615234375 767.27734375 L 1234.13671875 767.27734375 A 22.5098836095367 22.5098836095367 0 0 1 1233.54296875 762.236328125 A 22.5098836095367 22.5098836095367 0 0 1 1256.052734375 739.7265625 A 22.5098836095367 22.5098836095367 0 0 1 1256.42578125 739.740234375 L 1256.42578125 487.97265625 A 22.5098836095367 22.5098836095367 0 0 1 1234.83984375 467.400390625 L 974.607421875 467.400390625 z "
         style="opacity:1;vector-effect:none;fill:none;fill-opacity:0.9237667907;stroke:#585858;stroke-width:7.5590551181;stroke-linecap:round;stroke-linejoin:round;stroke-miterlimit:4;stroke-dasharray:none;stroke-dashoffset:0;stroke-opacity:1;paint-order:stroke markers fill" />
      <path
         id="rect5252"
         transform="scale(0.2645833333333333)"
         d="M 990.806640625 483.619140625 A 42.04862594604492 42.04862594604492 0 0 1 969.548828125 505.5078125 L 969.548828125 722.58203125 A 42.04862594604492 42.04862594604492 0 0 1 996.193359375 751.05859375 L 1215.521484375 751.05859375 A 42.04862594604492 42.04862594604492 0 0 1 1240.02734375 723.37890625 L 1240.02734375 503.79296875 A 42.04862594604492 42.04862594604492 0 0 1 1219.369140625 483.619140625 L 990.806640625 483.619140625 z "
         style="opacity:1;vector-effect:none;fill:none;fill-opacity:0.9237667907;stroke:#585858;stroke-width:7.5590553284;stroke-linecap:round;stroke-linejoin:round;stroke-miterlimit:4;stroke-dasharray:none;stroke-dashoffset:0;stroke-opacity:1;paint-order:stroke markers fill" />
      <g
         id="g5559"
         transform="matrix(0.593301193695113,0,0,0.5933011936951132,100.1041665443166,84.83907073451484)">
        <g
           id="g5386"
           transform="matrix(1.531787717167419,0,0,1.531787717167421,-131.8781203243779,-79.71854153190939)">
          <path
             transform="scale(0.2645833333333333)"
             style="opacity:1;vector-effect:none;fill:none;fill-opacity:1;stroke:#684731;stroke-width:7.5590553284;stroke-linecap:round;stroke-linejoin:round;stroke-miterlimit:4;stroke-dasharray:none;stroke-dashoffset:0;stroke-opacity:1;paint-order:stroke markers fill"
             d="m 1019.078492581716,591.9389978377846 c 15.317713858435,-18.6215344945673 60.369813442065,-35.1406376752318 60.369813442065,-35.1406376752318 0,0 16.819450511222,41.4479316169402 2.102431313903,59.7691187809495"
             id="path5345"
             inkscape:connector-curvature="0" />
          <path
             style="opacity:1;vector-effect:none;fill:none;fill-opacity:1;stroke:#684731;stroke-width:7.5590553284;stroke-linecap:round;stroke-linejoin:round;stroke-miterlimit:4;stroke-dasharray:none;stroke-dashoffset:0;stroke-opacity:1;paint-order:stroke markers fill"
             d="m 1077.646222040436,559.2011388070134 c 0,0 14.416671866761,-23.1267444529302 32.437511700213,-21.9253551307003"
             id="path5347"
             inkscape:connector-curvature="0"
             transform="matrix(0.2645833333333333,0,0,0.2645833333333333,0.6742989885994391,-0.4495326590662218)" />
          <path
             transform="scale(0.2645833333333333)"
             inkscape:connector-curvature="0"
             id="path5353"
             d="m 1079.727892295879,543.8566849202782 c 0,0 2.33615397625,-28.8833582518173 -25.910071372953,-24.2110502993177 0,25.0605608361359 25.910071372953,24.2110502993177 25.910071372953,24.2110502993177 z"
             style="opacity:1;vector-effect:none;fill:#3ba33b;fill-opacity:1;stroke:none;stroke-width:7.5590553284;stroke-linecap:round;stroke-linejoin:round;stroke-miterlimit:4;stroke-dasharray:none;stroke-dashoffset:0;stroke-opacity:1;paint-order:stroke markers fill" />
          <path
             transform="scale(0.2645833333333333)"
             sodipodi:nodetypes="ccc"
             style="opacity:1;vector-effect:none;fill:#3b7a3b;fill-opacity:1;stroke:none;stroke-width:7.5590553284;stroke-linecap:round;stroke-linejoin:round;stroke-miterlimit:4;stroke-dasharray:none;stroke-dashoffset:0;stroke-opacity:1;paint-order:stroke markers fill"
             d="m 1079.727892295879,543.8566849202782 -25.910071372953,-24.2110502993177 c 0,25.0605608361359 25.910071372953,24.2110502993177 25.910071372953,24.2110502993177 z"
             id="path5355"
             inkscape:connector-curvature="0" />
          <g
             transform="rotate(25.17088525845345,280.7492225322911,135.8971118685724)"
             id="g5343">
            <g
               id="g5291">
              <circle
                 transform="scale(0.2645833333333333)"
                 r="25.06056022644043"
                 cy="627.533447265625"
                 cx="1051.694091796875"
                 id="path5279"
                 style="opacity:1;vector-effect:none;fill:#901758;fill-opacity:1;stroke:none;stroke-width:7.5590553284;stroke-linecap:round;stroke-linejoin:round;stroke-miterlimit:4;stroke-dasharray:none;stroke-dashoffset:0;stroke-opacity:1;paint-order:stroke markers fill" />
              <circle
                 style="opacity:1;vector-effect:none;fill:#aa1665;fill-opacity:1;stroke:none;stroke-width:8.638920784;stroke-linecap:round;stroke-linejoin:round;stroke-miterlimit:4;stroke-dasharray:none;stroke-dashoffset:0;stroke-opacity:1;paint-order:stroke markers fill"
                 id="circle5285"
                 cx="1051.694091796875"
                 cy="627.533447265625"
                 r="25.06056022644043"
                 transform="matrix(0.2315104158581953,0,0,0.2315104158581941,34.31901135252257,20.29078247062432)" />
              <circle
                 style="opacity:1;vector-effect:none;fill:#f22ec2;fill-opacity:1;stroke:none;stroke-width:13.117184639;stroke-linecap:round;stroke-linejoin:round;stroke-miterlimit:4;stroke-dasharray:none;stroke-dashoffset:0;stroke-opacity:1;paint-order:stroke markers fill"
                 id="circle5281"
                 cx="1051.694091796875"
                 cy="627.533447265625"
                 r="25.06056022644043"
                 transform="matrix(0.152471748732206,0,0,0.1524717487322054,116.2213436766785,68.66802608889264)" />
              <circle
                 transform="matrix(0.1031426514868866,0,0,0.1031426514868864,167.4823563970384,99.17415491896082)"
                 r="25.06056022644043"
                 cy="627.533447265625"
                 cx="1051.694091796875"
                 id="circle5283"
                 style="opacity:1;vector-effect:none;fill:#ff5ffa;fill-opacity:1;stroke:none;stroke-width:19.3906211853;stroke-linecap:round;stroke-linejoin:round;stroke-miterlimit:4;stroke-dasharray:none;stroke-dashoffset:0;stroke-opacity:1;paint-order:stroke markers fill" />
            </g>
            <g
               id="g5301"
               transform="translate(10.78878381189804,4.495326588290883)">
              <circle
                 style="opacity:1;vector-effect:none;fill:#901758;fill-opacity:1;stroke:none;stroke-width:7.5590553284;stroke-linecap:round;stroke-linejoin:round;stroke-miterlimit:4;stroke-dasharray:none;stroke-dashoffset:0;stroke-opacity:1;paint-order:stroke markers fill"
                 id="circle5293"
                 cx="1051.694091796875"
                 cy="627.533447265625"
                 r="25.06056022644043"
                 transform="scale(0.2645833333333333)" />
              <circle
                 transform="matrix(0.2315104158581953,0,0,0.2315104158581941,34.31901135252257,20.29078247062432)"
                 r="25.06056022644043"
                 cy="627.533447265625"
                 cx="1051.694091796875"
                 id="circle5295"
                 style="opacity:1;vector-effect:none;fill:#aa1665;fill-opacity:1;stroke:none;stroke-width:8.638920784;stroke-linecap:round;stroke-linejoin:round;stroke-miterlimit:4;stroke-dasharray:none;stroke-dashoffset:0;stroke-opacity:1;paint-order:stroke markers fill" />
              <circle
                 transform="matrix(0.152471748732206,0,0,0.1524717487322054,116.2213436766785,68.66802608889264)"
                 r="25.06056022644043"
                 cy="627.533447265625"
                 cx="1051.694091796875"
                 id="circle5297"
                 style="opacity:1;vector-effect:none;fill:#f22ec2;fill-opacity:1;stroke:none;stroke-width:13.117184639;stroke-linecap:round;stroke-linejoin:round;stroke-miterlimit:4;stroke-dasharray:none;stroke-dashoffset:0;stroke-opacity:1;paint-order:stroke markers fill" />
              <circle
                 style="opacity:1;vector-effect:none;fill:#ff5ffa;fill-opacity:1;stroke:none;stroke-width:19.3906211853;stroke-linecap:round;stroke-linejoin:round;stroke-miterlimit:4;stroke-dasharray:none;stroke-dashoffset:0;stroke-opacity:1;paint-order:stroke markers fill"
                 id="circle5299"
                 cx="1051.694091796875"
                 cy="627.533447265625"
                 r="25.06056022644043"
                 transform="matrix(0.1031426514868866,0,0,0.1031426514868864,167.4823563970384,99.17415491896082)" />
            </g>
            <g
               transform="translate(18.88037167082163,-1.91051380002358)"
               id="g5311">
              <circle
                 transform="scale(0.2645833333333333)"
                 r="25.06056022644043"
                 cy="627.533447265625"
                 cx="1051.694091796875"
                 id="circle5303"
                 style="opacity:1;vector-effect:none;fill:#901758;fill-opacity:1;stroke:none;stroke-width:7.5590553284;stroke-linecap:round;stroke-linejoin:round;stroke-miterlimit:4;stroke-dasharray:none;stroke-dashoffset:0;stroke-opacity:1;paint-order:stroke markers fill" />
              <circle
                 style="opacity:1;vector-effect:none;fill:#aa1665;fill-opacity:1;stroke:none;stroke-width:8.638920784;stroke-linecap:round;stroke-linejoin:round;stroke-miterlimit:4;stroke-dasharray:none;stroke-dashoffset:0;stroke-opacity:1;paint-order:stroke markers fill"
                 id="circle5305"
                 cx="1051.694091796875"
                 cy="627.533447265625"
                 r="25.06056022644043"
                 transform="matrix(0.2315104158581953,0,0,0.2315104158581941,34.31901135252257,20.29078247062432)" />
              <circle
                 style="opacity:1;vector-effect:none;fill:#f22ec2;fill-opacity:1;stroke:none;stroke-width:13.117184639;stroke-linecap:round;stroke-linejoin:round;stroke-miterlimit:4;stroke-dasharray:none;stroke-dashoffset:0;stroke-opacity:1;paint-order:stroke markers fill"
                 id="circle5307"
                 cx="1051.694091796875"
                 cy="627.533447265625"
                 r="25.06056022644043"
                 transform="matrix(0.152471748732206,0,0,0.1524717487322054,116.2213436766785,68.66802608889264)" />
              <circle
                 transform="matrix(0.1031426514868866,0,0,0.1031426514868864,167.4823563970384,99.17415491896082)"
                 r="25.06056022644043"
                 cy="627.533447265625"
                 cx="1051.694091796875"
                 id="circle5309"
                 style="opacity:1;vector-effect:none;fill:#ff5ffa;fill-opacity:1;stroke:none;stroke-width:19.3906211853;stroke-linecap:round;stroke-linejoin:round;stroke-miterlimit:4;stroke-dasharray:none;stroke-dashoffset:0;stroke-opacity:1;paint-order:stroke markers fill" />
            </g>
            <g
               id="g5321"
               transform="translate(8.54112051775264,-5.843924564778038)">
              <circle
                 style="opacity:1;vector-effect:none;fill:#901758;fill-opacity:1;stroke:none;stroke-width:7.5590553284;stroke-linecap:round;stroke-linejoin:round;stroke-miterlimit:4;stroke-dasharray:none;stroke-dashoffset:0;stroke-opacity:1;paint-order:stroke markers fill"
                 id="circle5313"
                 cx="1051.694091796875"
                 cy="627.533447265625"
                 r="25.06056022644043"
                 transform="scale(0.2645833333333333)" />
              <circle
                 transform="matrix(0.2315104158581953,0,0,0.2315104158581941,34.31901135252257,20.29078247062432)"
                 r="25.06056022644043"
                 cy="627.533447265625"
                 cx="1051.694091796875"
                 id="circle5315"
                 style="opacity:1;vector-effect:none;fill:#aa1665;fill-opacity:1;stroke:none;stroke-width:8.638920784;stroke-linecap:round;stroke-linejoin:round;stroke-miterlimit:4;stroke-dasharray:none;stroke-dashoffset:0;stroke-opacity:1;paint-order:stroke markers fill" />
              <circle
                 transform="matrix(0.152471748732206,0,0,0.1524717487322054,116.2213436766785,68.66802608889264)"
                 r="25.06056022644043"
                 cy="627.533447265625"
                 cx="1051.694091796875"
                 id="circle5317"
                 style="opacity:1;vector-effect:none;fill:#f22ec2;fill-opacity:1;stroke:none;stroke-width:13.117184639;stroke-linecap:round;stroke-linejoin:round;stroke-miterlimit:4;stroke-dasharray:none;stroke-dashoffset:0;stroke-opacity:1;paint-order:stroke markers fill" />
              <circle
                 style="opacity:1;vector-effect:none;fill:#ff5ffa;fill-opacity:1;stroke:none;stroke-width:19.3906211853;stroke-linecap:round;stroke-linejoin:round;stroke-miterlimit:4;stroke-dasharray:none;stroke-dashoffset:0;stroke-opacity:1;paint-order:stroke markers fill"
                 id="circle5319"
                 cx="1051.694091796875"
                 cy="627.533447265625"
                 r="25.06056022644043"
                 transform="matrix(0.1031426514868866,0,0,0.1031426514868864,167.4823563970384,99.17415491896082)" />
            </g>
          </g>
        </g>
        <path
           style="opacity:1;vector-effect:none;fill:#ffffff;fill-opacity:1;stroke:none;stroke-width:7.5590553284;stroke-linecap:round;stroke-linejoin:round;stroke-miterlimit:4;stroke-dasharray:none;stroke-dashoffset:0;stroke-opacity:1;paint-order:stroke markers fill"
           id="path5390"
           d="m 1027.078016234507,606.7337381758276 c 1.150461591375,-0.8670592500738 2.470236211966,-1.4509476146849 3.815937761931,-1.9404132975933 1.744959456646,-0.611665568331 3.56262514519,-0.7932877377241 5.398656896062,-0.7401411835351 1.786764921607,0.1289216356026 3.49453271183,0.7184649113287 5.165933549165,1.3269916495129 1.445275201033,0.5760859628263 2.855857179463,1.2303890751524 4.260128345896,1.8985958286986 0.181987032257,0.081840550341 0.363974064514,0.1636811006829 0.545961096771,0.2455216510242 1.328345590471,0.6029357915625 -0.377014356865,4.3600644906851 -1.705359947335,3.757128699123 v 0 c -0.194215814814,-0.078191434452 -0.388431629628,-0.1563828689042 -0.582647444442,-0.2345743033567 -1.399429242899,-0.6029174966394 -2.797469704304,-1.2091581505448 -4.213887798225,-1.7716988642079 -1.539124984825,-0.5657349571862 -3.112752132558,-1.1066753684869 -4.767266996181,-1.167983081319 -1.686375973629,0.00388116372 -3.346892827656,0.2373327270791 -4.930868855824,0.844872010274 -1.197523309276,0.4730565192374 -2.365292981758,1.0160677554226 -3.456934147797,1.7036226525296 -1.386608736296,-0.1662929675167 -0.916261196317,-4.088214728667 0.470347539979,-3.9219217611503 z"
           inkscape:connector-curvature="0"
           transform="scale(0.2645833333333333)" />
        <path
           style="opacity:1;vector-effect:none;fill:#ffffff;fill-opacity:1;stroke:none;stroke-width:7.5590553284;stroke-linecap:round;stroke-linejoin:round;stroke-miterlimit:4;stroke-dasharray:none;stroke-dashoffset:0;stroke-opacity:1;paint-order:stroke markers fill"
           id="path5392"
           d="m 1082.593583660112,602.4478998899267 c 1.033558339747,-1.1068578642293 2.259501287159,-1.9654011948137 3.544578356166,-2.74997110033 1.751103729783,-1.0411821803375 3.703228540931,-1.6466842031282 5.673867396051,-2.110355126749 2.062191552113,-0.4656461837643 4.173346054227,-0.412199047614 6.259570402848,-0.1803528145679 1.841382263425,0.2550144270697 3.566711548325,0.901090877328 5.195031144083,1.7760133513007 0.631229294334,0.3668709586927 1.232239494938,0.7809011810674 1.831533839058,1.1967263220763 1.298625132461,0.6827322505072 -0.632433283812,4.3557988000368 -1.931058416273,3.6730665495297 v 0 c -0.568020778227,-0.3748550897433 -1.142311301582,-0.7390124523272 -1.734332533035,-1.0753526153842 -1.501490782433,-0.764430858482 -3.092902547404,-1.3275636381793 -4.780146286149,-1.4967397115953 -1.955761017814,-0.1702298333621 -3.925059147834,-0.1793982016222 -5.840379277513,0.3194670654929 -1.839153156463,0.4744241575964 -3.640307411765,1.0947672973126 -5.256580297108,2.1156763880857 -1.143346606341,0.7394974517168 -2.216115687525,1.5694575453932 -3.237503386702,2.4704977295481 -1.392532267474,-0.097375341993 -1.1171132089,-4.0360513794003 0.275419058574,-3.938676037407 z"
           inkscape:connector-curvature="0"
           transform="scale(0.2645833333333333)" />
        <path
           style="opacity:1;vector-effect:none;fill:#ffffff;fill-opacity:1;stroke:none;stroke-width:7.5590553284;stroke-linecap:round;stroke-linejoin:round;stroke-miterlimit:4;stroke-dasharray:none;stroke-dashoffset:0;stroke-opacity:1;paint-order:stroke markers fill"
           id="path5394"
           d="m 1060.288950321424,668.2534770933931 c 0.630300287828,-1.2644629291287 1.373585620732,-2.4724029164429 2.127979645529,-3.6663327043983 0.914806964427,-1.3066978694799 1.999593656499,-2.4783166428341 3.108161047389,-3.6202251769578 0.848385996179,-0.8686017501077 1.881359480076,-1.4032412616777 3.042671337311,-1.7065214356439 1.401486808475,0.2961240643983 0.56392147244,4.2601273684611 -0.837565336034,3.9640033040624 v 0 c -0.97715538564,0.4233558848412 -1.762460268768,1.1086366171825 -2.454320253671,1.9143279774969 -1.040485906136,1.1569284481067 -2.049055097399,2.3501169768554 -2.865672285579,3.6795966377705 -0.693783648212,1.1256523376429 -1.373843041336,2.2603632791504 -2.081588291072,3.376989233637 -1.393650132075,0.014024000663 -1.433315995948,-3.9278138353035 -0.03966586387,-3.9418378359668 z"
           inkscape:connector-curvature="0"
           transform="scale(0.2645833333333333)" />
        <path
           style="opacity:1;vector-effect:none;fill:#ffffff;fill-opacity:1;stroke:none;stroke-width:7.5590553284;stroke-linecap:round;stroke-linejoin:round;stroke-miterlimit:4;stroke-dasharray:none;stroke-dashoffset:0;stroke-opacity:1;paint-order:stroke markers fill"
           id="path5398"
           d="m 1139.396174768203,641.2236138802071 c 1.154470697898,-0.5086430975458 2.395985136886,-0.7804112263677 3.64534546495,-0.9132928790658 1.403837548347,-0.1134994433022 2.805963018435,0.080516745712 4.180047034969,0.3533259334122 1.21589758885,0.2625724759483 2.394992312777,0.6671924793553 3.559231044806,1.1000929635878 0.911723651012,0.3426563750774 1.810991458679,0.7167265449383 2.695613606361,1.1237691034844 0.490071805498,0.2703917880048 0.254239563685,0.137937182943 0.707885826566,0.3966702339798 1.270449789054,0.6251839998898 -0.497837594192,4.2185586438771 -1.768287383246,3.5933746439873 v 0 c -0.416907028524,-0.2242649101421 -0.209663522674,-0.1153608447105 -0.62159417701,-0.3269715195145 -0.869710450458,-0.3697984100164 -1.752455269151,-0.7104834681056 -2.641572726781,-1.0302925189397 -1.112204126138,-0.3849548489518 -2.239214243049,-0.7352892604281 -3.391390545192,-0.9800894558647 -1.259568591688,-0.2142345071616 -2.542152086986,-0.3835060384196 -3.818913884552,-0.2173482422103 -1.126707266512,0.171604495009 -2.227921771906,0.4577479720508 -3.322430334736,0.7729193991901 -1.369014470328,-0.2743807917398 -0.592948396463,-4.146538453786 0.776066073865,-3.8721576620466 z"
           inkscape:connector-curvature="0"
           transform="scale(0.2645833333333333)" />
        <path
           style="opacity:1;vector-effect:none;fill:#ffffff;fill-opacity:1;stroke:none;stroke-width:7.5590553284;stroke-linecap:round;stroke-linejoin:round;stroke-miterlimit:4;stroke-dasharray:none;stroke-dashoffset:0;stroke-opacity:1;paint-order:stroke markers fill"
           id="path5400"
           d="m 1099.882711719675,706.5609948616903 c -0.612987273885,0.8662527695757 -1.25867897223,1.7167409386759 -1.792491184003,2.6354331712946 -0.834871709739,1.7542503945582 0.772503296561,-1.6105770056597 1.156016673433,-2.4171713212114 0.200532476879,-0.4217541438929 -0.178191522115,0.7035245482234 -0.469999708436,0.6252683546097 -0.217561130039,-0.2533899268569 0.417594195179,-0.6486212906419 0.595004850844,-0.8555702956936 0.516220932903,-0.5445066304776 0.76076775693,-1.260495141737 1.139237464801,-1.8904701305729 0.508426274393,-1.1656306018178 1.421656376801,-3.0514140236768 -1.044316617076,2.2114790099779 -0.05197361373,0.110922370328 0.09888346218,-0.224297656432 0.141720287476,-0.3390584300531 0.06123707145,-0.1640554276587 0.157392851759,-0.4869890190412 0.210512720022,-0.6608416856311 0.07213264613,-0.7081753600484 0.463239390074,-0.3642061537578 0.223907867321,-0.1709596029208 -0.435152391358,0.3446712059202 -0.73835068279,0.7999710055104 -1.05329172405,1.2571530241913 -0.569851121666,1.1299400820724 -1.463182259829,3.0381740812567 1.062643618783,-2.1887561959821 0.385964473312,-0.7987127729481 -0.339368625938,0.7515165290947 -0.405274104358,0.9596866055368 -0.102944859123,0.450950049325 -0.530356552357,0.1519178392514 -0.49241926553,-0.1924521517051 0.409997378964,-0.6040115130241 0.925055914124,-1.11362047824 1.309007433251,-1.7404298771679 0.804576144048,-1.6540295878268 -0.823800367691,1.6593020633942 -1.220826821396,2.4961184910882 -0.04565817882,0.096234177194 0.117289969109,-0.178064233602 0.169221974656,-0.2710629053851 0.107995213152,-0.1933954076345 0.09730608867,-0.3241249540646 0.331739805024,-0.2780520944193 -1.142436273965,-0.7667939054287 1.02638440724,-3.9980916510058 2.168820681205,-3.2312977455766 v 0 c 0.233688799094,0.2050151676118 0.360026208755,0.2618272164918 0.468886375855,0.5656116430658 0.04301094594,0.1200260471393 0.07135822144,0.6427061041743 0.03309040388,0.7304575535677 -1.407304850768,3.2270729888346 -1.00242110004,2.63457929608 -2.054304568051,4.0379767816561 -0.520842674925,0.5971157051556 -1.073519454857,1.2461604789081 -1.815317182306,1.5644202935557 -0.770329873857,0.1266245219523 -1.560476450355,-0.1415281042124 -1.793094375945,-0.9537299918868 -0.05727558513,-2.0376750180766 1.110185166488,-3.9768490999943 2.405971256477,-5.5055752977249 0.509881219266,-0.5203561941752 1.102315535032,-0.9635038662597 1.842526963236,-1.0690495688384 0.795460285879,-0.00693932961 1.63855757934,0.3348547213202 1.712883240547,1.2255800340585 0.09032151974,2.0329657113091 -1.211105931513,3.8401027904871 -2.166498089474,5.5756963325971 -0.392947553707,0.710406960441 -0.902593632458,1.3523939312854 -1.570498646103,1.824537087581 -0.68869571548,0.423259330855 -1.342450018065,0.6958410902397 -2.130578874679,0.3019132166844 -0.310517011351,-0.2134285798553 -0.479307869134,-0.2704759642363 -0.655774374998,-0.6204617323707 -0.678311421282,-1.3452940695439 1.219773237379,-3.8851518360285 1.91851068317,-5.0839256203434 0.596712826734,-0.8633530166455 1.195025713684,-1.735160653987 1.94276433596,-2.4772016290193 1.391138786152,0.059319576617 1.22335768662,3.9940542536549 -0.167781099535,3.9347346770378 z"
           inkscape:connector-curvature="0"
           transform="scale(0.2645833333333333)" />
        <path
           style="opacity:1;vector-effect:none;fill:#ffffff;fill-opacity:1;stroke:none;stroke-width:7.5590553284;stroke-linecap:round;stroke-linejoin:round;stroke-miterlimit:4;stroke-dasharray:none;stroke-dashoffset:0;stroke-opacity:1;paint-order:stroke markers fill"
           id="path5402"
           d="m 1166.110072967397,690.6776124103256 c -0.995988890906,0.3071465528393 -1.979176187095,0.6406997581237 -2.885329282279,1.1612995813332 -0.757742031557,0.4321831544327 -1.494621716562,0.9405074510663 -2.100672890479,1.5719067689646 -0.863717642987,0.9964078039832 -1.728360538453,3.5650683392453 0.914932988694,-2.1601890843227 0.02409457408,-0.052187786835 -0.0621885806,0.1072454514332 -0.1159185001,0.1276711544917 -0.04852359138,0.018446490857 -0.102457118781,-0.0167865003 -0.153685678171,-0.025179750449 -0.02722511819,-0.016084781772 -0.280577963634,-0.1553484714868 -0.307155910934,-0.2062276692743 -0.05008088273,-0.095871780805 0.549577521503,-0.5313145596225 0.581452397262,-0.5582872445973 0.70902780309,-0.5451251741757 1.383087046183,-1.1230382096577 1.961437626833,-1.8091204802009 0.275765920483,-0.2959787462537 0.62600683168,-0.5824957310507 0.780425855945,-0.9715339012721 0.03209000389,-0.080846491898 0.08332379482,-0.3351991153427 0.04524549239,-0.2569944704303 -1.494122773152,3.0686068832922 -2.488155112932,2.8396808277906 -1.232539160386,3.0601843630171 0.113718503375,0.2794156187189 0.519252683965,0.248599300498 0.680048767636,0.4730956167928 0.05170111087,0.072182783772 -0.595649741055,0.6384140921759 -0.63331554679,0.6695558439355 -0.219028963786,0.277511462474 -0.503512871182,0.4910869395666 -0.765218469128,0.725891689753 -1.411529126542,-0.1260276285827 -1.05506916339,-4.1184348974616 0.356459963151,-3.9924072688784 v 0 c 0.274872931664,-0.2367698275813 0.534672706825,-0.4922241140694 0.836787537941,-0.6951456962161 0.772819595545,-0.5608263146871 1.453645114955,-0.625785539273 2.231588674117,0.040341003928 1.006506012065,1.5391402003575 -1.461172095159,3.8016002593725 -2.559148899147,5.0017643536831 -0.697638932948,0.644666909051 -1.434521668564,1.2543938165733 -2.269264940086,1.7154356012362 -0.798612434695,0.3519377691946 -1.532777574417,0.398801606323 -2.223684872015,-0.2261787056093 -1.179015840013,-1.5950002223129 0.947836420374,-3.7523221283509 2.210555262544,-4.910947309084 0.762406185694,-0.6129439423379 1.544297115383,-1.2041823948016 2.434335589281,-1.6244190735215 0.992441075459,-0.4491637454173 2.034818755722,-0.8073247857894 3.119426012347,-0.9496426706578 1.357336490585,0.3205887861474 0.450574471956,4.159716133526 -0.906762018626,3.8391273473784 z"
           inkscape:connector-curvature="0"
           transform="scale(0.2645833333333333)" />
        <path
           style="opacity:1;vector-effect:none;fill:#ffffff;fill-opacity:1;stroke:none;stroke-width:7.5590553284;stroke-linecap:round;stroke-linejoin:round;stroke-miterlimit:4;stroke-dasharray:none;stroke-dashoffset:0;stroke-opacity:1;paint-order:stroke markers fill"
           id="path5404"
           d="m 1115.173901374334,647.5200125839808 c -0.672927336703,0.7587645428342 -1.383183231341,1.4850999166267 -1.998085262173,2.2945329435488 -0.696538498562,1.0968925030672 -1.659892250231,3.3394715258927 0.929491679116,-2.0449353902184 0.05407481288,-0.1124440424554 -0.118709949729,0.219566602697 -0.173797197705,0.3315181242712 -0.110058173428,0.2236666457256 -0.120903462952,0.2651135892399 -0.201577573137,0.4778306945869 -0.140056799145,0.40642473995 0.314306385697,0.1420286895607 0.51808425046,0.084128676143 0.752555525048,-0.3320852252739 1.448992340445,-0.7644138072841 2.10912017849,-1.2532447863191 0.702021899756,-0.5535055700076 1.28365621957,-1.1173405990988 1.590500298125,-1.9680982296294 -3.596795538428,6.1488258467355 -1.27952839913,3.3385273887784 -1.127132080068,2.2675409121096 0.01880193568,-0.1321332363882 -0.0019121753,-0.1214725489079 -0.07575691839,-0.2191759069196 -0.351451870995,-0.1671580287878 -0.737616755132,0.1821160121737 -1.001312057944,0.3828722839457 -0.562919674007,0.5032040515184 -1.071457875745,1.0566747885817 -1.503321485639,1.6787154633575 -0.996922134193,1.1071495640441 -2.470006228391,4.6048129469722 0.310724276633,-1.2092664470448 0.0016535574,0.2181297017185 -0.551011847746,0.7743426334763 -0.524062171064,0.2525030096482 0.516990425251,-0.4189239800968 1.050285494203,-0.8432228209897 1.58469552724,-1.2514325421973 0.228541353613,-0.2751083774532 0.541366986392,-0.4466411674636 0.758994105803,-0.7324409825618 0.183238687414,-0.2406390486791 0.158779287238,-0.2427117070711 0.232816042478,-0.5102265066306 -0.478448679555,1.0076343568256 -0.95689735911,2.0152687136517 -1.435346038664,3.0229030704777 0.03796281328,-0.030461021191 0.06544087839,-0.086705158668 0.113888439829,-0.091383063572 0.06499782076,-0.00627593248 0.450125045586,0.1736981218113 0.413497893066,0.2747356424974 -0.04737276732,0.1306797451874 -0.260286072038,0.099247056349 -0.394824957116,0.134185048391 -0.322923267469,0.043567061574 -0.619769872575,0.1784825431399 -0.925261678492,0.2839463965039 -1.38082367075,-0.3043175477702 -0.5200836641,-4.2098766726117 0.86074000665,-3.9055591248415 v 0 c 0.35771456881,-0.095534046359 0.716727215724,-0.1852142921782 1.08769666958,-0.2123982335631 0.743674956909,-0.047226129808 1.637090677085,0.1592033602703 1.861920225535,0.9776331843726 -1.333033204435,2.9292581959173 -1.060937199043,3.3021232834984 -3.014194670891,4.7503581574566 -0.643621815715,0.4912126045988 -1.344776376972,0.9745946670737 -2.169552339208,1.0625951052863 -0.891505157756,-0.1092712466101 -1.636123842025,-0.5665929838182 -1.586108448161,-1.5582952686092 0.94913012391,-2.0244898485854 1.539638670662,-3.7442909941684 2.987152517122,-5.3232487493775 0.58963026535,-0.6208344889983 1.210378891378,-1.2328439474202 2.005152929087,-1.5842683716619 0.792993035529,-0.2667350871301 1.563482118637,-0.3207733305039 2.311775792549,0.1234975521605 2.037302440433,1.607084413706 0.282729780367,3.2218035134397 -0.719315800163,5.4118747767609 -0.595272842161,0.7919271140876 -1.342261015433,1.4417309349697 -2.172398244858,1.9819805725397 -0.814249945877,0.4823289100318 -1.670794886742,0.9455705610917 -2.62512562189,1.0575231636418 -0.873645782281,0.031143293002 -1.663606413846,-0.2099818874851 -2.147050051823,-0.9908528233948 -0.764130283402,-1.9717141483387 1.084222598815,-4.2209385474399 2.286064652489,-5.7863347729517 0.647984881112,-0.7323048840118 1.322344061922,-1.4397133568291 1.999688212664,-2.144448255244 1.391138786151,0.059319576617 1.223357686619,3.994054253655 -0.16778109953,3.9347346770376 z"
           inkscape:connector-curvature="0"
           transform="scale(0.2645833333333333)" />
        <path
           style="opacity:1;vector-effect:none;fill:#ffffff;fill-opacity:1;stroke:none;stroke-width:7.5590553284;stroke-linecap:round;stroke-linejoin:round;stroke-miterlimit:4;stroke-dasharray:none;stroke-dashoffset:0;stroke-opacity:1;paint-order:stroke markers fill"
           id="path5406"
           d="m 1044.328647625566,660.1400917921256 c -0.979704368306,0.4603845660107 -1.97648957149,0.8735683701534 -2.89616947625,1.4491832345589 -0.90691826227,0.4205192087823 -1.46752703217,1.1602816843791 -2.061987525154,1.9161088089606 -0.635608790895,1.1050578726174 -1.479429776178,3.1033138691688 1.069319332198,-2.2808697557408 0.04044541574,-0.085440165302 -0.09279526433,0.1647385441146 -0.137277513292,0.248148273932 -0.122387789782,0.2294922742469 -0.08719261412,0.1468798092535 -0.148904409201,0.3746709650911 0.01772673494,0.5154556318697 0.613487190776,0.4380931111434 0.989476758771,0.4478495169017 0.790415876678,-0.1194066895902 1.534263160171,-0.4731971116976 2.241093732481,-0.8350354612352 0.732064844896,-0.4338287984011 1.426997408838,-0.9261351728551 1.836126783365,-1.6862346694311 0.314902421561,-1.3378081819833 0.211152995957,-0.8083275891795 -1.317212804088,2.7178516833301 -0.02243733273,0.051766440729 0.09120232331,-0.067976740779 0.128004828613,-0.1107409067306 0.123674262406,-0.1437083328626 -0.02051187677,-0.2281899172639 -0.126803082618,-0.3119559804361 -0.470818622549,-0.2023480669518 -0.995444322388,-0.086677529436 -1.471825607104,0.032572053656 -0.593031010076,0.226870924078 -0.869428077913,0.5362325360028 -1.002133646502,1.149211715623 3.094374184737,-6.0240243874721 1.038710096331,-3.1995144669578 1.220453995779,-1.9348642542225 0.03892216657,0.1212100150151 0.310637113295,-0.262527218249 0.374739624353,-0.3490998360821 0.346278426373,-0.4958864608567 0.77097305997,-0.9269509863517 0.888935406596,-1.53848233033 -0.454327364906,0.9932710027526 -0.908654729811,1.9865420055056 -1.362982094716,2.9798130082587 0.09273773906,-0.1252605775261 0.2021521082,-0.5647985855086 0.393574305539,-0.3003374806384 -0.501565750568,0.2289093441194 -0.993083895042,0.4686979217761 -1.463864104925,0.7600995459586 -0.287991488559,0.2137086853676 -0.694038301939,0.3017625758856 -0.956914861496,0.5457185532987 -1.369240476017,-0.1709002552823 -0.885861558352,-4.0436971579501 0.483378917666,-3.8727969026683 v 0 c 0.369914634401,-0.2181909085294 0.722566670481,-0.4657059084494 1.118937792621,-0.6378310010346 0.731042327884,-0.3224588530733 1.485292086841,-0.6318116286533 2.296194147799,-0.4267292780361 2.405166975448,0.9837171331767 0.473357310145,2.9764193767811 -0.385682827932,4.9307270166729 -0.435733001317,0.5767025737406 -0.918417175921,1.1531448888211 -1.583716589787,1.4674197093956 -0.73817530142,0.2423398556375 -1.44848482378,0.2161932958461 -2.059668825933,-0.3250154666778 -1.45086162201,-1.6694221399748 0.139820303582,-3.5818279432343 1.016620371485,-5.2805363055769 0.553816322525,-0.5631038681564 1.23787820829,-0.9015275450515 2.019781228421,-1.0325927569803 0.812663954257,-0.099702918727 1.620422892902,-0.056467333825 2.359707240154,0.3334931403281 2.050889769433,1.4472450874997 1.149606327164,3.0258732177649 -0.697760273265,5.2256100195137 -0.701394922351,0.6949727178144 -1.513498494715,1.2706322917776 -2.424342490033,1.6609271825677 -0.905323879128,0.3668126535242 -1.835522511047,0.713652430648 -2.831222615052,0.6287872055461 -0.912880727244,-0.1247527850544 -1.755650043756,-0.3927489874709 -2.261402950815,-1.2259328743039 -0.879611822543,-1.9020390492426 0.74408049117,-3.8760628319353 1.957857393952,-5.3880284848184 0.699420747025,-0.8204943682931 1.572225170848,-1.4402566609016 2.51596479573,-1.9563669322849 0.961332713742,-0.5010699972512 1.962543308342,-0.9243240025766 2.999610738607,-1.2437687541332 1.367907896201,0.2545250997166 0.648002200234,4.123552897485 -0.719905695967,3.8690277977677 z"
           inkscape:connector-curvature="0"
           transform="scale(0.2645833333333333)" />
      </g>
      <path
         style="opacity:1;vector-effect:none;fill:#901758;fill-opacity:1;stroke:none;stroke-width:7.5590553284;stroke-linecap:round;stroke-linejoin:round;stroke-miterlimit:4;stroke-dasharray:none;stroke-dashoffset:0;stroke-opacity:1;paint-order:stroke markers fill"
         d="m 1061.416015625,523.970703125 c -9.153032088141,2.4942877111936 -0.529140564354,12.963731402546 -2.221780038766,19.2085757089754 0.698866502936,7.6848065125713 0.088496453,15.4879107101284 -1.609359827122,23.0048996528526 -0.493752602286,6.9852921196233 -3.955031009834,15.4583542967134 -7.288161403223,5.3545944108488 -2.975907344118,-5.2080156852437 -5.846012276392,-12.5921071908647 -10.017661082136,-15.8923069674553 -2.008623946579,-1.8357386766014 -5.30891070967,-6.4822683857308 -7.849365773753,-0.3867003052216 -5.124681336475,3.8518273337829 -8.900642675731,14.1020055563321 -12.037800021644,15.9879189952032 -1.862107323215,-5.845223770927 -6.659389804233,-10.5976701147155 -7.503215603356,-16.6793252452032 -0.413736140892,-6.5314893733575 -3.50191987225,-14.5058321458471 -0.959632816621,-20.174915541822 -0.94656646021,-3.3707789140408 1.451376155147,-9.0534598642655 -3.847531247662,-4.8066564276874 -5.236889833742,3.1625043229214 -10.3843679625229,6.8864474693817 -15.4231221551153,10.1025003360066 -3.6597053364076,7.6951578364088 4.8477950076981,11.4780051110475 7.8411081380923,17.829236480064 5.567736452562,8.0041315880876 7.720903224857,17.889075926439 13.454232008454,25.7025840147613 2.403114894116,8.4428857133026 12.44243169925,2.4621407126858 12.832379833061,-4.8259700781078 2.254059328603,-4.740966457902 4.828039155725,-14.0362575506384 8.021521321585,-15.3092415329378 3.720519082921,7.3766476527088 8.08395371662,14.3585469609408 12.633064459231,21.2003380430322 2.387167918458,7.871440267789 13.986748233282,6.4905440739943 13.910355902507,-2.4667494530443 2.998179061976,-9.691991066 4.277990130206,-19.764728664799 6.95435181053,-29.5307998997475 1.642596233565,-8.1356961286665 3.215991663679,-16.3579690021347 4.032265595704,-24.5866903671333 -2.736319408456,0.8089599412662 -7.145478086132,-3.9789497763473 -10.921649099766,-3.731291823384 z m -49.591796875,3.984375 c 0.457559869201,0.052408961278 -0.06480417595,-0.2306819088805 0,0 z m 78.109375,-1.505859375 c -6.828504154088,-1.8603751990211 -15.447865767629,8.7119041904309 -4.546778097138,9.0092559602641 4.662318446811,2.8333277139662 0.38550261731,13.1535558410624 1.652024638887,19.5414822674395 -2.642054313874,6.7735005232415 2.700757864383,19.5512761704857 -5.248556996223,21.5420243682961 -2.672042259054,2.5814164469311 -5.575911815121,10.3681043475312 1.852745903552,8.5102391852624 6.594342635757,-0.3888224531132 13.443062141631,4.2062765633099 20.084904035137,1.7966144793104 5.168323945053,-1.0028916126228 12.203700956014,-5.0556880327841 8.902767110118,-10.8987155035455 -4.870796779273,-0.5445308901076 -10.976444980934,-0.2813794885333 -7.054528469333,-6.633713257027 2.164125427168,-7.6428052500534 -1.053776139174,-15.3960685937644 0.971858994051,-23.0273079321217 -0.736302300901,-4.228283843019 0.02317432511,-5.8032059972453 3.640016419897,-6.2494276459604 -0.544086410019,-2.8010932376842 5.147867635472,-7.5871023780913 -0.666562913948,-6.9967019219179 0.141557295444,-8.8738749855202 -11.605178471962,-4.9678418407439 -17.0625,-6.44921875 l -1.264036348184,-0.1179012042244 z m 64.322265625,1.115234375 c -5.643693716044,8.2445035658931 -2.779842710527,18.5703588491733 -3.458984375,27.875 0.01139924566,3.5444042456317 0.500402702141,15.9401774388275 -2.672646458362,7.5725435152116 -4.395022520817,-8.248804379025 -9.494611863771,-16.1335761296998 -14.398626797247,-24.0896252661414 -2.825977599053,-3.5648475101985 -6.170383064833,-12.8686960782252 -10.365174307079,-5.319463750948 -4.062752634758,7.3832082288649 -1.807723353599,16.9166655427714 -2.284255562312,25.7154517518778 -0.298873731105,7.9809906714738 -0.985507362348,15.9669638199063 -1.137635258917,23.9618435405283 -0.259694572058,7.0334028618634 8.335858210861,-3.917698082989 6.708694782105,-7.6265838747029 0.147381671355,-9.9119349915134 -0.301207641957,-19.9304575938744 2.350815476812,-29.5911190408254 1.216485855976,3.8153320399828 2.157544972022,15.4231118979425 2.682765287778,22.3236705490197 0.29989752817,7.0651524027269 -2.719610381866,14.184116998159 -0.232083173114,21.2747597212956 3.0562937974,4.859959229639 8.03191419187,-4.6649016858927 4.989606103326,-8.2725782743611 -1.40046174618,-7.0716062213199 2.341731457913,-13.964275599243 0.50502428201,-21.0426488709542 0.469966948915,-3.5714606781431 5.318817790297,7.1076233549276 6.900700294542,10.0334448724379 2.589937086381,5.368242158435 6.480674179044,10.7202066151152 6.245784080458,16.8708520025621 1.595119252338,9.6116908667709 10.983329021105,-2.3848068430776 7.809118644306,-8.1607895926614 -0.560451059942,-7.8702476504124 -1.25785459596,-15.7309949660549 -1.435491438363,-23.6231236467668 -0.669447663655,-8.9286737135473 1.3729398415,-17.7257718209032 0.737415892816,-26.6356862634964 -0.295278339181,-1.3117707374277 -1.980907253428,-1.1973822404821 -2.945027473759,-1.2659473720754 z m 38.173828125,1.5078125 c -7.882054587381,2.1106919766759 -16.663809967148,-1.349120764869 -23.982334458036,1.5504542579683 -5.232413768295,6.6712574263288 -3.403005384884,15.7601429345723 -4.816493666964,23.6018894920317 -0.392321348742,11.7312274993041 0.479366785559,23.5364540137998 -0.6875,35.205078125 2.862842245702,4.2521635603885 6.937845708286,5.6312617589965 11.185546875,1.986328125 7.583495787281,-0.9339018254153 15.014920612214,2.4948303491348 22.56640625,2.154296875 7.127589107532,-6.2132070954381 -0.523760432847,-12.7929995098191 -7.708897860093,-12.8903618885985 -5.735984870827,-0.9724041867954 -17.878469728317,6.5909676541451 -14.564539639907,-4.0959662364015 0.767547533407,-5.3704799705902 -0.573941082249,-13.5781577176502 7.471353391042,-9.9460217647077 6.473551292571,2.7509330018326 13.044077645083,-2.0939769858885 9.087467741491,-8.2442245482987 -5.422178583803,-4.3484463823158 -17.517145622613,0.7121440250844 -14.130525749196,-9.6238335052957 0.03359385077,-4.8701015653688 -0.983220951538,-11.2914544459916 5.595802451333,-8.0685386224638 5.438442443245,-1.2387767752754 17.784925521367,4.4752432537949 16.952570914815,-4.7432439244116 2.217387287115,-4.7871970369808 -5.347787437378,-4.0844748152458 -6.968856249485,-6.8858563848225 z M 1107.95703125,529.34375 c 0.92605286524,0.3310890488376 -0.256129654284,0.220043589597 0,0 z m -0.0703125,0.037109375 c 0.38770915295,0.2548302814902 0.174319012473,-0.091905173736 0,0 z m 91.001953125,3.939453125 c 1.312392114655,0.3104538432896 -0.646687457542,0.3196984072471 0,0 z m -30.02734375,4.966796875 c 0.06313660196,0.8086488710275 -1.452072141572,1.6392532858558 0,0 z m -0.353515625,0.40234375 c -0.149226032519,0.4738687455749 0.534308774113,-0.1950020662364 0,0 z m 1.69921875,-0.060546875 c 3.341120421495,3.5312098649651 0.294542350455,13.6794554508386 0.526815503643,19.5260865921334 -2.897211542654,4.5944531423993 -1.121849726239,-6.8092793287044 -1.339315503643,-9.5319459671334 0.525765064847,-3.3172943874889 0.67302732711,-6.6461186697255 0.8125,-9.994140625 z m -74.05859375,0.611328125 c 8.867998594628,-1.1674424634369 3.679290718162,9.2299239547805 4.302782814305,14.5855582249525 -0.917673168528,6.743949702254 1.564288569126,13.6768154730672 -0.849657814305,20.3265511500475 -7.152005764312,2.9958107463801 -3.138542534594,-9.487494832204 -3.927734375,-13.755859375 0.939725896753,-6.9963244792494 0.299390647369,-14.1151440376078 0.474609375,-21.15625 z m -102.44140625,6.87890625 c -0.084957587684,0.9601887046183 -0.3706775454007,-0.061239314436 0,0 z m -0.734375,0.228515625 c 0.2236912592475,0.5981707828702 -0.8671305632779,-0.1380263740471 0,0 z m 196.556640625,12.380859375 c 4.135189143044,-0.3344815183169 -1.742133862865,1.7167340099786 0,0 z m -157.66015625,7.58984375 c -0.199808095536,0.5268179358608 -0.10737341694,0.1341715600074 0,0 z m 138.701171875,0.33984375 c 0.0035505753,0.074167290135 -0.133391062744,0.1963389933262 0,0 z m -144.65625,1.3359375 c -1.434150155981,3.0308993641243 -1.492109978293,3.1089190118714 0,0 z m 2.169921875,4.189453125 c -0.850632087421,1.925908157395 -2.523297631531,5.32792498972 0,0 z m 84.494140625,3.982421875 c 0.703645965712,0.1129829034853 -0.636962626585,0.7138044822972 0,0 z m -57.4296875,1.251953125 c -0.591348299361,1.7867037344149 -0.570846735045,0.2913731579451 0,0 z m 25.3671875,6.685546875 c 0.318460918068,1.0158860951951 -1.04519638688,0.01098342496 0,0 z m 9.51953125,0.919921875 c 0.567723276289,-0.2967078144239 0.02254859803,0.78800537815 0,0 z m 107.404296875,0.775390625 c 1.370902429899,0.6024981011983 -0.991341829156,0.4994449447253 0,0 z"
         id="path5561"
         inkscape:connector-curvature="0"
         transform="scale(0.2645833333333333)" />
      <path
         style="opacity:1;vector-effect:none;fill:#f22ec2;fill-opacity:1;stroke:none;stroke-width:7.5590553284;stroke-linecap:round;stroke-linejoin:round;stroke-miterlimit:4;stroke-dasharray:none;stroke-dashoffset:0;stroke-opacity:1;paint-order:stroke markers fill"
         d="M 1061.416015625 523.970703125 C 1057.310831296565 525.0894046354937 1056.790602782439 527.8164112834709 1057.302734375 531.04296875 C 1057.70170969025 529.3760311446538 1058.86832786814 528.0634096063277 1061.416015625 527.369140625 C 1065.020083130477 527.1327699793047 1069.196648025525 531.4722687288198 1071.94921875 531.166015625 C 1072.091712785312 530.0115621362223 1072.223323796616 528.8561009636994 1072.337890625 527.701171875 C 1069.601571216544 528.5101318162662 1065.192186638634 523.7230451720367 1061.416015625 523.970703125 z M 1087.984375 526.234375 C 1083.229988488034 526.419160168843 1078.578256705877 531.3863625466233 1080.759765625 533.955078125 C 1082.227087422494 531.3480609911406 1086.328453658927 528.8654626299797 1089.93359375 529.84765625 L 1091.1953125 529.873046875 L 1092.458984375 529.9921875 C 1097.916305903038 531.4735644092561 1109.663041670444 527.5675312644798 1109.521484375 536.44140625 C 1110.289662367586 536.3634050367444 1110.846491949824 536.3838531956397 1111.25390625 536.4765625 C 1112.285496645175 534.4267658573596 1113.177139487387 532.671771531696 1109.521484375 533.04296875 C 1109.663041670444 524.1690937644798 1097.916305903038 528.0751269092561 1092.458984375 526.59375 L 1091.1953125 526.4765625 L 1089.93359375 526.44921875 C 1089.293421485554 526.2748085750918 1088.638467205076 526.2089528896499 1087.984375 526.234375 z M 1154.255859375 527.564453125 C 1150.923278695681 532.4328025919747 1150.572243128741 538.0299232379839 1150.69140625 543.7109375 C 1150.831052801663 539.2156189646739 1151.590484555879 534.8565626253451 1154.255859375 530.962890625 C 1155.219979595331 531.0314557565932 1156.905893535819 530.9167448875723 1157.201171875 532.228515625 C 1157.241869558976 532.7990887449979 1157.268912918484 533.3697411142123 1157.2890625 533.939453125 C 1157.32597618416 532.2391473979709 1157.322918892124 530.5369461485559 1157.201171875 528.830078125 C 1156.905893535819 527.5183073875723 1155.219979595331 527.6330182565932 1154.255859375 527.564453125 z M 1011.861328125 527.865234375 C 1011.828618955966 527.8719531393789 1011.808017706012 527.8974076477799 1011.82421875 527.955078125 C 1012.167388651901 527.9943848459585 1011.959455632101 527.8450780818632 1011.861328125 527.865234375 z M 1010.78515625 528.072265625 C 1010.250014415729 528.0840525986533 1009.406758100702 528.5242366408554 1008.08203125 529.5859375 C 1002.845141416258 532.7484418229214 997.6969573175926 536.473400258375 992.658203125 539.689453125 C 991.7056340027797 541.692392999053 991.5883953181554 543.4265590095581 991.97265625 545.013671875 C 992.1184767502222 544.3980494281483 992.3391870901478 543.7586765257423 992.658203125 543.087890625 C 997.6969573175926 539.8718377583751 1002.845141416258 536.1468793229216 1008.08203125 532.984375 C 1012.075329248173 529.783950766708 1011.69932717898 532.2237464751479 1011.67578125 535.0625 C 1011.757281924449 534.8381805188729 1011.832046568563 534.610309077905 1011.9296875 534.392578125 C 1011.219762654842 531.8644939394694 1012.390581752813 528.03690470404 1010.78515625 528.072265625 z M 1192.4296875 529.072265625 C 1184.547632912619 531.1829576016759 1175.765790115888 527.7234718521627 1168.447265625 530.623046875 C 1163.214851856705 537.2943043013288 1165.04434765708 546.3828628175406 1163.630859375 554.224609375 C 1163.519332361419 557.5594999508824 1163.512398660429 560.9001750054783 1163.529296875 564.2421875 C 1163.535670766393 562.0342046615092 1163.557146960381 559.8272019845704 1163.630859375 557.623046875 C 1165.04434765708 549.7813003175406 1163.214851856705 540.6927418013288 1168.447265625 534.021484375 C 1175.765790115888 531.1219093521627 1184.547632912619 534.5813951016758 1192.4296875 532.470703125 C 1193.634318217277 534.552434797537 1198.11569281556 534.7010695433547 1199.431640625 536.603515625 C 1199.426797253657 536.3948353771486 1199.418876322703 536.1853482631152 1199.3984375 535.958984375 C 1201.615824787115 531.1717873380192 1194.050756312107 531.8736471945767 1192.4296875 529.072265625 z M 1107.95703125 529.34375 C 1108.793866827004 529.642941445352 1107.918925499861 529.5794151399562 1107.9296875 529.40234375 C 1108.198190998482 529.5607305756151 1108.08815509829 529.3700798747424 1107.94140625 529.37890625 C 1107.947304248496 529.367072896834 1107.942350647864 529.3563622545257 1107.95703125 529.34375 z M 1126.705078125 530.73046875 C 1125.652441603408 530.690093429894 1124.541113161882 531.4802940329532 1123.361328125 533.603515625 C 1121.081686472739 537.7462903688623 1120.804393105402 542.5714928113719 1120.904296875 547.55859375 C 1121.029660249068 543.7925967333165 1121.603450944199 540.1945762967664 1123.361328125 537 C 1127.556119367246 529.4507676727228 1130.900584900947 538.7554649898016 1133.7265625 542.3203125 C 1138.630577433476 550.2763616364416 1143.729977479183 558.1613518709751 1148.125 566.41015625 C 1150.960491549078 573.8876184877515 1150.869675070651 565.0292713362189 1150.810546875 560.478515625 C 1150.743927610657 564.7188386857574 1150.301091936983 568.7502811837189 1148.125 563.01171875 C 1143.729977479183 554.762914370975 1138.630577433476 546.8779241364416 1133.7265625 538.921875 C 1131.695391100681 536.3596408520448 1129.395149235736 530.8336501236043 1126.705078125 530.73046875 z M 1107.95703125 532.7421875 C 1107.942350647864 532.7547997545257 1107.947304248496 532.765510396834 1107.94140625 532.77734375 C 1108.08815509829 532.7685173747423 1108.198190998482 532.959168075615 1107.9296875 532.80078125 C 1107.918925499861 532.9778526399562 1108.793866827004 533.041378945352 1107.95703125 532.7421875 z M 1198.888671875 533.3203125 C 1200.201063989655 533.6307663432896 1198.241984417458 533.6400109072471 1198.888671875 533.3203125 z M 1198.888671875 536.71875 C 1198.241984417458 537.038448407247 1200.201063989655 537.0292038432895 1198.888671875 536.71875 z M 1011.009765625 541.587890625 C 1010.563184762218 546.7110536979613 1012.560771975505 552.7903704103962 1012.888671875 557.966796875 C 1013.732497674123 564.0484520054877 1018.530470801785 568.8012606040729 1020.392578125 574.646484375 C 1023.529735470913 572.7605709361287 1027.305006163525 562.5100304587829 1032.4296875 558.658203125 C 1034.970142564084 552.5626350444905 1038.270672928421 557.2091831983986 1040.279296875 559.044921875 C 1044.450945680744 562.3451216515905 1047.320967655882 569.7294843147563 1050.296875 574.9375 C 1053.630005393389 585.0412598858644 1057.090231772714 576.5673233696233 1057.583984375 569.58203125 C 1058.935045412677 563.6004231480283 1059.585154196136 557.4390053263371 1059.447265625 551.298828125 C 1059.322011083231 556.3074753781585 1058.685815855424 561.3054099177979 1057.583984375 566.18359375 C 1057.090231772714 573.1688858696233 1053.630005393389 581.6428223858645 1050.296875 571.5390625 C 1047.320967655882 566.3310468147563 1044.450945680744 558.9466841515904 1040.279296875 555.646484375 C 1038.270672928421 553.8107456983986 1034.970142564084 549.1641975444908 1032.4296875 555.259765625 C 1027.305006163525 559.1115929587829 1023.529735470913 569.3621334361291 1020.392578125 571.248046875 C 1018.530470801785 565.402823104073 1013.732497674123 560.6500145054878 1012.888671875 554.568359375 C 1012.630897492623 550.4989768076726 1011.335314003041 545.8709584923362 1011.009765625 541.587890625 z M 1168.861328125 541.685546875 C 1168.719211063291 541.8459837112376 1168.626641360959 541.9646222836607 1168.537109375 542.080078125 C 1168.983303465304 541.9362717831948 1168.413513510213 542.4965341445547 1168.501953125 542.123046875 C 1167.733826798994 543.1327224644556 1168.917613623149 542.4064473213455 1168.861328125 541.685546875 z M 1059.263671875 542.861328125 C 1059.241076755303 542.9676094562902 1059.221546673763 543.0756929430627 1059.193359375 543.1796875 C 1059.267833419896 543.9986116047226 1059.320227093494 544.8195035350595 1059.365234375 545.640625 C 1059.465416714108 544.768124305368 1059.410075683897 543.8320498385237 1059.263671875 542.861328125 z M 1087.544921875 543.083984375 C 1087.303288016607 546.5429764860197 1086.571199212303 550.487043263247 1086.861328125 553.72265625 C 1087.089270514237 550.0750019246773 1087.845755921935 546.1108588796706 1087.544921875 543.083984375 z M 1096.130859375 544.150390625 C 1096.102732604004 546.9503709330548 1096.164406612146 549.7589686713213 1096.189453125 552.56640625 C 1096.227911281896 549.7641067254837 1096.160321217971 546.9553552525491 1096.130859375 544.150390625 z M 1101.2734375 545.5625 C 1100.962641422616 548.3806320621122 1100.18675929172 551.5549368405234 1100.451171875 553.826171875 C 1100.212282729965 555.5817602846639 1100.20767006982 557.3501814067472 1100.283203125 559.123046875 C 1100.31633088714 558.4888466849778 1100.365271809351 557.8558861105796 1100.451171875 557.224609375 C 1100.070377469541 553.953684883126 1101.844625564999 548.8114578901418 1101.2734375 545.5625 z M 1106.478515625 545.78515625 C 1106.350223214117 546.2249348658684 1106.304044705745 546.754081373701 1106.310546875 547.34765625 C 1106.382810831221 546.9944872019698 1106.455215243525 546.6417332707492 1106.548828125 546.2890625 C 1106.517169148076 546.1072579063574 1106.504535683027 545.9572711633848 1106.478515625 545.78515625 z M 1171.71875 546.380859375 C 1171.474574504268 550.3928266010533 1170.606174573189 554.9273177883962 1170.734375 558.154296875 C 1169.705779195411 559.7854636562579 1169.272001369306 559.3814343534149 1169.123046875 558.083984375 C 1168.952139921772 561.4183051773105 1169.034495417952 564.2484357321352 1170.734375 561.552734375 C 1170.567867730554 557.3615199645752 1172.076350458245 550.9708961486896 1171.71875 546.380859375 z M 1176.841796875 547.8515625 C 1176.831446753324 548.190523396301 1176.817473466732 548.5233707046475 1176.818359375 548.875 C 1176.830034004836 548.8385621403302 1176.837542658391 548.8063589178216 1176.849609375 548.76953125 C 1176.851655641066 548.4728839962689 1176.845591147383 548.1571906738468 1176.841796875 547.8515625 z M 1176.521484375 553.349609375 C 1174.450496490631 562.09707321855 1185.779708966613 557.6201413692313 1190.98046875 561.791015625 C 1191.40240352968 562.4468809777771 1191.681567332244 563.0845774687235 1191.876953125 563.703125 C 1192.426082219974 562.2055038310609 1192.251266801445 560.3698896524347 1190.98046875 558.39453125 C 1186.655303252692 554.9258608679754 1178.093702424634 557.4347663891317 1176.521484375 553.349609375 z M 1156.361328125 553.51171875 C 1156.32108914639 555.2919889472557 1156.328766186465 557.0744134807799 1156.462890625 558.86328125 C 1156.640527467403 566.7554099307121 1157.337986440058 574.6160804745876 1157.8984375 582.486328125 C 1158.092576779286 582.8395955506159 1158.238938663554 583.2178891390122 1158.34375 583.611328125 C 1158.668628432546 582.0003205338402 1158.612000216831 580.3882850799397 1157.8984375 579.08984375 C 1157.337986440058 571.2195960995876 1156.640527467403 563.3589255557115 1156.462890625 555.466796875 C 1156.414002772156 554.814761308518 1156.383390781288 554.1624461192177 1156.361328125 553.51171875 z M 1150.876953125 553.849609375 C 1150.859029004157 554.3821521277074 1150.835308673016 554.9128891483964 1150.796875 555.439453125 C 1150.799018857718 556.1060497248502 1150.813873144975 557.2440954328539 1150.822265625 558.33984375 C 1150.910322438961 556.8640938914543 1150.907599408454 555.3613646428469 1150.876953125 553.849609375 z M 1105.88671875 554.09375 C 1105.704497885692 557.5543390755092 1106.170320779822 561.0312092214639 1106.31640625 564.501953125 C 1106.485955175667 561.0377385448135 1106.026476434716 557.5617614267984 1105.88671875 554.09375 z M 1086.796875 555.71875 C 1086.209661707687 557.7038882770577 1086.193472055248 560.1128036899162 1086.267578125 562.57421875 C 1086.348596241336 561.0527782700764 1086.560406314612 559.6255802976157 1087.0390625 558.3984375 C 1086.873775924184 557.5647856032388 1086.805529981577 556.6609658049497 1086.796875 555.71875 z M 1121.115234375 558.203125 C 1121.104184281999 558.575357602798 1121.096202566981 558.9485086636779 1121.076171875 559.318359375 C 1120.777298143895 567.2993500464738 1120.091581021569 575.2844171543778 1119.939453125 583.279296875 C 1119.921213813127 583.7732788142952 1119.949205709102 584.1707990503631 1120.01171875 584.49609375 C 1120.231482628732 577.2301136641249 1120.804492728926 569.9715954898886 1121.076171875 562.716796875 C 1121.156735593104 561.2292522372118 1121.147090392129 559.7187261480772 1121.115234375 558.203125 z M 1190.64453125 558.703125 C 1192.313646793994 558.8481930135164 1188.004929744993 560.2306578837313 1189.529296875 558.728515625 C 1190.046195517881 558.6867054352103 1190.406086172286 558.6824009980691 1190.64453125 558.703125 z M 1190.64453125 562.1015625 C 1190.406086172286 562.0808384980691 1190.046195517881 562.0851429352103 1189.529296875 562.126953125 C 1188.004929744993 563.6290953837313 1192.313646793994 562.2466305135164 1190.64453125 562.1015625 z M 1137.310546875 563.029296875 C 1137.129894189882 563.0733761235323 1137.002105243614 563.2977080402321 1136.943359375 563.744140625 C 1137.174304647706 564.6341664641744 1137.314773158205 565.5213713140992 1137.390625 566.40625 C 1137.468197494083 565.282846074238 1137.487983000893 564.1583760356834 1137.392578125 563.029296875 C 1137.364833903745 563.0284386841207 1137.336180026267 563.0230423870325 1137.310546875 563.029296875 z M 1095.6875 563.6640625 C 1095.681776600317 563.7075889766257 1095.679673207762 563.7514048284332 1095.673828125 563.794921875 C 1095.675562034294 563.8042997684013 1095.676046662285 563.8167149239686 1095.677734375 563.826171875 C 1095.681885079837 563.7710449227969 1095.683578281021 563.7186985928166 1095.6875 563.6640625 z M 1100.640625 568.75 C 1100.537476505271 570.5648993105907 1100.248917776245 572.3690640940503 1099.6015625 574.15234375 C 1096.610572530443 575.405200667122 1095.583453063212 573.9363472045872 1095.330078125 571.5078125 C 1095.05089047336 575.6680051247682 1095.367670180939 579.3242613794135 1099.6015625 577.55078125 C 1100.651546562816 574.6583738085199 1100.760536986159 571.7106948593951 1100.640625 568.75 z M 1086.359375 569.31640625 C 1086.165426515133 572.8282434484801 1085.210494300348 575.6846750309026 1081.791015625 576.541015625 C 1080.020420392833 578.2515588013615 1078.166039071448 582.2362254916665 1079.265625 584.197265625 C 1079.782077159835 582.56735779646 1080.801230467494 580.8956684228143 1081.791015625 579.939453125 C 1086.261908837479 578.8198066194311 1086.51232960202 574.2731022959599 1086.359375 569.31640625 z M 1131.63671875 571.232421875 C 1131.358612314042 575.7886349209424 1130.212691595699 580.3638268662828 1130.51953125 584.93359375 C 1130.785534854597 580.5427690407816 1131.867097281406 576.1542470844801 1131.681640625 571.78515625 C 1131.669261451624 571.6225136229583 1131.649558099048 571.400130757427 1131.63671875 571.232421875 z M 1104.841796875 574.1015625 C 1102.643321771356 579.0156659834536 1108.149712034221 578.8466862320018 1112.630859375 579.34765625 C 1112.865265064276 579.7625809184988 1113.033438855198 580.1660815863511 1113.16796875 580.5625 C 1113.658528976801 579.1956413514325 1113.592176025603 577.6508583040786 1112.630859375 575.94921875 C 1109.615033372986 575.6120643804574 1106.13110415814 575.5814513029609 1104.841796875 574.1015625 z M 1163.57421875 574.513671875 C 1163.560922684928 579.4994846132754 1163.438630984849 584.4769899686322 1162.943359375 589.4296875 C 1163.022058126736 589.5465783153716 1163.105037692323 589.653121133207 1163.185546875 589.765625 C 1163.547918663653 584.6978438624643 1163.600550163417 579.6087227460729 1163.57421875 574.513671875 z M 1126.671875 575.73046875 C 1126.667019304731 576.5282218100683 1126.663442404767 577.3262421056403 1126.654296875 578.123046875 C 1126.881337227999 577.2067260004111 1126.922576026321 576.367772737793 1126.671875 575.73046875 z M 1112.578125 576.166015625 C 1113.281770965712 576.2789985284853 1111.941162373415 576.8798201072972 1112.578125 576.166015625 z M 1055.1484375 577.41796875 C 1054.557089200639 579.2046724844149 1054.577590764955 577.7093419079451 1055.1484375 577.41796875 z M 1136.189453125 579.482421875 C 1136.061991895514 581.2427585586344 1136.08555279448 583.0099583354079 1136.4375 584.787109375 C 1136.781088241763 585.1945484705169 1137.010692427717 585.683752225125 1137.1640625 586.212890625 C 1137.563297172535 584.4477405087413 1137.451337412069 582.5909161545352 1136.4375 581.388671875 C 1136.311390617915 580.7518848343316 1136.239990449241 580.1165732706709 1136.189453125 579.482421875 z M 1112.578125 579.564453125 C 1111.941162373415 580.2782576072971 1113.281770965712 579.6774360284853 1112.578125 579.564453125 z M 1187.841796875 580.591796875 C 1183.097259147677 580.5843945589028 1175.633051798857 584.278582779776 1174.1328125 581.0390625 C 1171.959692696325 590.141588768837 1183.45233730782 583.1399642548972 1188.986328125 584.078125 C 1193.433234010407 584.1383829059337 1198.054178783787 586.6832674954667 1199.244140625 590.0859375 C 1200.972535773863 585.1199835498396 1194.825828816487 580.7588157955915 1188.986328125 580.6796875 C 1188.627829070573 580.6189122383253 1188.245009084857 580.5924259572 1187.841796875 580.591796875 z M 1055.1484375 580.81640625 C 1054.577590764955 581.1077794079451 1054.557089200639 582.6031099844149 1055.1484375 580.81640625 z M 1197.439453125 585.798828125 C 1198.810355554899 586.4013262261983 1196.448111295844 586.2982730697253 1197.439453125 585.798828125 z M 1197.439453125 589.197265625 C 1196.448111295844 589.6967105697252 1198.810355554899 589.7997637261983 1197.439453125 589.197265625 z "
         transform="scale(0.2645833333333333)"
         id="path5593" />
    </g>
    <use
       x="0"
       y="0"
       xlink:href="#g5445"
       id="use5523"
       transform="translate(-226.5644598107725,4.233853132973309e-6)"
       width="100%"
       height="100%" />
  </g>
  <g
     inkscape:label="Layer 1"
     inkscape:groupmode="layer"
     id="layer1"
     transform="translate(108.0227032425933,39.16052747797852)"
     sodipodi:insensitive="true"
     style="display:none">
    <image
       sodipodi:absref="D:\deving-games\drim-tim\Drim-Tim-Fase-2\Art\bottle label uv.png"
       xlink:href="bottle label uv.png"
       id="image5234"
       preserveAspectRatio="none"
       height="1365.333374023438"
       width="1365.333374023438"
       transform="matrix(0.2645833333333333,0,0,0.2645833333333333,-108.0227032425933,-39.16052747797846)" />
  </g>
</svg>
